<svg width="500" height="500" viewBox="0 0 500 500" fill="none" xmlns="http://www.w3.org/2000/svg">
<g clip-path="url(#clip0)">
<g clip-path="url(#clip1)">
<path fill-rule="evenodd" clip-rule="evenodd" d="M318.125 257.05L353.23 240.154L391.033 316.644L355.928 333.54L318.125 257.05Z" fill="#2AD78B"/>
<path fill-rule="evenodd" clip-rule="evenodd" d="M296.762 318.691L331.867 301.796L357.703 354.071C355.007 360.185 350.403 364.803 343.891 367.925C337.379 371.047 330.281 372.061 322.597 370.966L296.762 318.691Z" fill="#2AD78B"/>
<path fill-rule="evenodd" clip-rule="evenodd" d="M314.047 353.55L296.785 318.623L373.667 281.621L390.928 316.548L314.047 353.55Z" fill="#2AD78B"/>
<path fill-rule="evenodd" clip-rule="evenodd" d="M335.368 292.03L318.106 257.103L370.882 231.703C378.696 234.876 384.1 239.49 387.093 245.546C390.086 251.603 390.437 258.631 388.144 266.63L335.368 292.03Z" fill="#2AD78B"/>
<path d="M291.878 282.161C298.845 261.926 288.09 239.874 267.854 232.906C247.619 225.939 225.567 236.694 218.6 256.929C211.632 277.164 222.388 299.216 242.623 306.184C262.858 313.151 284.91 302.396 291.878 282.161Z" fill="#C8D1E0"/>
<path fill-rule="evenodd" clip-rule="evenodd" d="M154.696 235.19C173.216 181.404 232.242 152.956 286.535 171.651C313.683 180.998 334.506 200.363 346.227 224.115L310.934 240.987C303.62 226.294 290.69 214.319 273.856 208.522C240.068 196.888 203.347 214.553 191.838 247.979C180.329 281.404 198.389 317.932 232.177 329.566C249.016 335.364 266.582 333.885 281.394 326.805L298.818 361.83C274.956 373.335 246.62 375.777 219.468 366.427C165.175 347.733 136.176 288.976 154.696 235.19Z" fill="#0F1758"/>
</g>
<g clip-path="url(#clip2)">
<path fill-rule="evenodd" clip-rule="evenodd" d="M335.705 441.177L351.038 443.963L345.287 477.604L329.954 474.818L335.705 441.177Z" fill="#2AD78B"/>
<path fill-rule="evenodd" clip-rule="evenodd" d="M314.299 456.102L329.631 458.888L325.701 481.879C323.392 483.224 320.816 483.636 317.975 483.115C315.133 482.594 312.598 481.254 310.369 479.093L314.299 456.102Z" fill="#2AD78B"/>
<path fill-rule="evenodd" clip-rule="evenodd" d="M311.697 471.447L314.322 456.085L347.901 462.187L345.275 477.549L311.697 471.447Z" fill="#2AD78B"/>
<path fill-rule="evenodd" clip-rule="evenodd" d="M333.06 456.551L335.686 441.19L358.737 445.379C360.519 448.243 361.183 451.006 360.728 453.67C360.273 456.334 358.734 458.69 356.111 460.74L333.06 456.551Z" fill="#2AD78B"/>
<path d="M321.307 443.132C328.319 438.222 330.023 428.557 325.113 421.545C320.203 414.533 310.538 412.829 303.526 417.739C296.514 422.649 294.81 432.314 299.72 439.326C304.63 446.338 314.295 448.042 321.307 443.132Z" fill="#C8D1E0"/>
<path fill-rule="evenodd" clip-rule="evenodd" d="M287.958 395.679C306.597 382.628 332.386 387.3 345.56 406.114C352.148 415.522 354.334 426.685 352.542 437.127L337.154 434.289C338.242 427.814 336.873 420.899 332.788 415.065C324.59 403.356 308.553 400.439 296.97 408.55C285.387 416.661 282.643 432.728 290.842 444.437C294.928 450.272 300.96 453.923 307.418 455.115L304.822 470.546C294.395 468.659 284.651 462.786 278.062 453.377C264.888 434.562 269.319 408.73 287.958 395.679Z" fill="#0F1758"/>
</g>
<g clip-path="url(#clip3)">
<path fill-rule="evenodd" clip-rule="evenodd" d="M62.8913 108.108L65.5171 123.469L31.9382 129.571L29.3124 114.21L62.8913 108.108Z" fill="#2AD78B"/>
<path fill-rule="evenodd" clip-rule="evenodd" d="M41.5451 93.0973L44.1709 108.458L21.2225 112.629C19.1689 110.918 17.9008 108.639 17.4184 105.791C16.9359 102.942 17.3287 100.101 18.5967 97.2675L41.5451 93.0973Z" fill="#2AD78B"/>
<path fill-rule="evenodd" clip-rule="evenodd" d="M26.2361 95.9003L41.5689 93.1139L47.3195 126.755L31.9867 129.541L26.2361 95.9003Z" fill="#2AD78B"/>
<path fill-rule="evenodd" clip-rule="evenodd" d="M47.5399 110.881L62.8728 108.095L66.8203 131.188C64.7389 133.843 62.3689 135.412 59.7102 135.895C57.0515 136.378 54.3106 135.738 51.4875 133.974L47.5399 110.881Z" fill="#2AD78B"/>
<path d="M56.1297 95.247C63.142 100.157 72.8069 98.4529 77.717 91.4406C82.627 84.4283 80.9229 74.7634 73.9106 69.8533C66.8983 64.9433 57.2333 66.6475 52.3233 73.6597C47.4132 80.672 49.1174 90.337 56.1297 95.247Z" fill="#C8D1E0"/>
<path fill-rule="evenodd" clip-rule="evenodd" d="M89.3152 47.6788C107.954 60.7301 112.385 86.5624 99.2105 105.377C92.623 114.785 82.8813 120.657 72.4565 122.545L69.86 107.114C76.3159 105.922 82.3463 102.27 86.4311 96.4366C94.6298 84.7277 91.886 68.6607 80.3027 60.55C68.7195 52.4393 52.683 55.3562 44.4843 67.0651C40.3985 72.9004 39.0303 79.818 40.1195 86.2939L24.7313 89.1317C22.9384 78.6883 25.1238 67.5237 31.7124 58.1142C44.8865 39.2997 70.6761 34.6276 89.3152 47.6788Z" fill="#0F1758"/>
</g>
<g clip-path="url(#clip4)">
<path fill-rule="evenodd" clip-rule="evenodd" d="M476.502 307.358L491.576 303.403L500.581 336.323L485.507 340.277L476.502 307.358Z" fill="#2AD78B"/>
<path fill-rule="evenodd" clip-rule="evenodd" d="M463.409 329.931L478.483 325.976L484.637 348.474C483.112 350.669 480.952 352.131 478.157 352.86C475.362 353.589 472.497 353.445 469.564 352.429L463.409 329.931Z" fill="#2AD78B"/>
<path fill-rule="evenodd" clip-rule="evenodd" d="M467.536 344.938L463.424 329.906L496.435 321.245L500.547 336.277L467.536 344.938Z" fill="#2AD78B"/>
<path fill-rule="evenodd" clip-rule="evenodd" d="M480.603 322.409L476.491 307.377L499.152 301.432C501.978 303.274 503.748 305.499 504.461 308.105C505.174 310.712 504.775 313.498 503.264 316.464L480.603 322.409Z" fill="#2AD78B"/>
<path d="M464.28 315.215C468.56 307.801 466.02 298.321 458.606 294.041C451.193 289.761 441.713 292.301 437.433 299.715C433.153 307.128 435.693 316.608 443.106 320.888C450.52 325.168 459.999 322.628 464.28 315.215Z" fill="#C8D1E0"/>
<path fill-rule="evenodd" clip-rule="evenodd" d="M414 286.301C425.377 266.596 450.725 259.931 470.616 271.415C480.562 277.157 487.261 286.35 490.05 296.571L474.905 300.502C473.154 294.175 468.991 288.486 462.824 284.925C450.445 277.778 434.678 281.912 427.608 294.158C420.537 306.404 424.841 322.125 437.22 329.272C443.389 332.834 450.4 333.594 456.756 331.944L460.924 347.027C450.677 349.723 439.364 348.519 429.416 342.775C409.525 331.291 402.623 306.007 414 286.301Z" fill="#0F1758"/>
</g>
<g clip-path="url(#clip5)">
<path fill-rule="evenodd" clip-rule="evenodd" d="M437.177 389.568L439.963 374.235L473.604 379.986L470.818 395.319L437.177 389.568Z" fill="#2AD78B"/>
<path fill-rule="evenodd" clip-rule="evenodd" d="M452.102 410.974L454.888 395.641L477.879 399.571C479.224 401.881 479.636 404.457 479.115 407.298C478.594 410.14 477.254 412.675 475.093 414.904L452.102 410.974Z" fill="#2AD78B"/>
<path fill-rule="evenodd" clip-rule="evenodd" d="M467.447 413.576L452.085 410.95L458.187 377.372L473.549 379.997L467.447 413.576Z" fill="#2AD78B"/>
<path fill-rule="evenodd" clip-rule="evenodd" d="M452.551 392.213L437.19 389.587L441.379 366.536C444.243 364.753 447.007 364.09 449.67 364.545C452.334 365 454.69 366.539 456.74 369.162L452.551 392.213Z" fill="#2AD78B"/>
<path d="M439.132 403.966C434.222 396.954 424.557 395.249 417.545 400.159C410.533 405.07 408.829 414.734 413.739 421.747C418.649 428.759 428.314 430.463 435.326 425.553C442.338 420.643 444.042 410.978 439.132 403.966Z" fill="#C8D1E0"/>
<path fill-rule="evenodd" clip-rule="evenodd" d="M391.679 437.315C378.628 418.676 383.3 392.886 402.114 379.712C411.522 373.125 422.685 370.939 433.127 372.73L430.289 388.119C423.814 387.031 416.899 388.4 411.065 392.484C399.356 400.683 396.439 416.719 404.55 428.303C412.661 439.886 428.728 442.63 440.437 434.431C446.272 430.345 449.923 424.313 451.115 417.855L466.546 420.451C464.659 430.878 458.786 440.622 449.377 447.211C430.562 460.385 404.73 455.954 391.679 437.315Z" fill="#0F1758"/>
</g>
<g clip-path="url(#clip6)">
<path fill-rule="evenodd" clip-rule="evenodd" d="M370.686 143.603L381.934 154.389L358.571 179.267L347.323 168.481L370.686 143.603Z" fill="#2AD78B"/>
<path fill-rule="evenodd" clip-rule="evenodd" d="M344.598 144.233L355.846 155.02L339.88 172.022C337.211 171.869 334.836 170.791 332.754 168.788C330.672 166.786 329.298 164.268 328.632 161.236L344.598 144.233Z" fill="#2AD78B"/>
<path fill-rule="evenodd" clip-rule="evenodd" d="M333.959 155.593L344.627 144.233L369.26 167.855L358.592 179.215L333.959 155.593Z" fill="#2AD78B"/>
<path fill-rule="evenodd" clip-rule="evenodd" d="M359.996 154.963L370.664 143.603L387.573 159.818C387.479 163.191 386.507 165.862 384.658 167.832C382.808 169.801 380.224 170.917 376.905 171.179L359.996 154.963Z" fill="#2AD78B"/>
<path d="M357.601 137.286C366.159 137.062 372.914 129.943 372.69 121.386C372.466 112.828 365.347 106.073 356.79 106.297C348.232 106.521 341.477 113.64 341.701 122.197C341.925 130.755 349.044 137.51 357.601 137.286Z" fill="#C8D1E0"/>
<path fill-rule="evenodd" clip-rule="evenodd" d="M355.983 79.3088C378.729 78.7132 397.656 96.8435 398.257 119.804C398.558 131.285 394.22 141.8 386.963 149.518L375.697 138.658C380.177 133.86 382.853 127.338 382.667 120.219C382.293 105.93 370.53 94.6461 356.394 95.0162C342.258 95.3864 331.103 107.27 331.477 121.559C331.663 128.68 334.678 135.055 339.406 139.613L328.724 151.047C321.071 143.718 316.186 133.444 315.886 121.961C315.284 99.0004 333.237 79.9045 355.983 79.3088Z" fill="#0F1758"/>
</g>
<g clip-path="url(#clip7)">
<path fill-rule="evenodd" clip-rule="evenodd" d="M469.634 183.924L479.713 172.039L505.972 193.839L495.893 205.725L469.634 183.924Z" fill="#2AD78B"/>
<path fill-rule="evenodd" clip-rule="evenodd" d="M471.856 209.925L481.936 198.04L499.881 212.938C499.891 215.611 498.96 218.048 497.088 220.248C495.217 222.448 492.788 223.974 489.802 224.824L471.856 209.925Z" fill="#2AD78B"/>
<path fill-rule="evenodd" clip-rule="evenodd" d="M483.844 219.851L471.854 209.896L493.928 183.867L505.918 193.821L483.844 219.851Z" fill="#2AD78B"/>
<path fill-rule="evenodd" clip-rule="evenodd" d="M481.626 193.901L469.636 183.947L484.789 166.079C488.16 165.967 490.886 166.774 492.965 168.5C495.044 170.226 496.315 172.737 496.779 176.034L481.626 193.901Z" fill="#2AD78B"/>
<path d="M464.128 197.371C463.382 188.843 455.864 182.534 447.336 183.281C438.809 184.027 432.5 191.545 433.246 200.072C433.992 208.6 441.51 214.909 450.038 214.163C458.566 213.416 464.874 205.898 464.128 197.371Z" fill="#C8D1E0"/>
<path fill-rule="evenodd" clip-rule="evenodd" d="M406.358 202.525C404.375 179.858 421.316 159.859 444.197 157.857C455.638 156.857 466.398 160.545 474.545 167.317L464.393 179.225C459.33 175.046 452.657 172.773 445.562 173.394C431.323 174.64 420.778 187.069 422.011 201.156C423.243 215.243 435.786 225.652 450.025 224.406C457.122 223.786 463.3 220.387 467.561 215.39L479.626 225.354C472.779 233.44 462.821 238.943 451.378 239.944C428.497 241.946 408.341 225.193 406.358 202.525Z" fill="#0F1758"/>
</g>
<g clip-path="url(#clip8)">
<path fill-rule="evenodd" clip-rule="evenodd" d="M47.1159 324.901L43.0038 339.933L9.99217 331.272L14.1042 316.24L47.1159 324.901Z" fill="#2AD78B"/>
<path fill-rule="evenodd" clip-rule="evenodd" d="M34.1134 302.276L30.0013 317.307L7.44062 311.389C6.30225 308.97 6.11628 306.369 6.88271 303.584C7.64913 300.798 9.20579 298.389 11.5527 296.357L34.1134 302.276Z" fill="#2AD78B"/>
<path fill-rule="evenodd" clip-rule="evenodd" d="M19.0541 298.346L34.1279 302.301L25.1225 335.22L10.0487 331.266L19.0541 298.346Z" fill="#2AD78B"/>
<path fill-rule="evenodd" clip-rule="evenodd" d="M32.0308 320.927L47.1046 324.882L40.9228 347.479C37.9144 349.006 35.1033 349.426 32.4895 348.741C29.8758 348.055 27.6623 346.316 25.849 343.525L32.0308 320.927Z" fill="#2AD78B"/>
<path d="M46.423 310.388C50.7033 317.801 60.1829 320.341 67.5964 316.061C75.01 311.781 77.55 302.301 73.2698 294.888C68.9896 287.474 59.51 284.934 52.0964 289.214C44.6829 293.495 42.1428 302.974 46.423 310.388Z" fill="#C8D1E0"/>
<path fill-rule="evenodd" clip-rule="evenodd" d="M96.6025 281.301C107.98 301.007 101.078 326.291 81.1864 337.775C71.2402 343.518 59.9297 344.722 49.6836 342.028L53.8518 326.946C60.2067 328.593 67.2152 327.833 73.3827 324.272C85.7617 317.125 90.0651 301.404 82.9948 289.158C75.9246 276.912 60.1579 272.778 47.779 279.925C41.6098 283.487 37.4463 289.178 35.6966 295.507L20.5509 291.576C23.3395 281.353 30.0386 272.158 39.9864 266.415C59.8776 254.931 85.2255 261.596 96.6025 281.301Z" fill="#0F1758"/>
</g>
<g clip-path="url(#clip9)">
<path fill-rule="evenodd" clip-rule="evenodd" d="M41.4323 204.856L29.4421 214.811L7.36813 188.781L19.3583 178.827L41.4323 204.856Z" fill="#2AD78B"/>
<path fill-rule="evenodd" clip-rule="evenodd" d="M43.7587 178.864L31.7685 188.819L16.6828 171.03C17.1373 168.396 18.4772 166.159 20.7026 164.317C22.9279 162.475 25.5847 161.394 28.673 161.076L43.7587 178.864Z" fill="#2AD78B"/>
<path fill-rule="evenodd" clip-rule="evenodd" d="M33.6767 167.008L43.7562 178.893L17.4976 200.694L7.41821 188.808L33.6767 167.008Z" fill="#2AD78B"/>
<path fill-rule="evenodd" clip-rule="evenodd" d="M31.3549 192.948L41.4343 204.833L23.409 219.799C20.0691 219.324 17.5252 218.056 15.7775 215.995C14.0297 213.934 13.2138 211.24 13.3296 207.913L31.3549 192.948Z" fill="#2AD78B"/>
<path d="M49.1893 192.57C48.4432 201.098 54.7516 208.616 63.2794 209.362C71.8072 210.108 79.3252 203.8 80.0713 195.272C80.8174 186.744 74.5091 179.226 65.9812 178.48C57.4534 177.734 49.9354 184.042 49.1893 192.57Z" fill="#C8D1E0"/>
<path fill-rule="evenodd" clip-rule="evenodd" d="M106.977 197.525C104.994 220.193 84.8378 236.946 61.9569 234.944C50.5157 233.943 40.5597 228.442 33.7122 220.358L45.7775 210.394C50.038 215.389 56.2153 218.786 63.3098 219.406C77.5493 220.652 90.0919 210.243 91.3243 196.156C92.5567 182.069 82.0124 169.64 67.7728 168.394C60.6764 167.773 54.0014 170.047 48.9378 174.228L38.7861 162.32C46.9339 155.546 57.6955 151.856 69.1386 152.857C92.0195 154.859 108.96 174.858 106.977 197.525Z" fill="#0F1758"/>
</g>
<g clip-path="url(#clip10)">
<path fill-rule="evenodd" clip-rule="evenodd" d="M37.1651 428.891L21.8039 431.517L15.7019 397.938L31.063 395.312L37.1651 428.891Z" fill="#2AD78B"/>
<path fill-rule="evenodd" clip-rule="evenodd" d="M52.1756 407.545L36.8145 410.171L32.6442 387.223C34.3547 385.169 36.634 383.901 39.4822 383.418C42.3304 382.936 45.1715 383.329 48.0054 384.597L52.1756 407.545Z" fill="#2AD78B"/>
<path fill-rule="evenodd" clip-rule="evenodd" d="M49.3726 392.236L52.1589 407.569L18.518 413.319L15.7317 397.987L49.3726 392.236Z" fill="#2AD78B"/>
<path fill-rule="evenodd" clip-rule="evenodd" d="M34.3918 413.54L37.1781 428.873L14.0852 432.82C11.4302 430.739 9.86118 428.369 9.37804 425.71C8.8949 423.052 9.53516 420.311 11.2988 417.487L34.3918 413.54Z" fill="#2AD78B"/>
<path d="M50.0258 422.13C45.1158 429.142 46.82 438.807 53.8323 443.717C60.8446 448.627 70.5095 446.923 75.4196 439.911C80.3296 432.898 78.6254 423.233 71.6131 418.323C64.6009 413.413 54.9359 415.117 50.0258 422.13Z" fill="#C8D1E0"/>
<path fill-rule="evenodd" clip-rule="evenodd" d="M97.594 455.315C84.5428 473.954 58.7105 478.385 39.8959 465.211C30.4881 458.623 24.6163 448.881 22.7282 438.456L38.159 435.86C39.3513 442.316 43.0026 448.346 48.8363 452.431C60.5452 460.63 76.6121 457.886 84.7229 446.303C92.8336 434.719 89.9166 418.683 78.2077 410.484C72.3725 406.398 65.4548 405.03 58.979 406.12L56.1412 390.731C66.5845 388.938 77.7492 391.124 87.1586 397.712C105.973 410.886 110.645 436.676 97.594 455.315Z" fill="#0F1758"/>
</g>
</g>
<defs>
<clipPath id="clip0">
<rect width="500" height="500" fill="white"/>
</clipPath>
<clipPath id="clip1">
<rect width="250" height="250" fill="white" transform="translate(114 353.38) rotate(-71)"/>
</clipPath>
<clipPath id="clip2">
<rect width="100" height="100" fill="white" transform="translate(247 424.358) rotate(-35)"/>
</clipPath>
<clipPath id="clip3">
<rect width="100" height="100" fill="white" transform="translate(48.3576 19) rotate(35)"/>
</clipPath>
<clipPath id="clip4">
<rect width="100" height="100" fill="white" transform="translate(389 329.603) rotate(-60)"/>
</clipPath>
<clipPath id="clip5">
<rect width="100" height="100" fill="white" transform="translate(420.358 478.273) rotate(-125)"/>
</clipPath>
<clipPath id="clip6">
<rect width="100" height="100" fill="white" transform="translate(306 80.6177) rotate(-1.5)"/>
</clipPath>
<clipPath id="clip7">
<rect width="100" height="100" fill="white" transform="translate(410.716 252.335) rotate(-95)"/>
</clipPath>
<clipPath id="clip8">
<rect width="100" height="100" fill="white" transform="translate(71.6025 238) rotate(60)"/>
</clipPath>
<clipPath id="clip9">
<rect width="100" height="100" fill="white" transform="translate(111.335 147.716) rotate(95)"/>
</clipPath>
<clipPath id="clip10">
<rect width="100" height="100" fill="white" transform="translate(126.273 414.358) rotate(125)"/>
</clipPath>
</defs>
</svg>
