<svg width="500" height="500" viewBox="0 0 500 500" fill="none" xmlns="http://www.w3.org/2000/svg">
<g clip-path="url(#clip0)">
<g clip-path="url(#clip1)">
<path fill-rule="evenodd" clip-rule="evenodd" d="M210.625 272.95L171.832 269.352L178.824 184.317L217.617 187.915L210.625 272.95Z" fill="#2AD78B"/>
<path fill-rule="evenodd" clip-rule="evenodd" d="M260.685 231.116L221.892 227.517L226.67 169.403C232.129 165.55 238.454 163.963 245.644 164.641C252.834 165.319 259.44 168.105 265.463 173.001L260.685 231.116Z" fill="#2AD78B"/>
<path fill-rule="evenodd" clip-rule="evenodd" d="M263.822 192.333L260.629 231.162L175.672 223.282L178.864 184.453L263.822 192.333Z" fill="#2AD78B"/>
<path fill-rule="evenodd" clip-rule="evenodd" d="M213.861 234.085L210.669 272.914L152.349 267.504C147.285 260.76 145.029 254.022 145.583 247.289C146.137 240.556 149.456 234.352 155.542 228.675L213.861 234.085Z" fill="#2AD78B"/>
<path d="M246.057 264.944C229.662 278.7 227.524 303.142 241.28 319.536C255.037 335.93 279.479 338.069 295.873 324.312C312.267 310.556 314.405 286.114 300.649 269.72C286.893 253.326 262.451 251.187 246.057 264.944Z" fill="#C8D1E0"/>
<path fill-rule="evenodd" clip-rule="evenodd" d="M339.452 375.86C295.876 412.425 230.629 406.408 193.719 362.421C175.264 340.427 167.388 313.103 169.574 286.707L208.516 290.422C207.218 306.783 212.133 323.708 223.578 337.346C246.548 364.721 287.122 368.491 314.202 345.768C341.283 323.044 344.616 282.432 321.646 255.057C310.199 241.415 294.379 233.635 278.036 232.075L281.14 193.079C307.519 195.507 333.066 208.009 351.525 230.007C388.434 273.994 383.029 339.294 339.452 375.86Z" fill="#0F1758"/>
</g>
<g clip-path="url(#clip2)">
<path fill-rule="evenodd" clip-rule="evenodd" d="M269.05 117.58L253.533 116.141L256.33 82.1267L271.847 83.566L269.05 117.58Z" fill="#2AD78B"/>
<path fill-rule="evenodd" clip-rule="evenodd" d="M289.074 100.846L273.557 99.4069L275.468 76.1612C277.652 74.6202 280.182 73.9853 283.058 74.2564C285.934 74.5275 288.576 75.6422 290.985 77.6005L289.074 100.846Z" fill="#2AD78B"/>
<path fill-rule="evenodd" clip-rule="evenodd" d="M290.329 85.3335L289.052 100.865L255.069 97.7128L256.346 82.1813L290.329 85.3335Z" fill="#2AD78B"/>
<path fill-rule="evenodd" clip-rule="evenodd" d="M270.345 102.034L269.068 117.566L245.74 115.402C243.714 112.704 242.812 110.009 243.033 107.316C243.255 104.622 244.583 102.141 247.017 99.8702L270.345 102.034Z" fill="#2AD78B"/>
<path d="M283.223 114.378C276.665 119.88 275.81 129.657 281.312 136.214C286.815 142.772 296.591 143.627 303.149 138.125C309.707 132.622 310.562 122.846 305.06 116.288C299.557 109.73 289.78 108.875 283.223 114.378Z" fill="#C8D1E0"/>
<path fill-rule="evenodd" clip-rule="evenodd" d="M320.581 158.744C303.15 173.37 277.052 170.963 262.288 153.369C254.906 144.571 251.755 133.641 252.63 123.083L268.207 124.569C267.687 131.113 269.653 137.883 274.231 143.339C283.419 154.288 299.649 155.797 310.481 146.707C321.313 137.618 322.646 121.373 313.458 110.423C308.88 104.966 302.552 101.854 296.015 101.23L297.256 85.6318C307.808 86.6029 318.026 91.6036 325.41 100.403C340.174 117.998 338.012 144.118 320.581 158.744Z" fill="#0F1758"/>
</g>
<g clip-path="url(#clip3)">
<path fill-rule="evenodd" clip-rule="evenodd" d="M104.05 148.58L88.5328 147.141L91.3296 113.127L106.847 114.566L104.05 148.58Z" fill="#2AD78B"/>
<path fill-rule="evenodd" clip-rule="evenodd" d="M124.074 131.846L108.557 130.407L110.468 107.161C112.652 105.62 115.182 104.985 118.058 105.256C120.934 105.528 123.576 106.642 125.985 108.601L124.074 131.846Z" fill="#2AD78B"/>
<path fill-rule="evenodd" clip-rule="evenodd" d="M125.329 116.333L124.052 131.865L90.0688 128.713L91.3459 113.181L125.329 116.333Z" fill="#2AD78B"/>
<path fill-rule="evenodd" clip-rule="evenodd" d="M105.345 133.034L104.068 148.566L80.7398 146.402C78.714 143.704 77.8119 141.009 78.0333 138.316C78.2548 135.622 79.5826 133.141 82.0169 130.87L105.345 133.034Z" fill="#2AD78B"/>
<path d="M118.223 145.378C111.665 150.88 110.81 160.657 116.312 167.214C121.815 173.772 131.591 174.627 138.149 169.125C144.707 163.622 145.562 153.846 140.06 147.288C134.557 140.73 124.78 139.875 118.223 145.378Z" fill="#C8D1E0"/>
<path fill-rule="evenodd" clip-rule="evenodd" d="M155.581 189.744C138.15 204.37 112.052 201.963 97.2879 184.369C89.9055 175.571 86.7552 164.641 87.6296 154.083L103.207 155.569C102.687 162.113 104.653 168.883 109.231 174.339C118.419 185.288 134.649 186.797 145.481 177.707C156.313 168.618 157.646 152.373 148.458 141.423C143.879 135.966 137.552 132.854 131.015 132.23L132.256 116.632C142.808 117.603 153.026 122.604 160.41 131.403C175.174 148.998 173.012 175.118 155.581 189.744Z" fill="#0F1758"/>
</g>
<g clip-path="url(#clip4)">
<path fill-rule="evenodd" clip-rule="evenodd" d="M30.0501 56.5802L14.5328 55.1408L17.3296 21.1267L32.8469 22.5661L30.0501 56.5802Z" fill="#2AD78B"/>
<path fill-rule="evenodd" clip-rule="evenodd" d="M50.074 39.8463L34.5567 38.4069L36.4681 15.1611C38.6517 13.6202 41.1816 12.9853 44.0576 13.2564C46.9337 13.5275 49.5762 14.6422 51.9854 16.6005L50.074 39.8463Z" fill="#2AD78B"/>
<path fill-rule="evenodd" clip-rule="evenodd" d="M51.3288 24.3335L50.0518 39.865L16.0688 36.7128L17.3459 21.1813L51.3288 24.3335Z" fill="#2AD78B"/>
<path fill-rule="evenodd" clip-rule="evenodd" d="M31.3446 41.0341L30.0675 56.5656L6.7398 54.4018C4.71404 51.7041 3.81187 49.0087 4.03331 46.3156C4.25475 43.6225 5.5826 41.1407 8.01686 38.8702L31.3446 41.0341Z" fill="#2AD78B"/>
<path d="M44.2227 53.3776C37.6651 58.8801 36.8097 68.6568 42.3122 75.2145C47.8148 81.7721 57.5915 82.6275 64.1491 77.125C70.7068 71.6224 71.5621 61.8457 66.0596 55.2881C60.5571 48.7304 50.7804 47.875 44.2227 53.3776Z" fill="#C8D1E0"/>
<path fill-rule="evenodd" clip-rule="evenodd" d="M81.5811 97.7439C64.1504 112.37 38.0516 109.963 23.2879 92.3686C15.9055 83.5707 12.7552 72.6411 13.6296 62.0829L29.2066 63.5687C28.6874 70.1132 30.6534 76.8831 35.2311 82.3386C44.4191 93.2884 60.6487 94.7966 71.4811 85.7072C82.3134 76.6178 83.6464 60.3728 74.4584 49.4231C69.8795 43.9661 63.5517 40.8541 57.0146 40.2302L58.2562 24.6318C68.8078 25.6029 79.0264 30.6035 86.41 39.4029C101.174 56.9977 99.0117 83.1178 81.5811 97.7439Z" fill="#0F1758"/>
</g>
<g clip-path="url(#clip5)">
<path fill-rule="evenodd" clip-rule="evenodd" d="M52.0501 240.58L36.5328 239.141L39.3296 205.127L54.8469 206.566L52.0501 240.58Z" fill="#2AD78B"/>
<path fill-rule="evenodd" clip-rule="evenodd" d="M72.074 223.846L56.5567 222.407L58.468 199.161C60.6517 197.62 63.1816 196.985 66.0576 197.256C68.9337 197.528 71.5762 198.642 73.9854 200.601L72.074 223.846Z" fill="#2AD78B"/>
<path fill-rule="evenodd" clip-rule="evenodd" d="M73.3288 208.333L72.0518 223.865L38.0688 220.713L39.3459 205.181L73.3288 208.333Z" fill="#2AD78B"/>
<path fill-rule="evenodd" clip-rule="evenodd" d="M53.3446 225.034L52.0675 240.566L28.7398 238.402C26.714 235.704 25.8119 233.009 26.0333 230.316C26.2547 227.622 27.5826 225.141 30.0169 222.87L53.3446 225.034Z" fill="#2AD78B"/>
<path d="M66.2227 237.378C59.6651 242.88 58.8097 252.657 64.3122 259.214C69.8148 265.772 79.5915 266.627 86.1491 261.125C92.7068 255.622 93.5621 245.846 88.0596 239.288C82.5571 232.73 72.7804 231.875 66.2227 237.378Z" fill="#C8D1E0"/>
<path fill-rule="evenodd" clip-rule="evenodd" d="M103.581 281.744C86.1504 296.37 60.0516 293.963 45.2879 276.369C37.9055 267.571 34.7552 256.641 35.6296 246.083L51.2066 247.569C50.6874 254.113 52.6534 260.883 57.2311 266.339C66.4191 277.288 82.6487 278.797 93.4811 269.707C104.313 260.618 105.646 244.373 96.4584 233.423C91.8795 227.966 85.5517 224.854 79.0146 224.23L80.2562 208.632C90.8078 209.603 101.026 214.604 108.41 223.403C123.174 240.998 121.012 267.118 103.581 281.744Z" fill="#0F1758"/>
</g>
<g clip-path="url(#clip6)">
<path fill-rule="evenodd" clip-rule="evenodd" d="M372.05 61.58L356.533 60.1407L359.329 26.1266L374.847 27.566L372.05 61.58Z" fill="#2AD78B"/>
<path fill-rule="evenodd" clip-rule="evenodd" d="M392.074 44.8462L376.557 43.4068L378.468 20.1611C380.652 18.6201 383.181 17.9852 386.058 18.2563C388.934 18.5275 391.576 19.6422 393.985 21.6005L392.074 44.8462Z" fill="#2AD78B"/>
<path fill-rule="evenodd" clip-rule="evenodd" d="M393.329 29.3334L392.052 44.8649L358.069 41.7127L359.346 26.1812L393.329 29.3334Z" fill="#2AD78B"/>
<path fill-rule="evenodd" clip-rule="evenodd" d="M373.344 46.034L372.067 61.5655L348.74 59.4017C346.714 56.704 345.812 54.0087 346.033 51.3155C346.255 48.6224 347.582 46.1406 350.017 43.8701L373.344 46.034Z" fill="#2AD78B"/>
<path d="M386.223 58.3775C379.665 63.88 378.81 73.6567 384.312 80.2143C389.815 86.772 399.591 87.6274 406.149 82.1248C412.707 76.6223 413.562 66.8456 408.06 60.2879C402.557 53.7303 392.78 52.8749 386.223 58.3775Z" fill="#C8D1E0"/>
<path fill-rule="evenodd" clip-rule="evenodd" d="M423.581 102.744C406.15 117.37 380.052 114.963 365.288 97.3685C357.905 88.5706 354.755 77.641 355.63 67.0828L371.207 68.5686C370.687 75.1131 372.653 81.883 377.231 87.3385C386.419 98.2883 402.649 99.7965 413.481 90.7071C424.313 81.6177 425.646 65.3727 416.458 54.4229C411.879 48.966 405.552 45.854 399.014 45.2301L400.256 29.6317C410.808 30.6028 421.026 35.6034 428.41 44.4028C443.174 61.9976 441.012 88.1177 423.581 102.744Z" fill="#0F1758"/>
</g>
<g clip-path="url(#clip7)">
<path fill-rule="evenodd" clip-rule="evenodd" d="M158.05 432.58L142.533 431.141L145.329 397.127L160.847 398.566L158.05 432.58Z" fill="#2AD78B"/>
<path fill-rule="evenodd" clip-rule="evenodd" d="M178.074 415.846L162.557 414.407L164.468 391.161C166.652 389.62 169.181 388.985 172.058 389.256C174.934 389.528 177.576 390.642 179.985 392.601L178.074 415.846Z" fill="#2AD78B"/>
<path fill-rule="evenodd" clip-rule="evenodd" d="M179.329 400.333L178.052 415.865L144.069 412.713L145.346 397.181L179.329 400.333Z" fill="#2AD78B"/>
<path fill-rule="evenodd" clip-rule="evenodd" d="M159.344 417.034L158.067 432.566L134.74 430.402C132.714 427.704 131.812 425.009 132.033 422.316C132.255 419.622 133.582 417.141 136.017 414.87L159.344 417.034Z" fill="#2AD78B"/>
<path d="M172.223 429.378C165.665 434.88 164.81 444.657 170.312 451.214C175.815 457.772 185.591 458.627 192.149 453.125C198.707 447.622 199.562 437.846 194.059 431.288C188.557 424.73 178.78 423.875 172.223 429.378Z" fill="#C8D1E0"/>
<path fill-rule="evenodd" clip-rule="evenodd" d="M209.581 473.744C192.15 488.37 166.052 485.963 151.288 468.369C143.905 459.571 140.755 448.641 141.63 438.083L157.206 439.569C156.687 446.113 158.653 452.883 163.231 458.339C172.419 469.288 188.649 470.797 199.481 461.707C210.313 452.618 211.646 436.373 202.458 425.423C197.879 419.966 191.552 416.854 185.014 416.23L186.256 400.632C196.808 401.603 207.026 406.603 214.41 415.403C229.174 432.998 227.012 459.118 209.581 473.744Z" fill="#0F1758"/>
</g>
<g clip-path="url(#clip8)">
<path fill-rule="evenodd" clip-rule="evenodd" d="M55.0501 353.58L39.5328 352.141L42.3296 318.127L57.8469 319.566L55.0501 353.58Z" fill="#2AD78B"/>
<path fill-rule="evenodd" clip-rule="evenodd" d="M75.074 336.846L59.5567 335.407L61.4681 312.161C63.6517 310.62 66.1816 309.985 69.0576 310.256C71.9337 310.528 74.5762 311.642 76.9854 313.601L75.074 336.846Z" fill="#2AD78B"/>
<path fill-rule="evenodd" clip-rule="evenodd" d="M76.3288 321.333L75.0518 336.865L41.0688 333.713L42.3459 318.181L76.3288 321.333Z" fill="#2AD78B"/>
<path fill-rule="evenodd" clip-rule="evenodd" d="M56.3446 338.034L55.0675 353.566L31.7398 351.402C29.714 348.704 28.8119 346.009 29.0333 343.316C29.2547 340.622 30.5826 338.141 33.0169 335.87L56.3446 338.034Z" fill="#2AD78B"/>
<path d="M69.2227 350.378C62.6651 355.88 61.8097 365.657 67.3122 372.214C72.8148 378.772 82.5915 379.627 89.1491 374.125C95.7068 368.622 96.5621 358.846 91.0596 352.288C85.5571 345.73 75.7804 344.875 69.2227 350.378Z" fill="#C8D1E0"/>
<path fill-rule="evenodd" clip-rule="evenodd" d="M106.581 394.744C89.1504 409.37 63.0516 406.963 48.2879 389.369C40.9055 380.571 37.7552 369.641 38.6296 359.083L54.2066 360.569C53.6874 367.113 55.6534 373.883 60.2311 379.339C69.4191 390.288 85.6487 391.797 96.4811 382.707C107.313 373.618 108.646 357.373 99.4584 346.423C94.8795 340.966 88.5517 337.854 82.0146 337.23L83.2562 321.632C93.8078 322.603 104.026 327.604 111.41 336.403C126.174 353.998 124.012 380.118 106.581 394.744Z" fill="#0F1758"/>
</g>
<g clip-path="url(#clip9)">
<path fill-rule="evenodd" clip-rule="evenodd" d="M151.05 61.5802L135.533 60.1408L138.33 26.1267L153.847 27.5661L151.05 61.5802Z" fill="#2AD78B"/>
<path fill-rule="evenodd" clip-rule="evenodd" d="M171.074 44.8463L155.557 43.4069L157.468 20.1611C159.652 18.6202 162.182 17.9853 165.058 18.2564C167.934 18.5275 170.576 19.6422 172.985 21.6005L171.074 44.8463Z" fill="#2AD78B"/>
<path fill-rule="evenodd" clip-rule="evenodd" d="M172.329 29.3335L171.052 44.865L137.069 41.7128L138.346 26.1813L172.329 29.3335Z" fill="#2AD78B"/>
<path fill-rule="evenodd" clip-rule="evenodd" d="M152.345 46.0341L151.068 61.5656L127.74 59.4018C125.714 56.7041 124.812 54.0087 125.033 51.3156C125.255 48.6225 126.583 46.1407 129.017 43.8702L152.345 46.0341Z" fill="#2AD78B"/>
<path d="M165.223 58.3776C158.665 63.8801 157.81 73.6568 163.312 80.2145C168.815 86.7721 178.591 87.6275 185.149 82.125C191.707 76.6224 192.562 66.8457 187.06 60.2881C181.557 53.7304 171.78 52.875 165.223 58.3776Z" fill="#C8D1E0"/>
<path fill-rule="evenodd" clip-rule="evenodd" d="M202.581 102.744C185.15 117.37 159.052 114.963 144.288 97.3686C136.906 88.5707 133.755 77.6411 134.63 67.0829L150.207 68.5687C149.687 75.1132 151.653 81.8831 156.231 87.3386C165.419 98.2884 181.649 99.7966 192.481 90.7072C203.313 81.6178 204.646 65.3728 195.458 54.4231C190.879 48.9661 184.552 45.8541 178.015 45.2302L179.256 29.6318C189.808 30.6029 200.026 35.6035 207.41 44.4029C222.174 61.9977 220.012 88.1178 202.581 102.744Z" fill="#0F1758"/>
</g>
<g clip-path="url(#clip10)">
<path fill-rule="evenodd" clip-rule="evenodd" d="M378.05 181.58L362.533 180.141L365.329 146.127L380.847 147.566L378.05 181.58Z" fill="#2AD78B"/>
<path fill-rule="evenodd" clip-rule="evenodd" d="M398.074 164.846L382.557 163.407L384.468 140.161C386.652 138.62 389.181 137.985 392.058 138.256C394.934 138.527 397.576 139.642 399.985 141.6L398.074 164.846Z" fill="#2AD78B"/>
<path fill-rule="evenodd" clip-rule="evenodd" d="M399.329 149.333L398.052 164.865L364.069 161.713L365.346 146.181L399.329 149.333Z" fill="#2AD78B"/>
<path fill-rule="evenodd" clip-rule="evenodd" d="M379.344 166.034L378.067 181.566L354.74 179.402C352.714 176.704 351.812 174.009 352.033 171.316C352.255 168.622 353.582 166.141 356.017 163.87L379.344 166.034Z" fill="#2AD78B"/>
<path d="M392.223 178.378C385.665 183.88 384.81 193.657 390.312 200.214C395.815 206.772 405.591 207.627 412.149 202.125C418.707 196.622 419.562 186.846 414.059 180.288C408.557 173.73 398.78 172.875 392.223 178.378Z" fill="#C8D1E0"/>
<path fill-rule="evenodd" clip-rule="evenodd" d="M429.581 222.744C412.15 237.37 386.052 234.963 371.288 217.369C363.905 208.571 360.755 197.641 361.63 187.083L377.206 188.569C376.687 195.113 378.653 201.883 383.231 207.339C392.419 218.288 408.649 219.797 419.481 210.707C430.313 201.618 431.646 185.373 422.458 174.423C417.879 168.966 411.552 165.854 405.014 165.23L406.256 149.632C416.808 150.603 427.026 155.603 434.41 164.403C449.174 181.998 447.012 208.118 429.581 222.744Z" fill="#0F1758"/>
</g>
</g>
<defs>
<clipPath id="clip0">
<rect width="500" height="500" fill="white"/>
</clipPath>
<clipPath id="clip1">
<rect width="250" height="250" fill="white" transform="translate(435.208 295.511) rotate(140)"/>
</clipPath>
<clipPath id="clip2">
<rect width="100" height="100" fill="white" transform="translate(358.883 126.604) rotate(140)"/>
</clipPath>
<clipPath id="clip3">
<rect width="100" height="100" fill="white" transform="translate(193.883 157.604) rotate(140)"/>
</clipPath>
<clipPath id="clip4">
<rect width="100" height="100" fill="white" transform="translate(119.883 65.6045) rotate(140)"/>
</clipPath>
<clipPath id="clip5">
<rect width="100" height="100" fill="white" transform="translate(141.883 249.604) rotate(140)"/>
</clipPath>
<clipPath id="clip6">
<rect width="100" height="100" fill="white" transform="translate(461.883 70.6044) rotate(140)"/>
</clipPath>
<clipPath id="clip7">
<rect width="100" height="100" fill="white" transform="translate(247.883 441.604) rotate(140)"/>
</clipPath>
<clipPath id="clip8">
<rect width="100" height="100" fill="white" transform="translate(144.883 362.604) rotate(140)"/>
</clipPath>
<clipPath id="clip9">
<rect width="100" height="100" fill="white" transform="translate(240.883 70.6045) rotate(140)"/>
</clipPath>
<clipPath id="clip10">
<rect width="100" height="100" fill="white" transform="translate(467.883 190.604) rotate(140)"/>
</clipPath>
</defs>
</svg>
