<svg width="500" height="500" viewBox="0 0 500 500" fill="none" xmlns="http://www.w3.org/2000/svg">
<g clip-path="url(#clip0)">
<path fill-rule="evenodd" clip-rule="evenodd" d="M260.576 312.353L258.673 351.266L173.414 347.99L175.317 309.077L260.576 312.353Z" fill="#2AD78B"/>
<path fill-rule="evenodd" clip-rule="evenodd" d="M216.598 264.166L214.695 303.079L156.427 300.84C152.34 295.554 150.479 289.305 150.842 282.092C151.206 274.879 153.702 268.158 158.33 261.927L216.598 264.166Z" fill="#2AD78B"/>
<path fill-rule="evenodd" clip-rule="evenodd" d="M177.716 262.724L216.647 264.219L212.48 349.44L173.549 347.944L177.716 262.724Z" fill="#2AD78B"/>
<path fill-rule="evenodd" clip-rule="evenodd" d="M221.607 310.816L260.538 312.311L257.677 370.811C251.161 376.165 244.527 378.712 237.776 378.453C231.026 378.193 224.683 375.148 218.746 369.315L221.607 310.816Z" fill="#2AD78B"/>
<path d="M251.032 277.305C265.49 293.083 290.002 294.153 305.78 279.695C321.559 265.237 322.629 240.725 308.171 224.946C293.712 209.168 269.201 208.098 253.422 222.556C237.644 237.014 236.573 261.526 251.032 277.305Z" fill="#C8D1E0"/>
<path fill-rule="evenodd" clip-rule="evenodd" d="M357.768 179.16C396.199 221.1 393.035 286.547 350.7 325.34C329.531 344.738 302.576 353.798 276.11 352.765L278.123 313.698C294.525 314.281 311.22 308.632 324.346 296.604C350.693 272.462 352.69 231.762 328.806 205.698C304.923 179.634 264.204 178.077 237.858 202.219C224.728 214.25 217.645 230.394 216.8 246.789L177.706 245.389C178.98 218.929 190.356 192.862 211.528 173.461C253.863 134.668 319.337 137.219 357.768 179.16Z" fill="#0F1758"/>
</g>
<path fill-rule="evenodd" clip-rule="evenodd" d="M389.657 56.9847L400.734 46.023L424.992 70.0292L413.915 80.991L389.657 56.9847Z" fill="#2AD78B"/>
<path fill-rule="evenodd" clip-rule="evenodd" d="M389.604 83.0802L400.681 72.1184L417.26 88.5247C417.037 91.188 415.897 93.5341 413.841 95.563C411.784 97.5919 409.232 98.8997 406.183 99.4865L389.604 83.0802Z" fill="#2AD78B"/>
<path fill-rule="evenodd" clip-rule="evenodd" d="M400.681 94.0129L389.604 83.0511L413.863 59.0448L424.94 70.0066L400.681 94.0129Z" fill="#2AD78B"/>
<path fill-rule="evenodd" clip-rule="evenodd" d="M400.734 67.9691L389.657 57.0073L406.309 40.5281C409.678 40.7103 412.322 41.7517 414.243 43.6525C416.164 45.5532 417.211 48.1657 417.386 51.4899L400.734 67.9691Z" fill="#2AD78B"/>
<path d="M383 69.9001C383 61.3397 376.06 54.4001 367.5 54.4001C358.94 54.4001 352 61.3397 352 69.9001C352 78.4605 358.94 85.4001 367.5 85.4001C376.06 85.4001 383 78.4605 383 69.9001Z" fill="#C8D1E0"/>
<path fill-rule="evenodd" clip-rule="evenodd" d="M325 70.0001C325 47.2459 343.62 28.8001 366.588 28.8001C378.073 28.8001 388.47 33.4121 395.996 40.8687L384.845 51.8463C380.166 47.2418 373.716 44.3963 366.594 44.3963C352.3 44.3963 340.713 55.8595 340.713 70.0001C340.713 84.1406 352.3 95.6039 366.594 95.6039C373.718 95.6039 380.169 92.7568 384.849 88.1502L396 99.1277C388.474 106.586 378.075 111.2 366.588 111.2C343.62 111.2 325 92.7542 325 70.0001Z" fill="#0F1758"/>
<g clip-path="url(#clip1)">
<path fill-rule="evenodd" clip-rule="evenodd" d="M412.343 83.0154L401.266 93.9772L377.008 69.9709L388.085 59.0091L412.343 83.0154Z" fill="#2AD78B"/>
<path fill-rule="evenodd" clip-rule="evenodd" d="M412.396 56.9199L401.319 67.8817L384.74 51.4754C384.963 48.8121 386.103 46.466 388.159 44.4371C390.216 42.4082 392.768 41.1004 395.817 40.5137L412.396 56.9199Z" fill="#2AD78B"/>
<path fill-rule="evenodd" clip-rule="evenodd" d="M401.319 45.9872L412.396 56.949L388.137 80.9553L377.06 69.9935L401.319 45.9872Z" fill="#2AD78B"/>
<path fill-rule="evenodd" clip-rule="evenodd" d="M401.266 72.0311L412.343 82.9928L395.691 99.472C392.322 99.2898 389.678 98.2484 387.757 96.3476C385.836 94.4469 384.789 91.8344 384.614 88.5103L401.266 72.0311Z" fill="#2AD78B"/>
<path d="M419 70.1C419 78.6605 425.94 85.6 434.5 85.6C443.06 85.6 450 78.6605 450 70.1C450 61.5396 443.06 54.6 434.5 54.6C425.94 54.6 419 61.5396 419 70.1Z" fill="#C8D1E0"/>
<path fill-rule="evenodd" clip-rule="evenodd" d="M477 70C477 92.7542 458.381 111.2 435.412 111.2C423.927 111.2 413.53 106.588 406.004 99.1314L417.155 88.1538C421.834 92.7583 428.284 95.6038 435.406 95.6038C449.7 95.6038 461.287 84.1406 461.287 70C461.287 55.8595 449.7 44.3963 435.406 44.3963C428.282 44.3963 421.831 47.2433 417.151 51.8499L406 40.8724C413.526 33.4136 423.925 28.8 435.412 28.8C458.381 28.8 477 47.2459 477 70Z" fill="#0F1758"/>
</g>
<path fill-rule="evenodd" clip-rule="evenodd" d="M79.6567 56.9847L90.7337 46.023L114.992 70.0292L103.915 80.991L79.6567 56.9847Z" fill="#2AD78B"/>
<path fill-rule="evenodd" clip-rule="evenodd" d="M79.6045 83.0802L90.6815 72.1184L107.26 88.5247C107.037 91.188 105.897 93.5341 103.841 95.563C101.784 97.5919 99.2319 98.8997 96.1832 99.4865L79.6045 83.0802Z" fill="#2AD78B"/>
<path fill-rule="evenodd" clip-rule="evenodd" d="M90.6815 94.0129L79.6045 83.0511L103.863 59.0448L114.94 70.0066L90.6815 94.0129Z" fill="#2AD78B"/>
<path fill-rule="evenodd" clip-rule="evenodd" d="M90.7336 67.9691L79.6567 57.0073L96.3091 40.5281C99.6777 40.7103 102.322 41.7517 104.243 43.6525C106.164 45.5532 107.211 48.1657 107.386 51.4899L90.7336 67.9691Z" fill="#2AD78B"/>
<path d="M73 69.9001C73 61.3397 66.0604 54.4001 57.5 54.4001C48.9396 54.4001 42 61.3397 42 69.9001C42 78.4605 48.9396 85.4001 57.5 85.4001C66.0604 85.4001 73 78.4605 73 69.9001Z" fill="#C8D1E0"/>
<path fill-rule="evenodd" clip-rule="evenodd" d="M15 70.0001C15 47.2459 33.6195 28.8001 56.5878 28.8001C68.0727 28.8001 78.4703 33.4121 85.9963 40.8687L74.8454 51.8463C70.1657 47.2418 63.7159 44.3963 56.5943 44.3963C42.3003 44.3963 30.7128 55.8595 30.7128 70.0001C30.7128 84.1406 42.3003 95.6039 56.5943 95.6039C63.7178 95.6039 70.1692 92.7568 74.8491 88.1502L86 99.1277C78.4737 106.586 68.0746 111.2 56.5878 111.2C33.6195 111.2 15 92.7542 15 70.0001Z" fill="#0F1758"/>
<g clip-path="url(#clip2)">
<path fill-rule="evenodd" clip-rule="evenodd" d="M102.343 83.0154L91.2663 93.9772L67.0077 69.9709L78.0847 59.0091L102.343 83.0154Z" fill="#2AD78B"/>
<path fill-rule="evenodd" clip-rule="evenodd" d="M102.396 56.9199L91.3185 67.8817L74.7398 51.4754C74.963 48.8121 76.1028 46.466 78.1592 44.4371C80.2156 42.4082 82.7681 41.1004 85.8168 40.5137L102.396 56.9199Z" fill="#2AD78B"/>
<path fill-rule="evenodd" clip-rule="evenodd" d="M91.3185 45.9872L102.396 56.949L78.137 80.9553L67.06 69.9935L91.3185 45.9872Z" fill="#2AD78B"/>
<path fill-rule="evenodd" clip-rule="evenodd" d="M91.2664 72.0311L102.343 82.9928L85.6909 99.472C82.3223 99.2898 79.6776 98.2484 77.7569 96.3476C75.8362 94.4469 74.7885 91.8344 74.614 88.5103L91.2664 72.0311Z" fill="#2AD78B"/>
<path d="M109 70.1C109 78.6605 115.94 85.6 124.5 85.6C133.06 85.6 140 78.6605 140 70.1C140 61.5396 133.06 54.6 124.5 54.6C115.94 54.6 109 61.5396 109 70.1Z" fill="#C8D1E0"/>
<path fill-rule="evenodd" clip-rule="evenodd" d="M167 70C167 92.7542 148.381 111.2 125.412 111.2C113.927 111.2 103.53 106.588 96.0037 99.1314L107.155 88.1538C111.834 92.7583 118.284 95.6038 125.406 95.6038C139.7 95.6038 151.287 84.1406 151.287 70C151.287 55.8595 139.7 44.3963 125.406 44.3963C118.282 44.3963 111.831 47.2433 107.151 51.8499L96 40.8724C103.526 33.4136 113.925 28.8 125.412 28.8C148.381 28.8 167 47.2459 167 70Z" fill="#0F1758"/>
</g>
<path fill-rule="evenodd" clip-rule="evenodd" d="M422.985 398.343L412.023 387.266L436.029 363.008L446.991 374.085L422.985 398.343Z" fill="#2AD78B"/>
<path fill-rule="evenodd" clip-rule="evenodd" d="M449.08 398.396L438.118 387.319L454.525 370.74C457.188 370.963 459.534 372.103 461.563 374.159C463.592 376.216 464.9 378.768 465.486 381.817L449.08 398.396Z" fill="#2AD78B"/>
<path fill-rule="evenodd" clip-rule="evenodd" d="M460.013 387.319L449.051 398.396L425.045 374.137L436.006 363.06L460.013 387.319Z" fill="#2AD78B"/>
<path fill-rule="evenodd" clip-rule="evenodd" d="M433.969 387.266L423.007 398.343L406.528 381.691C406.71 378.322 407.752 375.678 409.652 373.757C411.553 371.836 414.166 370.789 417.49 370.614L433.969 387.266Z" fill="#2AD78B"/>
<path d="M435.9 405C427.339 405 420.4 411.94 420.4 420.5C420.4 429.06 427.339 436 435.9 436C444.46 436 451.4 429.06 451.4 420.5C451.4 411.94 444.46 405 435.9 405Z" fill="#C8D1E0"/>
<path fill-rule="evenodd" clip-rule="evenodd" d="M436 463C413.246 463 394.8 444.38 394.8 421.412C394.8 409.927 399.412 399.53 406.869 392.004L417.846 403.155C413.242 407.834 410.396 414.284 410.396 421.406C410.396 435.7 421.859 447.287 436 447.287C450.141 447.287 461.604 435.7 461.604 421.406C461.604 414.282 458.757 407.831 454.15 403.151L465.128 392C472.586 399.526 477.2 409.925 477.2 421.412C477.2 444.38 458.754 463 436 463Z" fill="#0F1758"/>
<g clip-path="url(#clip3)">
<path fill-rule="evenodd" clip-rule="evenodd" d="M449.015 375.657L459.977 386.734L435.971 410.992L425.009 399.915L449.015 375.657Z" fill="#2AD78B"/>
<path fill-rule="evenodd" clip-rule="evenodd" d="M422.92 375.604L433.882 386.681L417.475 403.26C414.812 403.037 412.466 401.897 410.437 399.841C408.408 397.784 407.1 395.232 406.514 392.183L422.92 375.604Z" fill="#2AD78B"/>
<path fill-rule="evenodd" clip-rule="evenodd" d="M411.987 386.681L422.949 375.604L446.955 399.863L435.994 410.94L411.987 386.681Z" fill="#2AD78B"/>
<path fill-rule="evenodd" clip-rule="evenodd" d="M438.031 386.734L448.993 375.657L465.472 392.309C465.29 395.678 464.248 398.322 462.348 400.243C460.447 402.164 457.834 403.211 454.51 403.386L438.031 386.734Z" fill="#2AD78B"/>
<path d="M436.1 369C444.661 369 451.6 362.06 451.6 353.5C451.6 344.94 444.661 338 436.1 338C427.54 338 420.6 344.94 420.6 353.5C420.6 362.06 427.54 369 436.1 369Z" fill="#C8D1E0"/>
<path fill-rule="evenodd" clip-rule="evenodd" d="M436 311C458.754 311 477.2 329.619 477.2 352.588C477.2 364.073 472.588 374.47 465.131 381.996L454.154 370.845C458.758 366.166 461.604 359.716 461.604 352.594C461.604 338.3 450.141 326.713 436 326.713C421.859 326.713 410.396 338.3 410.396 352.594C410.396 359.718 413.243 366.169 417.85 370.849L406.872 382C399.414 374.474 394.8 364.075 394.8 352.588C394.8 329.619 413.246 311 436 311Z" fill="#0F1758"/>
</g>
<path fill-rule="evenodd" clip-rule="evenodd" d="M51.9847 236.343L41.0229 225.266L65.0292 201.008L75.9909 212.085L51.9847 236.343Z" fill="#2AD78B"/>
<path fill-rule="evenodd" clip-rule="evenodd" d="M78.0801 236.396L67.1183 225.319L83.5246 208.74C86.1879 208.963 88.534 210.103 90.5629 212.159C92.5918 214.216 93.8996 216.768 94.4863 219.817L78.0801 236.396Z" fill="#2AD78B"/>
<path fill-rule="evenodd" clip-rule="evenodd" d="M89.0127 225.319L78.0509 236.396L54.0447 212.137L65.0064 201.06L89.0127 225.319Z" fill="#2AD78B"/>
<path fill-rule="evenodd" clip-rule="evenodd" d="M62.969 225.266L52.0072 236.343L35.528 219.691C35.7102 216.322 36.7517 213.678 38.6524 211.757C40.5532 209.836 43.1656 208.789 46.4898 208.614L62.969 225.266Z" fill="#2AD78B"/>
<path d="M64.8999 243C56.3395 243 49.3999 249.94 49.3999 258.5C49.3999 267.06 56.3395 274 64.8999 274C73.4603 274 80.3999 267.06 80.3999 258.5C80.3999 249.94 73.4603 243 64.8999 243Z" fill="#C8D1E0"/>
<path fill-rule="evenodd" clip-rule="evenodd" d="M64.9999 301C42.2458 301 23.7999 282.38 23.7999 259.412C23.7999 247.927 28.412 237.53 35.8686 230.004L46.8462 241.155C42.2417 245.834 39.3961 252.284 39.3961 259.406C39.3961 273.7 50.8594 285.287 64.9999 285.287C79.1405 285.287 90.6037 273.7 90.6037 259.406C90.6037 252.282 87.7567 245.831 83.15 241.151L94.1276 230C101.586 237.526 106.2 247.925 106.2 259.412C106.2 282.38 87.7541 301 64.9999 301Z" fill="#0F1758"/>
<g clip-path="url(#clip4)">
<path fill-rule="evenodd" clip-rule="evenodd" d="M78.0153 213.657L88.9771 224.734L64.9708 248.992L54.0091 237.915L78.0153 213.657Z" fill="#2AD78B"/>
<path fill-rule="evenodd" clip-rule="evenodd" d="M51.9199 213.604L62.8817 224.681L46.4754 241.26C43.8121 241.037 41.466 239.897 39.4371 237.841C37.4082 235.784 36.1004 233.232 35.5137 230.183L51.9199 213.604Z" fill="#2AD78B"/>
<path fill-rule="evenodd" clip-rule="evenodd" d="M40.9873 224.681L51.9491 213.604L75.9553 237.863L64.9936 248.94L40.9873 224.681Z" fill="#2AD78B"/>
<path fill-rule="evenodd" clip-rule="evenodd" d="M67.031 224.734L77.9928 213.657L94.472 230.309C94.2898 233.678 93.2483 236.322 91.3476 238.243C89.4468 240.164 86.8344 241.211 83.5102 241.386L67.031 224.734Z" fill="#2AD78B"/>
<path d="M65.1001 207C73.6605 207 80.6001 200.06 80.6001 191.5C80.6001 182.94 73.6605 176 65.1001 176C56.5397 176 49.6001 182.94 49.6001 191.5C49.6001 200.06 56.5397 207 65.1001 207Z" fill="#C8D1E0"/>
<path fill-rule="evenodd" clip-rule="evenodd" d="M65 149C87.7542 149 106.2 167.619 106.2 190.588C106.2 202.073 101.588 212.47 94.1314 219.996L83.1538 208.845C87.7583 204.166 90.6038 197.716 90.6038 190.594C90.6038 176.3 79.1406 164.713 65 164.713C50.8595 164.713 39.3963 176.3 39.3963 190.594C39.3963 197.718 42.2433 204.169 46.8499 208.849L35.8724 220C28.4136 212.474 23.8 202.075 23.8 190.588C23.8 167.619 42.2459 149 65 149Z" fill="#0F1758"/>
</g>
<g clip-path="url(#clip5)">
<path fill-rule="evenodd" clip-rule="evenodd" d="M177.567 327.605L178.735 312.065L212.793 314.267L211.624 329.807L177.567 327.605Z" fill="#2AD78B"/>
<path fill-rule="evenodd" clip-rule="evenodd" d="M194.647 347.333L195.816 331.793L219.091 333.299C220.67 335.455 221.349 337.974 221.128 340.854C220.907 343.734 219.839 346.396 217.923 348.839L194.647 347.333Z" fill="#2AD78B"/>
<path fill-rule="evenodd" clip-rule="evenodd" d="M210.179 348.317L194.628 347.312L197.187 313.279L212.738 314.285L210.179 348.317Z" fill="#2AD78B"/>
<path fill-rule="evenodd" clip-rule="evenodd" d="M193.133 328.628L177.581 327.622L179.337 304.26C181.999 302.187 184.679 301.238 187.375 301.413C190.072 301.587 192.576 302.871 194.889 305.266L193.133 328.628Z" fill="#2AD78B"/>
<path d="M181.016 341.719C175.4 335.259 165.61 334.574 159.149 340.19C152.688 345.806 152.004 355.596 157.62 362.057C163.236 368.518 173.026 369.202 179.487 363.586C185.947 357.97 186.632 348.18 181.016 341.719Z" fill="#C8D1E0"/>
<path fill-rule="evenodd" clip-rule="evenodd" d="M137.308 379.846C122.38 362.673 124.331 336.537 141.665 321.468C150.333 313.933 161.206 310.593 171.778 311.283L170.564 326.883C164.012 326.478 157.277 328.562 151.902 333.234C141.114 342.612 139.89 358.866 149.167 369.538C158.444 380.21 174.71 381.259 185.497 371.881C190.874 367.208 193.875 360.827 194.384 354.28L210.002 355.249C209.215 365.816 204.394 376.12 195.725 383.656C178.39 398.725 152.236 397.019 137.308 379.846Z" fill="#0F1758"/>
</g>
<defs>
<clipPath id="clip0">
<rect width="250" height="250" fill="white" transform="translate(273.319 87) rotate(47.5)"/>
</clipPath>
<clipPath id="clip1">
<rect width="100" height="100" fill="white" transform="translate(477 20.0001) rotate(90)"/>
</clipPath>
<clipPath id="clip2">
<rect width="100" height="100" fill="white" transform="translate(167 20.0001) rotate(90)"/>
</clipPath>
<clipPath id="clip3">
<rect width="100" height="100" fill="white" transform="translate(386 311)"/>
</clipPath>
<clipPath id="clip4">
<rect width="100" height="100" fill="white" transform="translate(15 149)"/>
</clipPath>
<clipPath id="clip5">
<rect width="100" height="100" fill="white" transform="translate(170.111 417.582) rotate(-131)"/>
</clipPath>
</defs>
</svg>
