<?xml version="1.0" standalone="no"?>
<!DOCTYPE svg PUBLIC "-//W3C//DTD SVG 20010904//EN"
 "http://www.w3.org/TR/2001/REC-SVG-20010904/DTD/svg10.dtd">
<svg version="1.0" xmlns="http://www.w3.org/2000/svg"
 width="350.000000pt" height="350.000000pt" viewBox="0 0 350.000000 350.000000"
 preserveAspectRatio="xMidYMid meet">
<metadata>
Created by potrace 1.11, written by Peter Selinger 2001-2013
</metadata>
<g transform="translate(0.000000,350.000000) scale(0.100000,-0.100000)"
fill="#000000" stroke="none">
<path d="M1609 3495 c-2 -1 -31 -6 -64 -10 -142 -16 -321 -73 -465 -147 -52
-27 -102 -56 -111 -64 -8 -8 -19 -14 -22 -14 -18 0 -144 -105 -237 -199 -223
-224 -362 -506 -407 -824 -15 -103 -8 -366 12 -463 53 -261 179 -517 342 -694
l60 -64 169 170 c93 94 180 183 193 198 l25 26 -36 38 c-144 152 -228 384
-223 615 5 200 56 354 171 512 56 77 76 99 149 161 80 68 168 119 265 155 119
43 162 51 296 54 248 7 475 -81 644 -248 193 -189 285 -416 276 -677 -4 -121
-7 -142 -32 -230 -33 -114 -118 -268 -193 -347 -11 -12 -22 -26 -23 -31 -3 -9
290 -313 360 -376 23 -20 17 -24 95 63 133 151 280 442 313 621 4 25 8 47 9
50 2 8 15 92 21 130 10 76 3 285 -12 370 -3 19 -8 46 -11 60 -19 106 -69 252
-126 365 -160 320 -437 571 -782 710 -58 23 -210 65 -259 71 -22 3 -48 8 -56
11 -16 6 -336 14 -341 8z"/>
<path d="M1612 2539 c-84 -21 -119 -38 -190 -91 -79 -59 -117 -104 -162 -193
-126 -250 -45 -543 194 -697 80 -52 172 -79 274 -83 237 -7 439 124 528 342
79 196 31 424 -121 577 -137 137 -336 193 -523 145z"/>
<path d="M995 955 c-154 -156 -282 -291 -283 -300 -6 -25 36 -134 71 -185 69
-101 178 -177 270 -187 42 -5 43 -5 136 90 l93 96 226 -230 c124 -126 231
-229 237 -229 6 0 112 101 234 225 194 195 226 224 240 213 9 -7 53 -50 99
-95 46 -46 90 -83 97 -83 36 0 125 25 173 48 98 47 172 155 192 278 5 32 9 59
7 60 -1 2 -132 134 -292 294 l-289 291 -231 -230 -230 -230 -229 229 c-126
127 -232 230 -235 229 -3 0 -132 -128 -286 -284z"/>
</g>
</svg>
