<?xml version="1.0" encoding="UTF-8"?>
<svg width="77px" height="92px" viewBox="0 0 77 92" version="1.1" xmlns="http://www.w3.org/2000/svg" xmlns:xlink="http://www.w3.org/1999/xlink">
    <!-- Generator: Sketch 60.1 (88133) - https://sketch.com -->
    <title>Group 3</title>
    <desc>Created with Sketch.</desc>
    <g id="logo" stroke="none" stroke-width="1" fill="none" fill-rule="evenodd">
        <g id="Artboard" transform="translate(-40.000000, -27.000000)">
            <g id="Group-3" transform="translate(40.000000, 27.000000)">
                <g id="Group-2">
                    <ellipse id="Oval" fill="#F8D571" cx="38.0895398" cy="38.8307957" rx="14.3135976" ry="14.2030616"></ellipse>
                    <path d="M38.0655237,-1.13686838e-13 C59.0885319,-1.13686838e-13 76.1310474,17.0336708 76.1310474,38.0457686 C76.1310474,48.5523226 71.8700088,58.0641742 64.9809201,64.9491826 L54.8383006,54.7482023 C59.0923899,50.4671466 61.7213854,44.5667 61.7213854,38.0516667 C61.7213854,24.9751507 51.1302954,14.3745399 38.0655237,14.3745399 C25.000752,14.3745399 14.409662,24.9751507 14.409662,38.0516667 C14.409662,44.5682147 17.03988,50.4698901 21.2957141,54.7511879 L11.1531082,64.9521614 C4.26226773,58.0669179 0,48.5538379 0,38.0457686 C0,17.0336708 17.0425155,-1.13686838e-13 38.0655237,-1.13686838e-13 Z" id="Combined-Shape" fill="#DDE3ED"></path>
                </g>
                <g id="Group" transform="translate(9.000000, 59.000000)" fill="#4AC984">
                    <polygon id="Rectangle" transform="translate(35.064663, 16.236866) rotate(45.000000) translate(-35.064663, -16.236866) " points="27.9082791 0.558379055 42.227977 0.555214433 42.2210465 31.9153529 27.9013486 31.9185175"></polygon>
                    <path d="M6.46457341,1.61604424 L20.7842713,1.61287975 L20.7795347,23.0448982 C18.8953202,24.6406357 16.626023,25.4368112 13.9716433,25.4334248 C11.3172635,25.430024 8.81332801,24.6349033 6.45983679,23.0480627 L6.46457341,1.61604424 Z" id="Rectangle" transform="translate(13.622054, 13.523152) rotate(45.000000) translate(-13.622054, -13.523152) "></path>
                    <polygon id="Rectangle" transform="translate(23.033458, 16.189144) rotate(-45.000000) translate(-23.033458, -16.189144) " points="15.870144 0.507492655 30.1898419 0.510657278 30.1967725 31.8707957 15.8770745 31.8676311"></polygon>
                    <path d="M37.5475068,1.54403307 L51.8672047,1.54719769 L51.8719622,23.0744803 C49.5760177,25.1323796 47.1865484,26.1610549 44.7035543,26.1605063 C42.2205601,26.1599574 39.8367968,25.1302272 37.5522642,23.0713156 L37.5475068,1.54403307 Z" id="Rectangle" transform="translate(44.709734, 13.852270) rotate(-45.000000) translate(-44.709734, -13.852270) "></path>
                </g>
            </g>
        </g>
    </g>
</svg>