<svg width="500" height="500" viewBox="0 0 500 500" fill="none" xmlns="http://www.w3.org/2000/svg">
<g clip-path="url(#clip0)">
<path fill-rule="evenodd" clip-rule="evenodd" d="M190.761 148.641L209.223 130.371L249.654 170.382L231.192 188.651L190.761 148.641Z" fill="#3182CE"/>
<path fill-rule="evenodd" clip-rule="evenodd" d="M190.674 192.134L209.136 173.864L236.767 201.208C236.395 205.647 234.495 209.557 231.068 212.938C227.641 216.32 223.386 218.499 218.305 219.477L190.674 192.134Z" fill="#3182CE"/>
<path fill-rule="evenodd" clip-rule="evenodd" d="M209.136 210.355L190.674 192.085L231.105 152.075L249.567 170.344L209.136 210.355Z" fill="#3182CE"/>
<path fill-rule="evenodd" clip-rule="evenodd" d="M209.223 166.948L190.761 148.679L218.515 121.213C224.129 121.517 228.537 123.253 231.738 126.421C234.94 129.589 236.686 133.943 236.977 139.483L209.223 166.948Z" fill="#3182CE"/>
<path d="M179.667 170.167C179.667 155.899 168.101 144.333 153.833 144.333C139.566 144.333 128 155.899 128 170.167C128 184.434 139.566 196 153.833 196C168.101 196 179.667 184.434 179.667 170.167Z" fill="#C8D1E0"/>
<path fill-rule="evenodd" clip-rule="evenodd" d="M83 170.333C83 132.41 114.032 101.667 152.313 101.667C171.454 101.667 188.784 109.353 201.327 121.781L182.742 140.077C174.943 132.403 164.193 127.66 152.324 127.66C128.501 127.66 109.188 146.766 109.188 170.333C109.188 193.901 128.501 213.006 152.324 213.006C164.196 213.006 174.949 208.261 182.748 200.584L201.333 218.879C188.789 231.311 171.458 239 152.313 239C114.032 239 83 208.257 83 170.333Z" fill="#0F1758"/>
</g>
<g clip-path="url(#clip1)">
<path fill-rule="evenodd" clip-rule="evenodd" d="M190.761 308.641L209.223 290.371L249.654 330.382L231.192 348.651L190.761 308.641Z" fill="#3182CE"/>
<path fill-rule="evenodd" clip-rule="evenodd" d="M190.674 352.134L209.136 333.864L236.767 361.208C236.395 365.647 234.495 369.557 231.068 372.938C227.641 376.32 223.386 378.499 218.305 379.477L190.674 352.134Z" fill="#3182CE"/>
<path fill-rule="evenodd" clip-rule="evenodd" d="M209.136 370.355L190.674 352.085L231.105 312.075L249.567 330.344L209.136 370.355Z" fill="#3182CE"/>
<path fill-rule="evenodd" clip-rule="evenodd" d="M209.223 326.948L190.761 308.679L218.515 281.213C224.129 281.517 228.537 283.253 231.738 286.421C234.94 289.589 236.686 293.943 236.977 299.483L209.223 326.948Z" fill="#3182CE"/>
<path d="M179.667 330.167C179.667 315.899 168.101 304.333 153.833 304.333C139.566 304.333 128 315.899 128 330.167C128 344.434 139.566 356 153.833 356C168.101 356 179.667 344.434 179.667 330.167Z" fill="#C8D1E0"/>
<path fill-rule="evenodd" clip-rule="evenodd" d="M83 330.333C83 292.41 114.032 261.667 152.313 261.667C171.454 261.667 188.784 269.353 201.327 281.781L182.742 300.077C174.943 292.403 164.193 287.66 152.324 287.66C128.501 287.66 109.188 306.766 109.188 330.333C109.188 353.901 128.501 373.006 152.324 373.006C164.196 373.006 174.949 368.261 182.748 360.584L201.333 378.879C188.789 391.311 171.458 399 152.313 399C114.032 399 83 368.257 83 330.333Z" fill="#0F1758"/>
</g>
<g clip-path="url(#clip2)">
<path fill-rule="evenodd" clip-rule="evenodd" d="M308.906 272.026L290.444 290.295L250.013 250.285L268.475 232.015L308.906 272.026Z" fill="#3182CE"/>
<path fill-rule="evenodd" clip-rule="evenodd" d="M308.993 228.533L290.531 246.803L262.9 219.459C263.272 215.02 265.171 211.11 268.599 207.728C272.026 204.347 276.28 202.167 281.361 201.189L308.993 228.533Z" fill="#3182CE"/>
<path fill-rule="evenodd" clip-rule="evenodd" d="M290.531 210.312L308.993 228.582L268.562 268.592L250.1 250.322L290.531 210.312Z" fill="#3182CE"/>
<path fill-rule="evenodd" clip-rule="evenodd" d="M290.444 253.718L308.906 271.988L281.152 299.453C275.537 299.15 271.129 297.414 267.928 294.246C264.727 291.078 262.981 286.724 262.69 281.184L290.444 253.718Z" fill="#3182CE"/>
<path d="M320 250.5C320 264.767 331.566 276.333 345.833 276.333C360.101 276.333 371.667 264.767 371.667 250.5C371.667 236.233 360.101 224.667 345.833 224.667C331.566 224.667 320 236.233 320 250.5Z" fill="#C8D1E0"/>
<path fill-rule="evenodd" clip-rule="evenodd" d="M416.667 250.333C416.667 288.257 385.634 319 347.354 319C328.212 319 310.883 311.313 298.34 298.886L316.924 280.59C324.724 288.264 335.474 293.006 347.343 293.006C371.166 293.006 390.479 273.901 390.479 250.333C390.479 226.766 371.166 207.66 347.343 207.66C335.47 207.66 324.718 212.405 316.918 220.083L298.333 201.787C310.877 189.356 328.209 181.667 347.354 181.667C385.634 181.667 416.667 212.41 416.667 250.333Z" fill="#0F1758"/>
</g>
<defs>
<clipPath id="clip0">
<rect width="166.667" height="166.667" fill="white" transform="translate(83 253.667) rotate(-90)"/>
</clipPath>
<clipPath id="clip1">
<rect width="166.667" height="166.667" fill="white" transform="translate(83 413.667) rotate(-90)"/>
</clipPath>
<clipPath id="clip2">
<rect width="166.667" height="166.667" fill="white" transform="translate(416.667 167) rotate(90)"/>
</clipPath>
</defs>
</svg>
