<svg width="500" height="500" viewBox="0 0 500 500" fill="none" xmlns="http://www.w3.org/2000/svg">
<g clip-path="url(#clip0)">
<path fill-rule="evenodd" clip-rule="evenodd" d="M178.761 228.641L197.223 210.371L237.654 250.382L219.192 268.651L178.761 228.641Z" fill="#C8D1E0"/>
<path fill-rule="evenodd" clip-rule="evenodd" d="M178.674 272.134L197.136 253.864L224.767 281.208C224.395 285.647 222.495 289.557 219.068 292.938C215.641 296.32 211.386 298.499 206.305 299.477L178.674 272.134Z" fill="#C8D1E0"/>
<path fill-rule="evenodd" clip-rule="evenodd" d="M197.136 290.355L178.674 272.085L219.105 232.075L237.567 250.344L197.136 290.355Z" fill="#C8D1E0"/>
<path fill-rule="evenodd" clip-rule="evenodd" d="M197.223 246.948L178.761 228.679L206.515 201.213C212.129 201.517 216.537 203.253 219.738 206.421C222.94 209.589 224.686 213.943 224.977 219.483L197.223 246.948Z" fill="#C8D1E0"/>
<path d="M167.667 250.167C167.667 235.899 156.101 224.333 141.833 224.333C127.566 224.333 116 235.899 116 250.167C116 264.434 127.566 276 141.833 276C156.101 276 167.667 264.434 167.667 250.167Z" fill="#C8D1E0"/>
<path fill-rule="evenodd" clip-rule="evenodd" d="M71 250.333C71 212.41 102.032 181.667 140.313 181.667C159.454 181.667 176.784 189.353 189.327 201.781L170.742 220.077C162.943 212.403 152.193 207.66 140.324 207.66C116.501 207.66 97.188 226.766 97.188 250.333C97.188 273.901 116.501 293.006 140.324 293.006C152.196 293.006 162.949 288.261 170.748 280.584L189.333 298.879C176.789 311.311 159.458 319 140.313 319C102.032 319 71 288.257 71 250.333Z" fill="#C8D1E0"/>
</g>
<g clip-path="url(#clip1)">
<path fill-rule="evenodd" clip-rule="evenodd" d="M321.906 272.026L303.444 290.295L263.013 250.285L281.475 232.015L321.906 272.026Z" fill="#C8D1E0"/>
<path fill-rule="evenodd" clip-rule="evenodd" d="M321.993 228.533L303.531 246.803L275.9 219.459C276.272 215.02 278.171 211.11 281.599 207.728C285.026 204.347 289.28 202.167 294.361 201.189L321.993 228.533Z" fill="#C8D1E0"/>
<path fill-rule="evenodd" clip-rule="evenodd" d="M303.531 210.312L321.993 228.582L281.562 268.592L263.1 250.322L303.531 210.312Z" fill="#C8D1E0"/>
<path fill-rule="evenodd" clip-rule="evenodd" d="M303.444 253.718L321.906 271.988L294.152 299.453C288.537 299.15 284.129 297.414 280.928 294.246C277.727 291.078 275.981 286.724 275.69 281.184L303.444 253.718Z" fill="#C8D1E0"/>
<path d="M333 250.5C333 264.767 344.566 276.333 358.833 276.333C373.101 276.333 384.667 264.767 384.667 250.5C384.667 236.233 373.101 224.667 358.833 224.667C344.566 224.667 333 236.233 333 250.5Z" fill="#C8D1E0"/>
<path fill-rule="evenodd" clip-rule="evenodd" d="M429.667 250.333C429.667 288.257 398.634 319 360.354 319C341.212 319 323.883 311.313 311.34 298.886L329.924 280.59C337.724 288.264 348.474 293.006 360.343 293.006C384.166 293.006 403.479 273.901 403.479 250.333C403.479 226.766 384.166 207.66 360.343 207.66C348.47 207.66 337.718 212.405 329.918 220.083L311.333 201.787C323.877 189.356 341.209 181.667 360.354 181.667C398.634 181.667 429.667 212.41 429.667 250.333Z" fill="#C8D1E0"/>
</g>
<path d="M156.839 369.471L180.662 345.648L186.083 351.068L155.596 381.555L105.325 331.285L111.989 324.621L156.839 369.471ZM206.523 283.603C211.449 288.529 214.924 293.662 216.95 299.002C218.952 304.319 219.401 309.464 218.296 314.436C217.192 319.407 214.614 323.919 210.562 327.97C206.603 331.929 202.126 334.473 197.132 335.6C192.114 336.705 186.958 336.314 181.664 334.426C176.37 332.493 171.329 329.178 166.541 324.483L162.916 320.857C158.082 316.024 154.652 310.914 152.627 305.528C150.601 300.141 150.141 294.939 151.246 289.922C152.35 284.858 154.882 280.346 158.841 276.387C162.87 272.359 167.393 269.793 172.41 268.688C177.428 267.537 182.619 267.986 187.982 270.034C193.322 272.06 198.444 275.524 203.346 280.427L206.523 283.603ZM196.683 286.952C190.721 280.991 184.955 277.619 179.385 276.836C173.792 276.03 168.843 277.78 164.538 282.084C160.349 286.273 158.646 291.176 159.428 296.792C160.211 302.363 163.399 308.014 168.992 313.745L172.687 317.439C178.464 323.217 184.219 326.554 189.95 327.452C195.681 328.304 200.676 326.6 204.935 322.342C209.216 318.061 210.977 313.193 210.217 307.737C209.435 302.259 206.166 296.574 200.412 290.681L196.683 286.952ZM261.006 244.243C265.702 250.181 267.842 256.258 267.428 262.473C267.014 268.642 264.067 274.465 258.589 279.943C252.65 285.882 245.757 288.517 237.908 287.85C230.082 287.159 222.601 283.246 215.465 276.111L210.631 271.277C205.959 266.605 202.679 261.667 200.791 256.465C198.927 251.24 198.582 246.153 199.756 241.204C200.906 236.233 203.496 231.733 207.524 227.704C212.864 222.364 218.642 219.579 224.856 219.349C231.048 219.096 237.044 221.34 242.845 226.082L236.181 232.745C231.601 229.316 227.446 227.67 223.717 227.808C220.011 227.923 216.432 229.707 212.979 233.16C208.744 237.395 206.983 242.286 207.697 247.834C208.433 253.358 211.69 259.009 217.468 264.786L222.336 269.654C227.791 275.11 233.27 278.309 238.771 279.253C244.272 280.197 249.071 278.62 253.168 274.523C256.851 270.84 258.842 267.192 259.142 263.578C259.441 259.918 257.841 255.694 254.342 250.906L261.006 244.243ZM275.438 214.964L275.68 227.497L292.667 244.484L286.038 251.114L235.767 200.843L242.396 194.214L267.255 219.073L264.735 171.875L272.745 163.865L275.162 205.849L324.57 212.582L316.628 220.523L275.438 214.964ZM335.549 155.129L313.763 176.916L331.579 194.731L356.887 169.423L362.307 174.844L330.37 206.781L280.099 156.51L311.691 124.918L317.146 130.374L292.184 155.337L308.342 171.495L330.128 149.709L335.549 155.129ZM370.559 166.592L320.288 116.321L334.479 102.131C338.852 97.7575 343.686 94.8572 348.98 93.4301C354.274 92.003 359.614 92.1642 365 93.9135C370.41 95.6399 375.439 98.8048 380.089 103.408L383.3 106.619C388.041 111.361 391.275 116.436 393.002 121.846C394.751 127.232 394.877 132.583 393.381 137.901C391.908 143.195 388.939 148.12 384.473 152.678L370.559 166.592ZM332.373 115.147L371.768 154.542L378.742 147.568C383.852 142.458 386.234 136.899 385.889 130.892C385.567 124.861 382.471 118.911 376.601 113.041L373.667 110.107C367.958 104.398 362.181 101.314 356.334 100.853C350.488 100.347 345.078 102.534 340.107 107.413L332.373 115.147Z" fill="#80929C"/>
<defs>
<clipPath id="clip0">
<rect width="166.667" height="166.667" fill="white" transform="translate(71 333.667) rotate(-90)"/>
</clipPath>
<clipPath id="clip1">
<rect width="166.667" height="166.667" fill="white" transform="translate(429.667 167) rotate(90)"/>
</clipPath>
</defs>
</svg>
