<svg width="500" height="500" viewBox="0 0 500 500" fill="none" xmlns="http://www.w3.org/2000/svg">
<g clip-path="url(#clip0)">
<path fill-rule="evenodd" clip-rule="evenodd" d="M219.234 265.588L192.901 238.978L250.571 180.702L276.904 207.312L219.234 265.588Z" fill="#3182CE"/>
<path fill-rule="evenodd" clip-rule="evenodd" d="M281.923 265.713L255.589 239.103L295.002 199.277C301.4 199.813 307.036 202.551 311.91 207.491C316.784 212.431 319.925 218.563 321.335 225.887L281.923 265.713Z" fill="#3182CE"/>
<path fill-rule="evenodd" clip-rule="evenodd" d="M308.186 239.103L281.853 265.713L224.183 207.438L250.516 180.828L308.186 239.103Z" fill="#3182CE"/>
<path fill-rule="evenodd" clip-rule="evenodd" d="M245.622 238.978L219.288 265.588L179.701 225.584C180.139 217.492 182.641 211.139 187.207 206.524C191.773 201.91 198.049 199.394 206.034 198.974L245.622 238.978Z" fill="#3182CE"/>
<path d="M250.26 281.579C229.696 281.579 213.025 298.25 213.025 318.814C213.025 339.378 229.696 356.049 250.26 356.049C270.825 356.049 287.496 339.378 287.496 318.814C287.496 298.25 270.825 281.579 250.26 281.579Z" fill="#C8D1E0"/>
<path fill-rule="evenodd" clip-rule="evenodd" d="M250.501 420.91C195.839 420.91 151.527 376.181 151.527 321.005C151.527 293.415 162.607 268.438 180.519 250.358L206.89 277.146C195.829 288.387 188.993 303.882 188.993 320.99C188.993 355.328 216.531 383.164 250.501 383.164C284.47 383.164 312.008 355.328 312.008 320.99C312.008 303.877 305.168 288.379 294.102 277.137L320.473 250.349C338.391 268.43 349.474 293.411 349.474 321.005C349.474 376.181 305.162 420.91 250.501 420.91Z" fill="#0F1758"/>
</g>
<g clip-path="url(#clip1)">
<path fill-rule="evenodd" clip-rule="evenodd" d="M173.344 132.808L188.078 135.486L182.552 167.812L167.818 165.134L173.344 132.808Z" fill="#3182CE"/>
<path fill-rule="evenodd" clip-rule="evenodd" d="M152.775 147.15L167.508 149.827L163.732 171.919C161.513 173.211 159.038 173.607 156.307 173.107C153.577 172.607 151.141 171.318 148.998 169.242L152.775 147.15Z" fill="#3182CE"/>
<path fill-rule="evenodd" clip-rule="evenodd" d="M150.275 161.894L152.798 147.134L185.064 152.997L182.541 167.758L150.275 161.894Z" fill="#3182CE"/>
<path fill-rule="evenodd" clip-rule="evenodd" d="M170.803 147.581L173.326 132.821L195.476 136.846C197.189 139.598 197.827 142.253 197.389 144.813C196.952 147.372 195.473 149.637 192.953 151.606L170.803 147.581Z" fill="#3182CE"/>
<path d="M159.509 134.687C166.247 129.969 167.885 120.682 163.167 113.944C158.449 107.205 149.162 105.568 142.424 110.286C135.685 115.004 134.048 124.291 138.766 131.029C143.484 137.768 152.771 139.405 159.509 134.687Z" fill="#C8D1E0"/>
<path fill-rule="evenodd" clip-rule="evenodd" d="M127.464 89.0887C145.374 76.5476 170.156 81.0371 182.815 99.1161C189.145 108.156 191.245 118.882 189.524 128.916L174.737 126.189C175.782 119.968 174.467 113.323 170.542 107.717C162.664 96.4659 147.254 93.663 136.124 101.457C124.993 109.25 122.357 124.689 130.235 135.94C134.161 141.548 139.958 145.056 146.163 146.201L143.668 161.029C133.649 159.215 124.286 153.573 117.955 144.531C105.296 126.452 109.553 101.63 127.464 89.0887Z" fill="#0F1758"/>
</g>
<g clip-path="url(#clip2)">
<path fill-rule="evenodd" clip-rule="evenodd" d="M343.604 143.312L346.128 158.072L313.861 163.936L311.338 149.175L343.604 143.312Z" fill="#3182CE"/>
<path fill-rule="evenodd" clip-rule="evenodd" d="M323.093 128.888L325.616 143.649L303.564 147.656C301.591 146.012 300.373 143.822 299.909 141.085C299.445 138.348 299.823 135.618 301.041 132.895L323.093 128.888Z" fill="#3182CE"/>
<path fill-rule="evenodd" clip-rule="evenodd" d="M308.382 131.581L323.115 128.904L328.641 161.23L313.908 163.907L308.382 131.581Z" fill="#3182CE"/>
<path fill-rule="evenodd" clip-rule="evenodd" d="M328.853 145.977L343.587 143.299L347.38 165.489C345.38 168.041 343.102 169.548 340.548 170.013C337.993 170.477 335.359 169.862 332.646 168.167L328.853 145.977Z" fill="#3182CE"/>
<path d="M337.107 130.954C343.845 135.672 353.132 134.034 357.85 127.296C362.569 120.558 360.931 111.271 354.193 106.553C347.455 101.835 338.168 103.472 333.449 110.21C328.731 116.948 330.369 126.236 337.107 130.954Z" fill="#C8D1E0"/>
<path fill-rule="evenodd" clip-rule="evenodd" d="M368.995 85.245C386.906 97.786 391.163 122.609 378.504 140.688C372.174 149.728 362.813 155.37 352.796 157.184L350.301 142.357C356.504 141.211 362.299 137.702 366.224 132.097C374.102 120.846 371.466 105.407 360.335 97.613C349.205 89.8194 333.795 92.6223 325.917 103.873C321.991 109.481 320.676 116.128 321.723 122.351L306.936 125.077C305.213 115.042 307.313 104.314 313.644 95.2724C326.303 77.1934 351.085 72.704 368.995 85.245Z" fill="#0F1758"/>
</g>
<g clip-path="url(#clip3)">
<path fill-rule="evenodd" clip-rule="evenodd" d="M107.808 194.48L122.292 190.68L130.946 222.312L116.461 226.113L107.808 194.48Z" fill="#3182CE"/>
<path fill-rule="evenodd" clip-rule="evenodd" d="M95.2266 216.171L109.711 212.371L115.625 233.989C114.16 236.098 112.084 237.503 109.398 238.203C106.712 238.904 103.959 238.766 101.14 237.789L95.2266 216.171Z" fill="#3182CE"/>
<path fill-rule="evenodd" clip-rule="evenodd" d="M99.1919 230.591L95.2406 216.147L126.962 207.825L130.913 222.269L99.1919 230.591Z" fill="#3182CE"/>
<path fill-rule="evenodd" clip-rule="evenodd" d="M111.748 208.943L107.797 194.499L129.572 188.786C132.288 190.556 133.988 192.694 134.673 195.198C135.358 197.703 134.975 200.38 133.523 203.23L111.748 208.943Z" fill="#3182CE"/>
<path d="M96.063 202.03C100.176 194.906 97.7351 185.797 90.6114 181.684C83.4877 177.571 74.3786 180.012 70.2657 187.136C66.1528 194.259 68.5936 203.368 75.7173 207.481C82.841 211.594 91.9501 209.153 96.063 202.03Z" fill="#C8D1E0"/>
<path fill-rule="evenodd" clip-rule="evenodd" d="M47.7491 174.247C58.6814 155.311 83.0384 148.907 102.152 159.942C111.709 165.46 118.146 174.294 120.826 184.115L106.273 187.893C104.591 181.812 100.59 176.346 94.664 172.924C82.769 166.056 67.6187 170.029 60.8248 181.796C54.0309 193.563 58.1661 208.67 70.0611 215.537C75.9891 218.96 82.7257 219.69 88.8334 218.105L92.8387 232.598C82.9919 235.189 72.1215 234.032 62.5625 228.513C43.4489 217.478 36.8167 193.182 47.7491 174.247Z" fill="#0F1758"/>
</g>
<g clip-path="url(#clip4)">
<path fill-rule="evenodd" clip-rule="evenodd" d="M108.456 364.763L111.134 350.029L143.46 355.555L140.782 370.289L108.456 364.763Z" fill="#3182CE"/>
<path fill-rule="evenodd" clip-rule="evenodd" d="M122.798 385.332L125.475 370.599L147.567 374.375C148.86 376.595 149.255 379.07 148.755 381.8C148.255 384.53 146.966 386.967 144.89 389.109L122.798 385.332Z" fill="#3182CE"/>
<path fill-rule="evenodd" clip-rule="evenodd" d="M137.543 387.833L122.782 385.309L128.645 353.043L143.406 355.566L137.543 387.833Z" fill="#3182CE"/>
<path fill-rule="evenodd" clip-rule="evenodd" d="M123.23 367.304L108.469 364.781L112.494 342.631C115.246 340.918 117.902 340.28 120.461 340.718C123.021 341.155 125.285 342.634 127.255 345.155L123.23 367.304Z" fill="#3182CE"/>
<path d="M110.335 378.598C105.617 371.86 96.3299 370.222 89.5918 374.94C82.8536 379.658 81.216 388.945 85.9342 395.684C90.6523 402.422 99.9394 404.059 106.678 399.341C113.416 394.623 115.053 385.336 110.335 378.598Z" fill="#C8D1E0"/>
<path fill-rule="evenodd" clip-rule="evenodd" d="M64.7368 410.643C52.1957 392.733 56.6852 367.952 74.7642 355.292C83.8043 348.963 94.5305 346.862 104.564 348.583L101.837 363.37C95.6161 362.325 88.9709 363.64 83.3652 367.565C72.114 375.443 69.3112 390.853 77.1048 401.983C84.8984 413.114 100.337 415.75 111.588 407.872C117.196 403.946 120.705 398.149 121.849 391.944L136.677 394.439C134.864 404.458 129.221 413.821 120.179 420.152C102.1 432.811 77.2778 428.554 64.7368 410.643Z" fill="#0F1758"/>
</g>
<g clip-path="url(#clip5)">
<path fill-rule="evenodd" clip-rule="evenodd" d="M258.847 113.038L269.656 123.403L247.206 147.309L236.398 136.944L258.847 113.038Z" fill="#3182CE"/>
<path fill-rule="evenodd" clip-rule="evenodd" d="M233.779 113.644L244.588 124.009L229.245 140.347C226.681 140.199 224.399 139.163 222.398 137.239C220.398 135.315 219.077 132.896 218.437 129.982L233.779 113.644Z" fill="#3182CE"/>
<path fill-rule="evenodd" clip-rule="evenodd" d="M223.556 124.56L233.807 113.644L257.477 136.342L247.226 147.258L223.556 124.56Z" fill="#3182CE"/>
<path fill-rule="evenodd" clip-rule="evenodd" d="M248.575 123.955L258.826 113.039L275.074 128.62C274.984 131.86 274.05 134.427 272.272 136.32C270.495 138.213 268.012 139.285 264.823 139.536L248.575 123.955Z" fill="#3182CE"/>
<path d="M246.274 106.969C254.497 106.753 260.988 99.9128 260.773 91.6899C260.557 83.4669 253.717 76.9755 245.494 77.1908C237.271 77.4061 230.78 84.2467 230.995 92.4697C231.21 100.693 238.051 107.184 246.274 106.969Z" fill="#C8D1E0"/>
<path fill-rule="evenodd" clip-rule="evenodd" d="M244.719 51.2577C266.576 50.6854 284.763 68.1069 285.341 90.1697C285.63 101.202 281.461 111.306 274.487 118.722L263.662 108.287C267.967 103.676 270.539 97.4091 270.359 90.5682C270 76.8378 258.697 65.9954 245.114 66.3511C231.531 66.7068 220.811 78.1258 221.171 91.8563C221.35 98.699 224.247 104.824 228.79 109.204L218.525 120.191C211.171 113.149 206.478 103.276 206.189 92.2424C205.611 70.1795 222.862 51.8301 244.719 51.2577Z" fill="#0F1758"/>
</g>
<g clip-path="url(#clip6)">
<path fill-rule="evenodd" clip-rule="evenodd" d="M81.9901 277.662L91.6755 266.242L116.908 287.19L107.222 298.611L81.9901 277.662Z" fill="#3182CE"/>
<path fill-rule="evenodd" clip-rule="evenodd" d="M84.1256 302.647L93.811 291.226L111.055 305.542C111.064 308.111 110.17 310.452 108.371 312.566C106.573 314.681 104.239 316.146 101.37 316.963L84.1256 302.647Z" fill="#3182CE"/>
<path fill-rule="evenodd" clip-rule="evenodd" d="M95.6446 312.184L84.1231 302.619L105.334 277.607L116.856 287.173L95.6446 312.184Z" fill="#3182CE"/>
<path fill-rule="evenodd" clip-rule="evenodd" d="M93.5135 287.25L81.992 277.684L96.5524 260.515C99.7923 260.407 102.411 261.182 104.409 262.841C106.407 264.5 107.628 266.913 108.074 270.08L93.5135 287.25Z" fill="#3182CE"/>
<path d="M76.6997 290.583C75.9827 282.389 68.7586 276.327 60.5642 277.044C52.3697 277.761 46.3079 284.985 47.0249 293.179C47.7418 301.374 54.9659 307.436 63.1604 306.719C71.3548 306.002 77.4166 298.778 76.6997 290.583Z" fill="#C8D1E0"/>
<path fill-rule="evenodd" clip-rule="evenodd" d="M21.1874 295.536C19.2818 273.755 35.5605 254.538 57.547 252.615C68.5409 251.653 78.8802 255.197 86.709 261.704L76.9541 273.147C72.0889 269.131 65.6765 266.947 58.8593 267.544C45.1764 268.741 35.0443 280.684 36.2285 294.22C37.4128 307.757 49.465 317.759 63.1479 316.562C69.9669 315.966 75.904 312.7 79.9981 307.898L91.5917 317.473C85.0118 325.243 75.4436 330.53 64.4479 331.492C42.4614 333.416 23.0931 317.318 21.1874 295.536Z" fill="#0F1758"/>
</g>
<g clip-path="url(#clip7)">
<path fill-rule="evenodd" clip-rule="evenodd" d="M401.475 210.377L397.523 224.821L365.802 216.499L369.753 202.055L401.475 210.377Z" fill="#3182CE"/>
<path fill-rule="evenodd" clip-rule="evenodd" d="M388.98 188.636L385.029 203.08L363.35 197.392C362.256 195.069 362.078 192.569 362.814 189.892C363.551 187.216 365.046 184.901 367.302 182.948L388.98 188.636Z" fill="#3182CE"/>
<path fill-rule="evenodd" clip-rule="evenodd" d="M374.51 184.86L388.994 188.66L380.341 220.292L365.856 216.492L374.51 184.86Z" fill="#3182CE"/>
<path fill-rule="evenodd" clip-rule="evenodd" d="M386.979 206.558L401.464 210.358L395.524 232.072C392.633 233.539 389.932 233.943 387.42 233.284C384.908 232.625 382.781 230.954 381.039 228.272L386.979 206.558Z" fill="#3182CE"/>
<path d="M400.809 196.431C404.922 203.554 414.031 205.995 421.155 201.882C428.278 197.769 430.719 188.66 426.606 181.537C422.493 174.413 413.384 171.972 406.26 176.085C399.137 180.198 396.696 189.307 400.809 196.431Z" fill="#C8D1E0"/>
<path fill-rule="evenodd" clip-rule="evenodd" d="M449.027 168.481C459.959 187.417 453.327 211.712 434.213 222.748C424.656 228.266 413.787 229.423 403.942 226.834L407.947 212.341C414.054 213.925 420.788 213.194 426.715 209.772C438.61 202.904 442.745 187.798 435.951 176.03C429.157 164.263 414.007 160.291 402.112 167.159C396.184 170.581 392.183 176.05 390.502 182.132L375.948 178.354C378.628 168.531 385.065 159.696 394.624 154.177C413.737 143.142 438.094 149.546 449.027 168.481Z" fill="#0F1758"/>
</g>
<g clip-path="url(#clip8)">
<path fill-rule="evenodd" clip-rule="evenodd" d="M415.231 297.776L403.71 307.341L382.499 282.33L394.02 272.764L415.231 297.776Z" fill="#3182CE"/>
<path fill-rule="evenodd" clip-rule="evenodd" d="M417.467 272.8L405.945 282.366L391.449 265.272C391.886 262.742 393.174 260.591 395.312 258.821C397.45 257.051 400.003 256.013 402.971 255.707L417.467 272.8Z" fill="#3182CE"/>
<path fill-rule="evenodd" clip-rule="evenodd" d="M407.779 261.407L417.464 272.828L392.232 293.777L382.547 282.356L407.779 261.407Z" fill="#3182CE"/>
<path fill-rule="evenodd" clip-rule="evenodd" d="M405.548 286.333L415.233 297.754L397.913 312.134C394.703 311.678 392.259 310.459 390.579 308.479C388.9 306.499 388.116 303.91 388.227 300.714L405.548 286.333Z" fill="#3182CE"/>
<path d="M422.685 285.97C421.968 294.165 428.03 301.389 436.224 302.106C444.419 302.823 451.643 296.761 452.36 288.566C453.077 280.372 447.015 273.148 438.821 272.431C430.626 271.714 423.402 277.776 422.685 285.97Z" fill="#C8D1E0"/>
<path fill-rule="evenodd" clip-rule="evenodd" d="M478.214 290.732C476.308 312.513 456.94 328.611 434.954 326.688C423.96 325.726 414.393 320.44 407.813 312.672L419.407 303.098C423.501 307.897 429.436 311.161 436.254 311.758C449.936 312.955 461.989 302.952 463.173 289.416C464.357 275.88 454.225 263.936 440.542 262.739C433.723 262.142 427.309 264.328 422.443 268.345L412.689 256.903C420.518 250.394 430.859 246.848 441.854 247.81C463.841 249.734 480.12 268.95 478.214 290.732Z" fill="#0F1758"/>
</g>
<g clip-path="url(#clip9)">
<path fill-rule="evenodd" clip-rule="evenodd" d="M381.343 381.409L366.582 383.932L360.719 351.666L375.479 349.143L381.343 381.409Z" fill="#3182CE"/>
<path fill-rule="evenodd" clip-rule="evenodd" d="M395.767 360.897L381.006 363.42L376.999 341.369C378.642 339.396 380.832 338.177 383.569 337.714C386.306 337.25 389.036 337.627 391.759 338.846L395.767 360.897Z" fill="#3182CE"/>
<path fill-rule="evenodd" clip-rule="evenodd" d="M393.073 346.187L395.75 360.92L363.425 366.446L360.747 351.712L393.073 346.187Z" fill="#3182CE"/>
<path fill-rule="evenodd" clip-rule="evenodd" d="M378.678 366.658L381.355 381.391L359.165 385.184C356.614 383.184 355.106 380.907 354.642 378.352C354.178 375.797 354.793 373.164 356.488 370.451L378.678 366.658Z" fill="#3182CE"/>
<path d="M393.701 374.912C388.983 381.65 390.62 390.937 397.358 395.655C404.097 400.373 413.384 398.736 418.102 391.997C422.82 385.259 421.182 375.972 414.444 371.254C407.706 366.536 398.419 368.173 393.701 374.912Z" fill="#C8D1E0"/>
<path fill-rule="evenodd" clip-rule="evenodd" d="M439.409 406.8C426.868 424.71 402.046 428.967 383.967 416.308C374.927 409.978 369.285 400.617 367.47 390.6L382.298 388.105C383.444 394.309 386.952 400.103 392.558 404.029C403.809 411.907 419.248 409.27 427.041 398.14C434.835 387.009 432.032 371.6 420.781 363.722C415.174 359.795 408.527 358.481 402.304 359.527L399.577 344.741C409.612 343.018 420.34 345.118 429.382 351.449C447.461 364.108 451.95 388.889 439.409 406.8Z" fill="#0F1758"/>
</g>
<defs>
<clipPath id="clip0">
<rect width="240.227" height="240.227" fill="white" transform="translate(370.614 420.91) rotate(-180)"/>
</clipPath>
<clipPath id="clip1">
<rect width="96.0908" height="96.0908" fill="white" transform="translate(88.1072 116.646) rotate(-35)"/>
</clipPath>
<clipPath id="clip2">
<rect width="96.0908" height="96.0908" fill="white" transform="translate(329.639 57.6873) rotate(35)"/>
</clipPath>
<clipPath id="clip3">
<rect width="96.0908" height="96.0908" fill="white" transform="translate(23.7263 215.855) rotate(-60)"/>
</clipPath>
<clipPath id="clip4">
<rect width="96.0908" height="96.0908" fill="white" transform="translate(92.2945 450) rotate(-125)"/>
</clipPath>
<clipPath id="clip5">
<rect width="96.0908" height="96.0908" fill="white" transform="translate(196.69 52.5154) rotate(-1.5)"/>
</clipPath>
<clipPath id="clip6">
<rect width="96.0908" height="96.0908" fill="white" transform="translate(25.3749 343.399) rotate(-95)"/>
</clipPath>
<clipPath id="clip7">
<rect width="96.0908" height="96.0908" fill="white" transform="translate(425.004 126.873) rotate(60)"/>
</clipPath>
<clipPath id="clip8">
<rect width="96.0908" height="96.0908" fill="white" transform="translate(482.401 242.869) rotate(95)"/>
</clipPath>
<clipPath id="clip9">
<rect width="96.0908" height="96.0908" fill="white" transform="translate(466.967 367.443) rotate(125)"/>
</clipPath>
</defs>
</svg>
