<svg width="500" height="500" viewBox="0 0 500 500" fill="none" xmlns="http://www.w3.org/2000/svg">
<g clip-path="url(#clip0)">
<path fill-rule="evenodd" clip-rule="evenodd" d="M258.12 199.97L253.361 166.95L325.563 155.773L330.321 188.793L258.12 199.97Z" fill="#3182CE"/>
<path fill-rule="evenodd" clip-rule="evenodd" d="M302.96 233.289L298.202 200.269L347.545 192.631C351.844 196.406 354.43 201.355 355.303 207.477C356.176 213.6 355.176 219.657 352.304 225.651L302.96 233.289Z" fill="#3182CE"/>
<path fill-rule="evenodd" clip-rule="evenodd" d="M335.879 228.149L302.91 233.252L292.489 160.938L325.458 155.834L335.879 228.149Z" fill="#3182CE"/>
<path fill-rule="evenodd" clip-rule="evenodd" d="M291.127 194.896L258.159 199.999L251.005 150.358C255.608 144.793 260.768 141.568 266.484 140.683C272.201 139.799 278.031 141.322 283.974 145.255L291.127 194.896Z" fill="#3182CE"/>
<path d="M271.869 227.872C257.138 216.971 236.359 220.076 225.458 234.808C214.558 249.539 217.663 270.318 232.394 281.218C247.126 292.119 267.905 289.014 278.805 274.282C289.706 259.551 286.6 238.772 271.869 227.872Z" fill="#C8D1E0"/>
<path fill-rule="evenodd" clip-rule="evenodd" d="M198.186 327.809C159.029 298.835 150.995 243.305 180.243 203.779C194.867 184.015 216.044 171.995 238.459 168.539L243.151 201.707C229.268 203.897 216.158 211.372 207.09 223.628C188.888 248.226 193.86 282.763 218.194 300.77C242.528 318.776 277.01 313.432 295.211 288.834C304.282 276.576 307.598 261.848 305.63 247.929L338.72 242.718C341.972 265.168 336.669 288.938 322.042 308.705C292.795 348.231 237.342 356.784 198.186 327.809Z" fill="#0F1758"/>
</g>
<g clip-path="url(#clip1)">
<path fill-rule="evenodd" clip-rule="evenodd" d="M81.6701 139.265L72.2835 129.779L92.8402 109.007L102.227 118.492L81.6701 139.265Z" fill="#3182CE"/>
<path fill-rule="evenodd" clip-rule="evenodd" d="M104.016 139.309L94.6291 129.824L108.678 115.628C110.958 115.819 112.967 116.795 114.705 118.556C116.442 120.317 117.562 122.502 118.064 125.113L104.016 139.309Z" fill="#3182CE"/>
<path fill-rule="evenodd" clip-rule="evenodd" d="M113.377 129.824L103.991 139.309L83.4342 118.537L92.8208 109.051L113.377 129.824Z" fill="#3182CE"/>
<path fill-rule="evenodd" clip-rule="evenodd" d="M91.0759 129.779L81.6893 139.265L67.5781 125.005C67.7341 122.121 68.6259 119.856 70.2535 118.211C71.8812 116.566 74.1182 115.669 76.9647 115.52L91.0759 129.779Z" fill="#3182CE"/>
<path d="M92.7295 144.965C85.3992 144.965 79.4568 150.907 79.4568 158.238C79.4568 165.568 85.3992 171.51 92.7295 171.51C100.06 171.51 106.002 165.568 106.002 158.238C106.002 150.907 100.06 144.965 92.7295 144.965Z" fill="#C8D1E0"/>
<path fill-rule="evenodd" clip-rule="evenodd" d="M92.8152 194.63C73.3308 194.63 57.5355 178.687 57.5355 159.019C57.5355 149.184 61.4848 140.281 67.8699 133.836L77.2701 143.385C73.3272 147.392 70.8906 152.915 70.8906 159.013C70.8906 171.253 80.7066 181.176 92.8152 181.176C104.924 181.176 114.74 171.253 114.74 159.013C114.74 152.913 112.302 147.389 108.357 143.381L117.757 133.833C124.144 140.278 128.095 149.182 128.095 159.019C128.095 178.687 112.3 194.63 92.8152 194.63Z" fill="#0F1758"/>
</g>
<g clip-path="url(#clip2)">
<path fill-rule="evenodd" clip-rule="evenodd" d="M90.8491 379.541L89.7555 366.242L118.855 363.542L119.949 376.842L90.8491 379.541Z" fill="#3182CE"/>
<path fill-rule="evenodd" clip-rule="evenodd" d="M107.938 393.939L106.845 380.639L126.732 378.795C128.356 380.407 129.268 382.446 129.467 384.912C129.666 387.377 129.119 389.772 127.825 392.094L107.938 393.939Z" fill="#3182CE"/>
<path fill-rule="evenodd" clip-rule="evenodd" d="M121.207 392.691L107.919 393.923L105.524 364.797L118.812 363.564L121.207 392.691Z" fill="#3182CE"/>
<path fill-rule="evenodd" clip-rule="evenodd" d="M104.152 378.321L90.864 379.554L89.2201 359.56C91.1938 357.45 93.3326 356.289 95.6366 356.075C97.9407 355.861 100.231 356.612 102.508 358.327L104.152 378.321Z" fill="#3182CE"/>
<path d="M95.6573 391.017C90.0419 386.305 81.6701 387.037 76.9583 392.653C72.2464 398.268 72.9789 406.64 78.5942 411.352C84.2096 416.064 92.5814 415.331 97.2933 409.716C102.005 404.1 101.273 395.729 95.6573 391.017Z" fill="#C8D1E0"/>
<path fill-rule="evenodd" clip-rule="evenodd" d="M63.7984 429.118C48.8724 416.594 47.0211 394.227 59.6633 379.16C65.9849 371.627 74.7333 367.345 83.767 366.512L84.8303 379.869C79.2341 380.404 73.8174 383.069 69.8975 387.741C62.0298 397.117 63.1713 411.028 72.447 418.811C81.7228 426.594 95.6203 425.303 103.488 415.926C107.409 411.253 109.092 405.455 108.646 399.849L121.985 398.577C122.735 407.619 120.038 416.98 113.715 424.515C101.073 439.582 78.7243 441.642 63.7984 429.118Z" fill="#0F1758"/>
</g>
<g clip-path="url(#clip3)">
<path fill-rule="evenodd" clip-rule="evenodd" d="M314.336 123.22L323.11 133.274L301.295 152.721L292.52 142.667L314.336 123.22Z" fill="#3182CE"/>
<path fill-rule="evenodd" clip-rule="evenodd" d="M292.036 121.778L300.811 131.832L285.902 145.122C283.638 144.788 281.694 143.689 280.07 141.823C278.446 139.956 277.465 137.705 277.127 135.068L292.036 121.778Z" fill="#3182CE"/>
<path fill-rule="evenodd" clip-rule="evenodd" d="M282.1 130.659L292.061 121.78L311.278 143.797L301.317 152.677L282.1 130.659Z" fill="#3182CE"/>
<path fill-rule="evenodd" clip-rule="evenodd" d="M304.355 132.099L314.316 123.219L327.508 138.333C327.172 141.203 326.14 143.407 324.413 144.947C322.685 146.486 320.397 147.242 317.546 147.213L304.355 132.099Z" fill="#3182CE"/>
<path d="M303.654 116.84C310.97 117.298 317.273 111.739 317.731 104.423C318.19 97.1072 312.631 90.8048 305.315 90.3463C297.999 89.8877 291.696 95.4468 291.238 102.763C290.779 110.079 296.338 116.381 303.654 116.84Z" fill="#C8D1E0"/>
<path fill-rule="evenodd" clip-rule="evenodd" d="M306.675 67.2659C326.122 68.4847 340.889 85.3854 339.658 105.015C339.043 114.83 334.545 123.469 327.769 129.502L318.985 119.384C323.17 115.631 325.948 110.271 326.329 104.185C327.095 91.9689 317.919 81.4519 305.834 80.6945C293.749 79.9372 283.331 89.2262 282.566 101.442C282.184 107.53 284.272 113.196 287.958 117.443L277.979 126.384C272.008 119.553 268.622 110.418 269.237 100.601C270.467 80.9719 287.229 66.0472 306.675 67.2659Z" fill="#0F1758"/>
</g>
<g clip-path="url(#clip4)">
<path fill-rule="evenodd" clip-rule="evenodd" d="M377.881 193.319L370.652 204.536L345.923 188.963L353.151 177.746L377.881 193.319Z" fill="#3182CE"/>
<path fill-rule="evenodd" clip-rule="evenodd" d="M373.088 171.494L365.859 182.711L348.959 172.068C348.652 169.8 349.17 167.627 350.513 165.55C351.856 163.472 353.747 161.906 356.187 160.85L373.088 171.494Z" fill="#3182CE"/>
<path fill-rule="evenodd" clip-rule="evenodd" d="M361.801 164.407L373.093 171.518L357.262 196.083L345.97 188.972L361.801 164.407Z" fill="#3182CE"/>
<path fill-rule="evenodd" clip-rule="evenodd" d="M366.585 186.189L377.877 193.3L367.009 210.163C364.16 210.635 361.756 210.255 359.797 209.022C357.839 207.789 356.479 205.799 355.717 203.052L366.585 186.189Z" fill="#3182CE"/>
<path d="M381.052 181.288C382.639 188.445 389.727 192.96 396.883 191.373C404.04 189.787 408.555 182.699 406.968 175.543C405.382 168.386 398.294 163.871 391.138 165.457C383.981 167.044 379.466 174.132 381.052 181.288Z" fill="#C8D1E0"/>
<path fill-rule="evenodd" clip-rule="evenodd" d="M429.522 170.455C433.739 189.478 421.592 208.349 402.39 212.606C392.789 214.735 383.242 212.806 375.568 207.967L382.856 196.723C387.621 199.705 393.541 200.889 399.494 199.569C411.444 196.92 419.007 185.189 416.386 173.367C413.765 161.545 401.954 154.11 390.004 156.759C384.048 158.079 379.183 161.655 376.124 166.374L364.767 159.263C369.677 151.633 377.516 145.848 387.119 143.719C406.32 139.462 425.305 151.432 429.522 170.455Z" fill="#0F1758"/>
</g>
<g clip-path="url(#clip5)">
<path fill-rule="evenodd" clip-rule="evenodd" d="M360.58 148.186L361.441 161.503L332.299 163.694L331.437 150.377L360.58 148.186Z" fill="#3182CE"/>
<path fill-rule="evenodd" clip-rule="evenodd" d="M343.745 133.492L344.606 146.809L324.689 148.307C323.094 146.666 322.218 144.612 322.062 142.143C321.906 139.674 322.495 137.29 323.828 134.99L343.745 133.492Z" fill="#3182CE"/>
<path fill-rule="evenodd" clip-rule="evenodd" d="M330.456 134.509L343.763 133.509L345.65 162.673L332.342 163.673L330.456 134.509Z" fill="#3182CE"/>
<path fill-rule="evenodd" clip-rule="evenodd" d="M347.258 149.174L360.565 148.174L361.86 168.193C359.85 170.268 357.691 171.392 355.383 171.565C353.076 171.739 350.799 170.948 348.553 169.194L347.258 149.174Z" fill="#3182CE"/>
<path d="M355.973 136.629C361.505 141.438 369.888 140.852 374.698 135.319C379.507 129.787 378.92 121.404 373.388 116.595C367.856 111.785 359.473 112.372 354.663 117.904C349.854 123.436 350.441 131.82 355.973 136.629Z" fill="#C8D1E0"/>
<path fill-rule="evenodd" clip-rule="evenodd" d="M388.492 99.0893C403.197 111.872 404.657 134.268 391.754 149.112C385.302 156.534 376.48 160.662 367.433 161.337L366.603 147.964C372.208 147.526 377.67 144.956 381.671 140.354C389.701 131.116 388.803 117.188 379.664 109.244C370.526 101.3 356.608 102.349 348.578 111.586C344.576 116.19 342.792 121.959 343.14 127.571L329.781 128.61C329.189 119.556 332.049 110.244 338.502 102.82C351.406 87.9768 373.787 86.3064 388.492 99.0893Z" fill="#0F1758"/>
</g>
<g clip-path="url(#clip6)">
<path fill-rule="evenodd" clip-rule="evenodd" d="M145.881 378.47L135.917 387.348L116.249 365.732L126.212 356.855L145.881 378.47Z" fill="#3182CE"/>
<path fill-rule="evenodd" clip-rule="evenodd" d="M147.095 356.158L137.131 365.035L123.69 350.262C124 347.995 125.08 346.04 126.929 344.397C128.778 342.754 131.02 341.75 133.653 341.385L147.095 356.158Z" fill="#3182CE"/>
<path fill-rule="evenodd" clip-rule="evenodd" d="M138.112 346.312L147.093 356.182L125.273 375.624L116.292 365.754L138.112 346.312Z" fill="#3182CE"/>
<path fill-rule="evenodd" clip-rule="evenodd" d="M136.901 368.581L145.882 378.451L130.903 391.797C128.031 391.49 125.816 390.481 124.259 388.769C122.701 387.058 121.922 384.777 121.922 381.926L136.901 368.581Z" fill="#3182CE"/>
<path d="M152.152 367.724C151.768 375.045 157.391 381.29 164.712 381.674C172.032 382.057 178.277 376.434 178.661 369.114C179.044 361.793 173.421 355.548 166.101 355.164C158.781 354.781 152.535 360.404 152.152 367.724Z" fill="#C8D1E0"/>
<path fill-rule="evenodd" clip-rule="evenodd" d="M201.754 370.238C200.734 389.696 183.985 404.635 164.345 403.606C154.523 403.091 145.839 398.681 139.737 391.968L149.765 383.08C153.56 387.227 158.948 389.949 165.038 390.269C177.261 390.909 187.684 381.626 188.317 369.534C188.951 357.442 179.556 347.12 167.333 346.479C161.241 346.16 155.597 348.306 151.389 352.035L142.345 342.148C149.115 336.107 158.215 332.628 168.037 333.143C187.678 334.172 202.774 350.78 201.754 370.238Z" fill="#0F1758"/>
</g>
<g clip-path="url(#clip7)">
<path fill-rule="evenodd" clip-rule="evenodd" d="M103.793 120.219L113.18 129.704L92.6232 150.477L83.2366 140.991L103.793 120.219Z" fill="#3182CE"/>
<path fill-rule="evenodd" clip-rule="evenodd" d="M81.4477 120.174L90.8343 129.659L76.7855 143.856C74.5049 143.664 72.4959 142.688 70.7586 140.928C69.0212 139.167 67.9014 136.981 67.3989 134.37L81.4477 120.174Z" fill="#3182CE"/>
<path fill-rule="evenodd" clip-rule="evenodd" d="M72.0859 129.659L81.4725 120.174L102.029 140.947L92.6426 150.432L72.0859 129.659Z" fill="#3182CE"/>
<path fill-rule="evenodd" clip-rule="evenodd" d="M94.3875 129.704L103.774 120.219L117.885 134.478C117.729 137.363 116.837 139.627 115.21 141.272C113.582 142.917 111.345 143.814 108.499 143.963L94.3875 129.704Z" fill="#3182CE"/>
<path d="M92.7339 114.518C100.064 114.518 106.007 108.576 106.007 101.246C106.007 93.9154 100.064 87.973 92.7339 87.973C85.4036 87.973 79.4612 93.9154 79.4612 101.246C79.4612 108.576 85.4036 114.518 92.7339 114.518Z" fill="#C8D1E0"/>
<path fill-rule="evenodd" clip-rule="evenodd" d="M92.6481 64.8528C112.133 64.8528 127.928 80.7968 127.928 100.465C127.928 110.299 123.979 119.203 117.593 125.647L108.193 116.099C112.136 112.091 114.573 106.568 114.573 100.47C114.573 88.2302 104.757 78.3078 92.6481 78.3078C80.5395 78.3078 70.7235 88.2302 70.7235 100.47C70.7235 106.57 73.1615 112.094 77.1061 116.102L67.706 125.65C61.319 119.206 57.3684 110.301 57.3684 100.465C57.3684 80.7968 73.1637 64.8528 92.6481 64.8528Z" fill="#0F1758"/>
</g>
<g clip-path="url(#clip8)">
<path fill-rule="evenodd" clip-rule="evenodd" d="M355.796 225.769L342.467 225.117L343.59 195.914L356.918 196.565L355.796 225.769Z" fill="#3182CE"/>
<path fill-rule="evenodd" clip-rule="evenodd" d="M372.301 210.705L358.973 210.053L359.74 190.095C361.55 188.695 363.691 188.058 366.161 188.182C368.632 188.307 370.934 189.162 373.068 190.747L372.301 210.705Z" fill="#3182CE"/>
<path fill-rule="evenodd" clip-rule="evenodd" d="M372.795 197.387L372.283 210.722L343.093 209.294L343.606 195.96L372.795 197.387Z" fill="#3182CE"/>
<path fill-rule="evenodd" clip-rule="evenodd" d="M356.323 212.421L355.81 225.755L335.773 224.776C333.939 222.544 333.067 220.271 333.156 217.959C333.244 215.647 334.288 213.474 336.285 211.441L356.323 212.421Z" fill="#3182CE"/>
<path d="M367.801 222.499C362.397 227.452 362.03 235.848 366.982 241.252C371.935 246.657 380.33 247.023 385.735 242.071C391.139 237.119 391.506 228.723 386.554 223.318C381.601 217.914 373.205 217.547 367.801 222.499Z" fill="#C8D1E0"/>
<path fill-rule="evenodd" clip-rule="evenodd" d="M401.418 259.059C387.052 272.222 364.635 271.138 351.348 256.638C344.704 249.387 341.6 240.155 341.954 231.089L355.335 231.779C355.136 237.397 357.071 243.115 361.19 247.611C369.46 256.635 383.4 257.319 392.328 249.139C401.255 240.958 401.789 227.011 393.52 217.987C389.399 213.49 383.869 211.064 378.253 210.774L378.733 197.384C387.796 197.82 396.724 201.717 403.37 208.969C416.657 223.469 415.783 245.895 401.418 259.059Z" fill="#0F1758"/>
</g>
<g clip-path="url(#clip9)">
<path fill-rule="evenodd" clip-rule="evenodd" d="M264.259 132.18L277.483 130.392L281.702 159.311L268.478 161.099L264.259 132.18Z" fill="#3182CE"/>
<path fill-rule="evenodd" clip-rule="evenodd" d="M250.775 149.999L264 148.211L266.883 167.975C265.357 169.681 263.369 170.698 260.917 171.026C258.465 171.354 256.046 170.933 253.658 169.763L250.775 149.999Z" fill="#3182CE"/>
<path fill-rule="evenodd" clip-rule="evenodd" d="M252.717 163.184L250.79 149.98L279.752 146.064L281.678 159.268L252.717 163.184Z" fill="#3182CE"/>
<path fill-rule="evenodd" clip-rule="evenodd" d="M266.174 145.401L264.247 132.196L284.128 129.508C286.338 131.368 287.61 133.443 287.944 135.733C288.278 138.023 287.648 140.349 286.054 142.712L266.174 145.401Z" fill="#3182CE"/>
<path d="M253.051 137.582C257.462 131.728 256.293 123.406 250.439 118.995C244.584 114.583 236.262 115.753 231.851 121.607C227.439 127.461 228.609 135.783 234.463 140.195C240.317 144.606 248.639 143.437 253.051 137.582Z" fill="#C8D1E0"/>
<path fill-rule="evenodd" clip-rule="evenodd" d="M213.335 107.761C225.061 92.2002 247.3 89.1808 263.007 101.017C270.862 106.936 275.596 115.448 276.9 124.426L263.617 126.187C262.789 120.626 259.845 115.356 254.975 111.686C245.199 104.32 231.367 106.188 224.08 115.859C216.793 125.529 218.81 139.34 228.585 146.706C233.457 150.377 239.336 151.755 244.911 151.016L246.879 164.27C237.888 165.492 228.399 163.288 220.544 157.369C204.836 145.532 201.609 123.322 213.335 107.761Z" fill="#0F1758"/>
</g>
<g clip-path="url(#clip10)">
<path fill-rule="evenodd" clip-rule="evenodd" d="M115.303 332.563L127.819 337.192L117.967 364.706L105.451 360.077L115.303 332.563Z" fill="#3182CE"/>
<path fill-rule="evenodd" clip-rule="evenodd" d="M95.0323 341.966L107.548 346.596L100.815 365.399C98.6676 366.19 96.4343 366.154 94.1156 365.293C91.7968 364.431 89.8581 362.923 88.2995 360.77L95.0323 341.966Z" fill="#3182CE"/>
<path fill-rule="evenodd" clip-rule="evenodd" d="M90.5563 354.519L95.0548 341.955L122.464 352.094L117.966 364.658L90.5563 354.519Z" fill="#3182CE"/>
<path fill-rule="evenodd" clip-rule="evenodd" d="M110.787 345.134L115.286 332.571L134.101 339.531C135.179 342.211 135.328 344.64 134.548 346.819C133.768 348.997 132.119 350.756 129.603 352.094L110.787 345.134Z" fill="#3182CE"/>
<path d="M102.871 332.071C109.514 328.973 112.389 321.076 109.291 314.432C106.193 307.789 98.2958 304.914 91.6522 308.012C85.0087 311.11 82.1344 319.007 85.2323 325.651C88.3303 332.294 96.2273 335.169 102.871 332.071Z" fill="#C8D1E0"/>
<path fill-rule="evenodd" clip-rule="evenodd" d="M81.8037 287.094C99.4626 278.86 120.516 286.635 128.828 304.46C132.984 313.373 133.168 323.111 130.105 331.651L117.55 326.969C119.43 321.671 119.304 315.636 116.727 310.109C111.554 299.016 98.4641 294.171 87.49 299.289C76.5158 304.406 71.8129 317.547 76.9857 328.641C79.5637 334.169 84.1079 338.145 89.3766 340.11L84.8926 352.737C76.3803 349.595 69.0365 343.194 64.8796 334.28C56.5676 316.454 64.1447 295.329 81.8037 287.094Z" fill="#0F1758"/>
</g>
<defs>
<clipPath id="clip0">
<rect width="214.076" height="214.076" fill="white" transform="translate(284.229 391.478) rotate(-143.5)"/>
</clipPath>
<clipPath id="clip1">
<rect width="85.6305" height="85.6305" fill="white" transform="translate(135.63 194.63) rotate(-180)"/>
</clipPath>
<clipPath id="clip2">
<rect width="85.6305" height="85.6305" fill="white" transform="translate(96.5967 456.639) rotate(-140)"/>
</clipPath>
<clipPath id="clip3">
<rect width="85.6305" height="85.6305" fill="white" transform="translate(263.944 64.5879) rotate(3.58618)"/>
</clipPath>
<clipPath id="clip4">
<rect width="85.6305" height="85.6305" fill="white" transform="translate(420.255 128.655) rotate(77.5)"/>
</clipPath>
<clipPath id="clip5">
<rect width="85.6305" height="85.6305" fill="white" transform="translate(356.179 71) rotate(41)"/>
</clipPath>
<clipPath id="clip6">
<rect width="85.6305" height="85.6305" fill="white" transform="translate(203.995 327.482) rotate(93)"/>
</clipPath>
<clipPath id="clip7">
<rect width="85.6305" height="85.6305" fill="white" transform="translate(49.833 64.8528)"/>
</clipPath>
<clipPath id="clip8">
<rect width="85.6305" height="85.6305" fill="white" transform="translate(432.984 230.133) rotate(137.5)"/>
</clipPath>
<clipPath id="clip9">
<rect width="85.6305" height="85.6305" fill="white" transform="translate(187.568 141.955) rotate(-53)"/>
</clipPath>
<clipPath id="clip10">
<rect width="85.6305" height="85.6305" fill="white" transform="translate(43 305.189) rotate(-25)"/>
</clipPath>
</defs>
</svg>
