<svg width="500" height="500" viewBox="0 0 500 500" fill="none" xmlns="http://www.w3.org/2000/svg">
<path fill-rule="evenodd" clip-rule="evenodd" d="M289.046 293.97L321.932 327.201L249.913 399.977L217.027 366.746L289.046 293.97Z" fill="#3182CE"/>
<path fill-rule="evenodd" clip-rule="evenodd" d="M210.76 293.813L243.645 327.044L194.426 376.78C186.436 376.111 179.398 372.691 173.311 366.522C167.225 360.353 163.301 352.696 161.541 343.549L210.76 293.813Z" fill="#3182CE"/>
<path fill-rule="evenodd" clip-rule="evenodd" d="M177.962 327.044L210.847 293.813L282.866 366.589L249.981 399.82L177.962 327.044Z" fill="#3182CE"/>
<path fill-rule="evenodd" clip-rule="evenodd" d="M256.093 327.201L288.978 293.97L338.416 343.927C337.869 354.033 334.745 361.967 329.043 367.729C323.341 373.491 315.503 376.634 305.531 377.158L256.093 327.201Z" fill="#3182CE"/>
<path d="M250.3 274C275.981 274 296.8 253.181 296.8 227.5C296.8 201.819 275.981 181 250.3 181C224.619 181 203.8 201.819 203.8 227.5C203.8 253.181 224.619 274 250.3 274Z" fill="#C8D1E0"/>
<path fill-rule="evenodd" clip-rule="evenodd" d="M250 100C318.262 100 373.6 155.858 373.6 224.763C373.6 259.218 359.764 290.411 337.394 312.989L304.461 279.536C318.275 265.497 326.811 246.148 326.811 224.783C326.811 181.901 292.422 147.138 250 147.138C207.578 147.138 173.189 181.901 173.189 224.783C173.189 246.153 181.73 265.507 195.55 279.547L162.617 313C140.241 290.421 126.4 259.224 126.4 224.763C126.4 155.858 181.738 100 250 100Z" fill="#0F1758"/>
</svg>
