<svg width="500" height="500" viewBox="0 0 500 500" fill="none" xmlns="http://www.w3.org/2000/svg">
<g clip-path="url(#clip0)">
<path fill-rule="evenodd" clip-rule="evenodd" d="M165.181 131.503L193.695 131.652L194.021 194.097L165.508 193.948L165.181 131.503Z" fill="#3182CE"/>
<path fill-rule="evenodd" clip-rule="evenodd" d="M131.352 165.198L159.865 165.347L160.088 208.023C156.354 211.18 151.844 212.74 146.558 212.705C141.273 212.669 136.278 211.059 131.575 207.874L131.352 165.198Z" fill="#3182CE"/>
<path fill-rule="evenodd" clip-rule="evenodd" d="M131.538 193.674L131.389 165.16L193.834 165.487L193.983 194L131.538 193.674Z" fill="#3182CE"/>
<path fill-rule="evenodd" clip-rule="evenodd" d="M165.301 160.046L165.152 131.532L208.018 131.756C212.14 136.35 214.215 141.12 214.24 146.064C214.266 151.008 212.242 155.743 208.167 160.27L165.301 160.046Z" fill="#3182CE"/>
<path d="M139.859 139.601C150.935 128.525 150.935 110.568 139.859 99.4929C128.784 88.4175 110.827 88.4175 99.7516 99.4929C88.6762 110.568 88.6762 128.525 99.7516 139.601C110.827 150.676 128.784 150.676 139.859 139.601Z" fill="#C8D1E0"/>
<path fill-rule="evenodd" clip-rule="evenodd" d="M64.6897 64.6898C94.1289 35.2506 142.084 35.4753 171.8 65.1916C186.659 80.0507 194.145 99.47 194.234 118.854L165.605 118.63C165.507 106.618 160.844 94.5922 151.63 85.3782C133.137 66.8848 103.314 66.724 85.0189 85.019C66.7239 103.314 66.8847 133.137 85.3781 151.63C94.5945 160.847 106.625 165.51 118.64 165.605L118.864 194.235C99.4764 194.147 80.053 186.662 65.1915 171.8C35.4752 142.084 35.2506 94.129 64.6897 64.6898Z" fill="#0F1758"/>
</g>
<g clip-path="url(#clip1)">
<path fill-rule="evenodd" clip-rule="evenodd" d="M375.135 95.6752L360.939 94.3584L363.498 63.2405L377.694 64.5574L375.135 95.6752Z" fill="#3182CE"/>
<path fill-rule="evenodd" clip-rule="evenodd" d="M393.454 80.3662L379.258 79.0494L381.006 57.7829C383.004 56.3732 385.319 55.7923 387.95 56.0404C390.581 56.2884 392.998 57.3082 395.202 59.0998L393.454 80.3662Z" fill="#3182CE"/>
<path fill-rule="evenodd" clip-rule="evenodd" d="M394.602 66.1742L393.434 80.3833L362.344 77.4995L363.512 63.2904L394.602 66.1742Z" fill="#3182CE"/>
<path fill-rule="evenodd" clip-rule="evenodd" d="M376.319 81.4529L375.151 95.6619L353.809 93.6823C351.956 91.2144 351.131 88.7485 351.333 86.2847C351.536 83.8209 352.751 81.5504 354.978 79.4732L376.319 81.4529Z" fill="#3182CE"/>
<path d="M388.101 92.7453C382.101 97.7793 381.319 106.724 386.353 112.723C391.387 118.722 400.331 119.505 406.33 114.471C412.33 109.437 413.112 100.492 408.078 94.4931C403.044 88.4938 394.1 87.7113 388.101 92.7453Z" fill="#C8D1E0"/>
<path fill-rule="evenodd" clip-rule="evenodd" d="M422.278 133.334C406.332 146.715 382.455 144.513 368.948 128.416C362.195 120.368 359.313 110.369 360.113 100.709L374.363 102.069C373.888 108.056 375.687 114.249 379.875 119.24C388.28 129.258 403.128 130.638 413.038 122.322C422.948 114.007 424.168 99.1449 415.762 89.1275C411.573 84.1352 405.784 81.2882 399.803 80.7174L400.939 66.4472C410.592 67.3356 419.941 71.9104 426.696 79.9606C440.202 96.0572 438.225 119.953 422.278 133.334Z" fill="#0F1758"/>
</g>
<g clip-path="url(#clip2)">
<path fill-rule="evenodd" clip-rule="evenodd" d="M63.1706 371.96L48.9746 370.644L51.5332 339.526L65.7292 340.843L63.1706 371.96Z" fill="#3182CE"/>
<path fill-rule="evenodd" clip-rule="evenodd" d="M81.4895 356.651L67.2935 355.335L69.0421 334.068C71.0398 332.658 73.3543 332.078 75.9854 332.326C78.6165 332.574 81.0341 333.593 83.2381 335.385L81.4895 356.651Z" fill="#3182CE"/>
<path fill-rule="evenodd" clip-rule="evenodd" d="M82.6375 342.459L81.4692 356.668L50.3798 353.785L51.5481 339.576L82.6375 342.459Z" fill="#3182CE"/>
<path fill-rule="evenodd" clip-rule="evenodd" d="M64.3549 357.738L63.1865 371.947L41.8451 369.967C39.9918 367.5 39.1665 365.034 39.3691 362.57C39.5717 360.106 40.7864 357.836 43.0134 355.758L64.3549 357.738Z" fill="#3182CE"/>
<path d="M76.1364 369.031C70.1371 374.065 69.3546 383.009 74.3886 389.008C79.4226 395.007 88.3668 395.79 94.3661 390.756C100.365 385.722 101.148 376.778 96.1139 370.778C91.0799 364.779 82.1357 363.997 76.1364 369.031Z" fill="#C8D1E0"/>
<path fill-rule="evenodd" clip-rule="evenodd" d="M110.314 409.619C94.3672 423 70.4908 420.798 56.9841 404.702C50.2304 396.653 47.3482 386.654 48.1482 376.995L62.3988 378.354C61.9238 384.341 63.7225 390.535 67.9104 395.526C76.316 405.543 91.1638 406.923 101.074 398.607C110.984 390.292 112.203 375.43 103.798 365.413C99.6085 360.42 93.8195 357.573 87.839 357.003L88.9749 342.732C98.6281 343.621 107.977 348.196 114.731 356.246C128.238 372.342 126.26 396.238 110.314 409.619Z" fill="#0F1758"/>
</g>
<g clip-path="url(#clip3)">
<path fill-rule="evenodd" clip-rule="evenodd" d="M208.632 375.62L194.436 374.303L196.994 343.185L211.191 344.502L208.632 375.62Z" fill="#3182CE"/>
<path fill-rule="evenodd" clip-rule="evenodd" d="M226.951 360.311L212.755 358.994L214.503 337.728C216.501 336.318 218.816 335.737 221.447 335.985C224.078 336.233 226.495 337.253 228.699 339.044L226.951 360.311Z" fill="#3182CE"/>
<path fill-rule="evenodd" clip-rule="evenodd" d="M228.099 346.119L226.93 360.328L195.841 357.444L197.009 343.235L228.099 346.119Z" fill="#3182CE"/>
<path fill-rule="evenodd" clip-rule="evenodd" d="M209.816 361.397L208.648 375.606L187.306 373.627C185.453 371.159 184.628 368.693 184.83 366.229C185.033 363.765 186.248 361.495 188.475 359.418L209.816 361.397Z" fill="#3182CE"/>
<path d="M221.598 372.69C215.598 377.724 214.816 386.668 219.85 392.667C224.884 398.667 233.828 399.449 239.827 394.415C245.827 389.381 246.609 380.437 241.575 374.438C236.541 368.438 227.597 367.656 221.598 372.69Z" fill="#C8D1E0"/>
<path fill-rule="evenodd" clip-rule="evenodd" d="M255.775 413.278C239.829 426.659 215.952 424.457 202.445 408.361C195.692 400.312 192.81 390.313 193.61 380.654L207.86 382.013C207.385 388.001 209.184 394.194 213.372 399.185C221.777 409.202 236.625 410.582 246.535 402.267C256.445 393.951 257.664 379.09 249.259 369.072C245.07 364.08 239.281 361.233 233.3 360.662L234.436 346.392C244.089 347.28 253.438 351.855 260.193 359.905C273.699 376.002 271.722 399.898 255.775 413.278Z" fill="#0F1758"/>
</g>
<g clip-path="url(#clip4)">
<path fill-rule="evenodd" clip-rule="evenodd" d="M141.848 301.517L127.652 300.2L130.21 269.082L144.406 270.399L141.848 301.517Z" fill="#3182CE"/>
<path fill-rule="evenodd" clip-rule="evenodd" d="M160.167 286.208L145.971 284.891L147.719 263.625C149.717 262.215 152.032 261.634 154.663 261.882C157.294 262.13 159.711 263.15 161.915 264.941L160.167 286.208Z" fill="#3182CE"/>
<path fill-rule="evenodd" clip-rule="evenodd" d="M161.315 272.016L160.146 286.225L129.057 283.341L130.225 269.132L161.315 272.016Z" fill="#3182CE"/>
<path fill-rule="evenodd" clip-rule="evenodd" d="M143.032 287.294L141.864 301.504L120.522 299.524C118.669 297.056 117.844 294.59 118.046 292.126C118.249 289.663 119.464 287.392 121.691 285.315L143.032 287.294Z" fill="#3182CE"/>
<path d="M154.814 298.587C148.814 303.621 148.032 312.565 153.066 318.565C158.1 324.564 167.044 325.346 173.043 320.312C179.043 315.278 179.825 306.334 174.791 300.335C169.757 294.336 160.813 293.553 154.814 298.587Z" fill="#C8D1E0"/>
<path fill-rule="evenodd" clip-rule="evenodd" d="M188.991 339.176C173.044 352.556 149.168 350.355 135.661 334.258C128.908 326.209 126.025 316.21 126.825 306.551L141.076 307.91C140.601 313.898 142.4 320.091 146.588 325.082C154.993 335.099 169.841 336.479 179.751 328.164C189.661 319.848 190.88 304.987 182.475 294.969C178.286 289.977 172.497 287.13 166.516 286.559L167.652 272.289C177.305 273.177 186.654 277.752 193.409 285.802C206.915 301.899 204.937 325.795 188.991 339.176Z" fill="#0F1758"/>
</g>
<g clip-path="url(#clip5)">
<path fill-rule="evenodd" clip-rule="evenodd" d="M222.355 232.903L208.159 231.586L210.717 200.468L224.913 201.785L222.355 232.903Z" fill="#3182CE"/>
<path fill-rule="evenodd" clip-rule="evenodd" d="M240.674 217.594L226.478 216.277L228.226 195.011C230.224 193.601 232.538 193.02 235.17 193.268C237.801 193.516 240.218 194.536 242.422 196.328L240.674 217.594Z" fill="#3182CE"/>
<path fill-rule="evenodd" clip-rule="evenodd" d="M241.822 203.402L240.653 217.611L209.564 214.727L210.732 200.518L241.822 203.402Z" fill="#3182CE"/>
<path fill-rule="evenodd" clip-rule="evenodd" d="M223.539 218.681L222.371 232.89L201.029 230.91C199.176 228.442 198.351 225.976 198.553 223.512C198.756 221.049 199.971 218.778 202.198 216.701L223.539 218.681Z" fill="#3182CE"/>
<path d="M235.321 229.973C229.321 235.007 228.539 243.951 233.573 249.951C238.607 255.95 247.551 256.732 253.55 251.698C259.55 246.664 260.332 237.72 255.298 231.721C250.264 225.722 241.32 224.939 235.321 229.973Z" fill="#C8D1E0"/>
<path fill-rule="evenodd" clip-rule="evenodd" d="M269.498 270.562C253.551 283.942 229.675 281.741 216.168 265.644C209.415 257.595 206.532 247.596 207.332 237.937L221.583 239.296C221.108 245.284 222.907 251.477 227.095 256.468C235.5 266.486 250.348 267.865 260.258 259.55C270.168 251.234 271.387 236.373 262.982 226.355C258.793 221.363 253.004 218.516 247.023 217.945L248.159 203.675C257.812 204.563 267.161 209.138 273.916 217.188C287.422 233.285 285.444 257.181 269.498 270.562Z" fill="#0F1758"/>
</g>
<g clip-path="url(#clip6)">
<path fill-rule="evenodd" clip-rule="evenodd" d="M301.032 170.693L286.836 169.376L289.395 138.258L303.591 139.575L301.032 170.693Z" fill="#3182CE"/>
<path fill-rule="evenodd" clip-rule="evenodd" d="M319.351 155.384L305.155 154.067L306.903 132.801C308.901 131.391 311.216 130.81 313.847 131.058C316.478 131.306 318.895 132.326 321.099 134.118L319.351 155.384Z" fill="#3182CE"/>
<path fill-rule="evenodd" clip-rule="evenodd" d="M320.499 141.192L319.331 155.401L288.241 152.517L289.409 138.308L320.499 141.192Z" fill="#3182CE"/>
<path fill-rule="evenodd" clip-rule="evenodd" d="M302.216 156.471L301.048 170.68L279.706 168.7C277.853 166.232 277.028 163.766 277.23 161.303C277.433 158.839 278.648 156.568 280.875 154.491L302.216 156.471Z" fill="#3182CE"/>
<path d="M313.998 167.763C307.998 172.797 307.216 181.741 312.25 187.741C317.284 193.74 326.228 194.523 332.227 189.489C338.227 184.455 339.009 175.51 333.975 169.511C328.941 163.512 319.997 162.729 313.998 167.763Z" fill="#C8D1E0"/>
<path fill-rule="evenodd" clip-rule="evenodd" d="M348.175 208.352C332.229 221.732 308.352 219.531 294.845 203.434C288.092 195.385 285.21 185.386 286.01 175.727L300.26 177.087C299.785 183.074 301.584 189.267 305.772 194.258C314.177 204.276 329.025 205.655 338.935 197.34C348.845 189.025 350.065 174.163 341.659 164.145C337.47 159.153 331.681 156.306 325.7 155.735L326.836 141.465C336.489 142.354 345.838 146.928 352.593 154.978C366.099 171.075 364.122 194.971 348.175 208.352Z" fill="#0F1758"/>
</g>
<g clip-path="url(#clip7)">
<path fill-rule="evenodd" clip-rule="evenodd" d="M290.968 313.41L276.772 312.093L279.331 280.975L293.527 282.292L290.968 313.41Z" fill="#3182CE"/>
<path fill-rule="evenodd" clip-rule="evenodd" d="M309.287 298.101L295.091 296.784L296.84 275.518C298.838 274.108 301.152 273.527 303.783 273.775C306.414 274.023 308.832 275.043 311.036 276.834L309.287 298.101Z" fill="#3182CE"/>
<path fill-rule="evenodd" clip-rule="evenodd" d="M310.435 283.909L309.267 298.118L278.178 295.234L279.346 281.025L310.435 283.909Z" fill="#3182CE"/>
<path fill-rule="evenodd" clip-rule="evenodd" d="M292.153 299.187L290.984 313.396L269.643 311.417C267.79 308.949 266.964 306.483 267.167 304.019C267.37 301.555 268.584 299.285 270.811 297.208L292.153 299.187Z" fill="#3182CE"/>
<path d="M303.934 310.48C297.935 315.514 297.152 324.458 302.186 330.457C307.22 336.457 316.165 337.239 322.164 332.205C328.163 327.171 328.946 318.227 323.912 312.228C318.878 306.228 309.934 305.446 303.934 310.48Z" fill="#C8D1E0"/>
<path fill-rule="evenodd" clip-rule="evenodd" d="M338.112 351.069C322.165 364.449 298.289 362.248 284.782 346.151C278.028 338.102 275.146 328.103 275.946 318.444L290.197 319.803C289.722 325.791 291.52 331.984 295.708 336.975C304.114 346.992 318.962 348.372 328.872 340.057C338.782 331.741 340.001 316.88 331.595 306.862C327.406 301.87 321.617 299.023 315.637 298.452L316.773 284.182C326.426 285.07 335.774 289.645 342.529 297.695C356.036 313.792 354.058 337.688 338.112 351.069Z" fill="#0F1758"/>
</g>
<g clip-path="url(#clip8)">
<path fill-rule="evenodd" clip-rule="evenodd" d="M381.539 242.966L367.343 241.65L369.901 210.532L384.097 211.849L381.539 242.966Z" fill="#3182CE"/>
<path fill-rule="evenodd" clip-rule="evenodd" d="M399.858 227.657L385.662 226.34L387.41 205.074C389.408 203.664 391.722 203.083 394.354 203.332C396.985 203.58 399.402 204.599 401.606 206.391L399.858 227.657Z" fill="#3182CE"/>
<path fill-rule="evenodd" clip-rule="evenodd" d="M401.006 213.465L399.837 227.674L368.748 224.791L369.916 210.582L401.006 213.465Z" fill="#3182CE"/>
<path fill-rule="evenodd" clip-rule="evenodd" d="M382.723 228.744L381.555 242.953L360.213 240.973C358.36 238.505 357.535 236.04 357.737 233.576C357.94 231.112 359.155 228.841 361.382 226.764L382.723 228.744Z" fill="#3182CE"/>
<path d="M394.505 240.036C388.505 245.07 387.723 254.015 392.757 260.014C397.791 266.013 406.735 266.796 412.734 261.762C418.734 256.728 419.516 247.784 414.482 241.784C409.448 235.785 400.504 235.002 394.505 240.036Z" fill="#C8D1E0"/>
<path fill-rule="evenodd" clip-rule="evenodd" d="M428.682 280.625C412.735 294.006 388.859 291.804 375.352 275.707C368.599 267.659 365.716 257.66 366.516 248.001L380.767 249.36C380.292 255.347 382.091 261.541 386.279 266.532C394.684 276.549 409.532 277.929 419.442 269.613C429.352 261.298 430.571 246.436 422.166 236.419C417.977 231.426 412.188 228.579 406.207 228.009L407.343 213.738C416.996 214.627 426.345 219.202 433.1 227.252C446.606 243.348 444.628 267.244 428.682 280.625Z" fill="#0F1758"/>
</g>
<g clip-path="url(#clip9)">
<path fill-rule="evenodd" clip-rule="evenodd" d="M370.561 382.939L356.365 381.622L358.923 350.504L373.119 351.821L370.561 382.939Z" fill="#3182CE"/>
<path fill-rule="evenodd" clip-rule="evenodd" d="M388.88 367.63L374.683 366.313L376.432 345.046C378.43 343.637 380.744 343.056 383.375 343.304C386.007 343.552 388.424 344.572 390.628 346.363L388.88 367.63Z" fill="#3182CE"/>
<path fill-rule="evenodd" clip-rule="evenodd" d="M390.028 353.438L388.859 367.647L357.77 364.763L358.938 350.554L390.028 353.438Z" fill="#3182CE"/>
<path fill-rule="evenodd" clip-rule="evenodd" d="M371.745 368.716L370.577 382.925L349.235 380.946C347.382 378.478 346.557 376.012 346.759 373.548C346.962 371.084 348.176 368.814 350.403 366.737L371.745 368.716Z" fill="#3182CE"/>
<path d="M383.526 380.009C377.527 385.043 376.745 393.987 381.779 399.986C386.813 405.985 395.757 406.768 401.756 401.734C407.755 396.7 408.538 387.756 403.504 381.756C398.47 375.757 389.526 374.975 383.526 380.009Z" fill="#C8D1E0"/>
<path fill-rule="evenodd" clip-rule="evenodd" d="M417.704 420.597C401.757 433.978 377.881 431.776 364.374 415.68C357.62 407.631 354.738 397.632 355.538 387.973L369.789 389.332C369.314 395.319 371.113 401.513 375.3 406.504C383.706 416.521 398.554 417.901 408.464 409.585C418.374 401.27 419.593 386.408 411.188 376.391C406.999 371.399 401.21 368.552 395.229 367.981L396.365 353.711C406.018 354.599 415.367 359.174 422.121 367.224C435.628 383.321 433.65 407.217 417.704 420.597Z" fill="#0F1758"/>
</g>
<defs>
<clipPath id="clip0">
<rect width="182.97" height="182.97" fill="white" transform="translate(0 129.38) rotate(-45)"/>
</clipPath>
<clipPath id="clip1">
<rect width="91.4851" height="91.4851" fill="white" transform="translate(457.319 103.931) rotate(140)"/>
</clipPath>
<clipPath id="clip2">
<rect width="91.4851" height="91.4851" fill="white" transform="translate(145.355 380.216) rotate(140)"/>
</clipPath>
<clipPath id="clip3">
<rect width="91.4851" height="91.4851" fill="white" transform="translate(290.816 383.876) rotate(140)"/>
</clipPath>
<clipPath id="clip4">
<rect width="91.4851" height="91.4851" fill="white" transform="translate(224.032 309.773) rotate(140)"/>
</clipPath>
<clipPath id="clip5">
<rect width="91.4851" height="91.4851" fill="white" transform="translate(304.539 241.159) rotate(140)"/>
</clipPath>
<clipPath id="clip6">
<rect width="91.4851" height="91.4851" fill="white" transform="translate(383.216 178.949) rotate(140)"/>
</clipPath>
<clipPath id="clip7">
<rect width="91.4851" height="91.4851" fill="white" transform="translate(373.152 321.666) rotate(140)"/>
</clipPath>
<clipPath id="clip8">
<rect width="91.4851" height="91.4851" fill="white" transform="translate(463.723 251.222) rotate(140)"/>
</clipPath>
<clipPath id="clip9">
<rect width="91.4851" height="91.4851" fill="white" transform="translate(452.745 391.195) rotate(140)"/>
</clipPath>
</defs>
</svg>
