<svg width="500" height="500" viewBox="0 0 500 500" fill="none" xmlns="http://www.w3.org/2000/svg">
<path fill-rule="evenodd" clip-rule="evenodd" d="M323.283 184.923L378.668 130.114L499.961 250.146L444.576 304.954L323.283 184.923Z" fill="#2AD78B"/>
<path fill-rule="evenodd" clip-rule="evenodd" d="M323.022 315.401L378.407 260.592L461.301 342.623C460.185 355.94 454.486 367.67 444.204 377.815C433.922 387.959 421.159 394.498 405.916 397.432L323.022 315.401Z" fill="#2AD78B"/>
<path fill-rule="evenodd" clip-rule="evenodd" d="M378.407 370.064L323.022 315.255L444.315 195.224L499.7 250.033L378.407 370.064Z" fill="#2AD78B"/>
<path fill-rule="evenodd" clip-rule="evenodd" d="M378.668 239.845L323.283 185.036L406.545 102.64C423.388 103.551 436.612 108.758 446.215 118.262C455.819 127.766 461.057 140.828 461.93 157.449L378.668 239.845Z" fill="#2AD78B"/>
<path d="M290 249.5C290 206.698 255.302 172 212.5 172C169.698 172 135 206.698 135 249.5C135 292.302 169.698 327 212.5 327C255.302 327 290 292.302 290 249.5Z" fill="#C8D1E0"/>
<path fill-rule="evenodd" clip-rule="evenodd" d="M0 250C0 136.229 93.0975 44 207.939 44C265.363 44 317.351 67.0603 354.981 104.343L299.227 159.231C275.829 136.209 243.579 121.981 207.971 121.981C136.502 121.981 78.564 179.297 78.564 250C78.564 320.703 136.502 378.019 207.971 378.019C243.589 378.019 275.846 363.784 299.245 340.75L355 395.638C317.368 432.932 265.373 456 207.939 456C93.0975 456 0 363.771 0 250Z" fill="#0F1758"/>
</svg>
