<svg width="500" height="500" viewBox="0 0 500 500" fill="none" xmlns="http://www.w3.org/2000/svg">
<path fill-rule="evenodd" clip-rule="evenodd" d="M315.077 323.283L369.886 378.668L249.854 499.961L195.046 444.576L315.077 323.283Z" fill="#2AD78B"/>
<path fill-rule="evenodd" clip-rule="evenodd" d="M184.599 323.022L239.408 378.407L157.377 461.301C144.06 460.185 132.33 454.486 122.185 444.204C112.041 433.922 105.502 421.159 102.568 405.916L184.599 323.022Z" fill="#2AD78B"/>
<path fill-rule="evenodd" clip-rule="evenodd" d="M129.936 378.407L184.745 323.022L304.776 444.315L249.967 499.7L129.936 378.407Z" fill="#2AD78B"/>
<path fill-rule="evenodd" clip-rule="evenodd" d="M260.155 378.668L314.964 323.283L397.36 406.545C396.449 423.388 391.242 436.612 381.738 446.215C372.234 455.819 359.172 461.057 342.551 461.93L260.155 378.668Z" fill="#2AD78B"/>
<path d="M250.5 290C293.302 290 328 255.302 328 212.5C328 169.698 293.302 135 250.5 135C207.698 135 173 169.698 173 212.5C173 255.302 207.698 290 250.5 290Z" fill="#C8D1E0"/>
<path fill-rule="evenodd" clip-rule="evenodd" d="M250 0C363.771 0 456 93.0975 456 207.939C456 265.363 432.94 317.351 395.657 354.981L340.769 299.227C363.791 275.829 378.019 243.579 378.019 207.971C378.019 136.502 320.703 78.564 250 78.564C179.297 78.564 121.981 136.502 121.981 207.971C121.981 243.589 136.216 275.846 159.25 299.245L104.362 355C67.0679 317.368 44 265.373 44 207.939C44 93.0975 136.229 0 250 0Z" fill="#0F1758"/>
</svg>
