<svg width="500" height="500" viewBox="0 0 500 500" fill="none" xmlns="http://www.w3.org/2000/svg">
<g clip-path="url(#clip0)">
<path fill-rule="evenodd" clip-rule="evenodd" d="M223.969 271.119L202.046 248.965L250.058 200.447L271.982 222.601L223.969 271.119Z" fill="#3182CE"/>
<path fill-rule="evenodd" clip-rule="evenodd" d="M276.16 271.223L254.237 249.069L287.049 215.912C292.376 216.358 297.068 218.638 301.126 222.75C305.184 226.863 307.799 231.968 308.973 238.066L276.16 271.223Z" fill="#3182CE"/>
<path fill-rule="evenodd" clip-rule="evenodd" d="M298.026 249.069L276.102 271.223L228.09 222.706L250.013 200.552L298.026 249.069Z" fill="#3182CE"/>
<path fill-rule="evenodd" clip-rule="evenodd" d="M245.938 248.965L224.014 271.119L191.056 237.814C191.42 231.076 193.503 225.787 197.305 221.946C201.106 218.104 206.331 216.009 212.98 215.66L245.938 248.965Z" fill="#3182CE"/>
<path d="M249.8 284.432C232.679 284.432 218.8 298.311 218.8 315.432C218.8 332.553 232.679 346.432 249.8 346.432C266.921 346.432 280.8 332.553 280.8 315.432C280.8 298.311 266.921 284.432 249.8 284.432Z" fill="#C8D1E0"/>
<path fill-rule="evenodd" clip-rule="evenodd" d="M250 400.432C204.492 400.432 167.6 363.193 167.6 317.256C167.6 294.286 176.824 273.491 191.737 258.439L213.693 280.741C204.484 290.1 198.793 303 198.793 317.243C198.793 345.831 221.719 369.006 250 369.006C278.281 369.006 301.208 345.831 301.208 317.243C301.208 302.996 295.514 290.093 286.3 280.734L308.255 258.432C323.173 273.484 332.4 294.283 332.4 317.256C332.4 363.193 295.508 400.432 250 400.432Z" fill="#0F1758"/>
</g>
<g clip-path="url(#clip1)">
<path fill-rule="evenodd" clip-rule="evenodd" d="M276.031 229.313L297.954 251.467L249.942 299.984L228.018 277.83L276.031 229.313Z" fill="#3182CE"/>
<path fill-rule="evenodd" clip-rule="evenodd" d="M223.84 229.209L245.763 251.363L212.951 284.52C207.624 284.074 202.932 281.794 198.874 277.681C194.816 273.569 192.201 268.464 191.027 262.366L223.84 229.209Z" fill="#3182CE"/>
<path fill-rule="evenodd" clip-rule="evenodd" d="M201.974 251.363L223.898 229.209L271.91 277.726L249.987 299.88L201.974 251.363Z" fill="#3182CE"/>
<path fill-rule="evenodd" clip-rule="evenodd" d="M254.062 251.467L275.986 229.313L308.944 262.618C308.579 269.355 306.497 274.645 302.695 278.486C298.894 282.327 293.669 284.423 287.02 284.772L254.062 251.467Z" fill="#3182CE"/>
<path d="M250.2 216C267.321 216 281.2 202.121 281.2 185C281.2 167.879 267.321 154 250.2 154C233.079 154 219.2 167.879 219.2 185C219.2 202.121 233.079 216 250.2 216Z" fill="#C8D1E0"/>
<path fill-rule="evenodd" clip-rule="evenodd" d="M250 100C295.508 100 332.4 137.239 332.4 183.176C332.4 206.145 323.176 226.94 308.263 241.992L286.307 219.691C295.516 210.331 301.207 197.432 301.207 183.188C301.207 154.601 278.281 131.426 250 131.426C221.719 131.426 198.792 154.601 198.792 183.188C198.792 197.435 204.486 210.338 213.7 219.698L191.745 242C176.827 226.947 167.6 206.149 167.6 183.176C167.6 137.239 204.492 100 250 100Z" fill="#0F1758"/>
</g>
<defs>
<clipPath id="clip0">
<rect width="200" height="200" fill="white" transform="translate(350 400.432) rotate(-180)"/>
</clipPath>
<clipPath id="clip1">
<rect width="200" height="200" fill="white" transform="translate(150 100)"/>
</clipPath>
</defs>
</svg>
