<svg width="500" height="500" viewBox="0 0 500 500" fill="none" xmlns="http://www.w3.org/2000/svg">
<g clip-path="url(#clip0)">
<g clip-path="url(#clip1)">
<path fill-rule="evenodd" clip-rule="evenodd" d="M257.239 203.791L251.682 165.23L336 152.177L341.557 190.739L257.239 203.791Z" fill="#2AD78B"/>
<path fill-rule="evenodd" clip-rule="evenodd" d="M309.604 242.702L304.047 204.14L361.671 195.22C366.692 199.629 369.712 205.408 370.731 212.558C371.751 219.708 370.583 226.782 367.229 233.781L309.604 242.702Z" fill="#2AD78B"/>
<path fill-rule="evenodd" clip-rule="evenodd" d="M348.047 236.698L309.546 242.658L297.376 158.209L335.877 152.249L348.047 236.698Z" fill="#2AD78B"/>
<path fill-rule="evenodd" clip-rule="evenodd" d="M295.786 197.865L257.285 203.825L248.931 145.854C254.306 139.355 260.332 135.589 267.008 134.556C273.684 133.522 280.492 135.302 287.432 139.894L295.786 197.865Z" fill="#2AD78B"/>
<path d="M273.296 236.375C256.092 223.645 231.827 227.271 219.097 244.475C206.367 261.678 209.994 285.944 227.197 298.674C244.4 311.403 268.666 307.777 281.396 290.574C294.126 273.37 290.499 249.104 273.296 236.375Z" fill="#C8D1E0"/>
<path fill-rule="evenodd" clip-rule="evenodd" d="M187.248 353.083C141.52 319.246 132.139 254.397 166.294 208.239C183.372 185.159 208.103 171.122 234.279 167.086L239.758 205.819C223.546 208.376 208.236 217.107 197.646 231.419C176.39 260.144 182.196 300.478 210.613 321.506C239.031 342.533 279.299 336.293 300.555 307.567C311.148 293.252 315.02 276.053 312.722 259.798L351.365 253.713C355.162 279.929 348.97 307.688 331.888 330.773C297.733 376.931 232.975 386.919 187.248 353.083Z" fill="#0F1758"/>
</g>
<g clip-path="url(#clip2)">
<path fill-rule="evenodd" clip-rule="evenodd" d="M50.9847 181.343L40.0229 170.266L64.0292 146.008L74.9909 157.085L50.9847 181.343Z" fill="#2AD78B"/>
<path fill-rule="evenodd" clip-rule="evenodd" d="M77.0801 181.396L66.1184 170.319L82.5246 153.74C85.188 153.963 87.5341 155.103 89.5629 157.159C91.5918 159.216 92.8996 161.768 93.4864 164.817L77.0801 181.396Z" fill="#2AD78B"/>
<path fill-rule="evenodd" clip-rule="evenodd" d="M88.0128 170.319L77.0511 181.396L53.0448 157.137L64.0066 146.06L88.0128 170.319Z" fill="#2AD78B"/>
<path fill-rule="evenodd" clip-rule="evenodd" d="M61.969 170.266L51.0072 181.343L34.528 164.691C34.7102 161.322 35.7517 158.678 37.6524 156.757C39.5532 154.836 42.1656 153.789 45.4898 153.614L61.969 170.266Z" fill="#2AD78B"/>
<path d="M63.9 188C55.3396 188 48.4 194.94 48.4 203.5C48.4 212.06 55.3396 219 63.9 219C72.4604 219 79.4 212.06 79.4 203.5C79.4 194.94 72.4604 188 63.9 188Z" fill="#C8D1E0"/>
<path fill-rule="evenodd" clip-rule="evenodd" d="M64 246C41.2459 246 22.8 227.381 22.8 204.412C22.8 192.927 27.4121 182.53 34.8687 175.004L45.8462 186.155C41.2418 190.834 38.3962 197.284 38.3962 204.406C38.3962 218.7 49.8594 230.287 64 230.287C78.1406 230.287 89.6038 218.7 89.6038 204.406C89.6038 197.282 86.7567 190.831 82.1501 186.151L93.1277 175C100.586 182.526 105.2 192.925 105.2 204.412C105.2 227.381 86.7541 246 64 246Z" fill="#0F1758"/>
</g>
<g clip-path="url(#clip3)">
<path fill-rule="evenodd" clip-rule="evenodd" d="M56.8713 429.144L56.9527 413.56L91.0811 413.381L90.9997 428.965L56.8713 429.144Z" fill="#2AD78B"/>
<path fill-rule="evenodd" clip-rule="evenodd" d="M75.2867 447.633L75.3681 432.049L98.692 431.927C100.417 433.968 101.27 436.433 101.251 439.322C101.232 442.211 100.351 444.94 98.6105 447.511L75.2867 447.633Z" fill="#2AD78B"/>
<path fill-rule="evenodd" clip-rule="evenodd" d="M90.8498 447.531L75.2661 447.612L75.4445 413.484L91.0282 413.402L90.8498 447.531Z" fill="#2AD78B"/>
<path fill-rule="evenodd" clip-rule="evenodd" d="M72.471 429.078L56.8873 429.16L57.0097 405.732C59.5206 403.479 62.1271 402.345 64.8292 402.331C67.5314 402.317 70.1195 403.423 72.5935 405.651L72.471 429.078Z" fill="#2AD78B"/>
<path d="M61.2968 442.983C55.2437 436.93 45.4296 436.93 39.3765 442.983C33.3234 449.036 33.3234 458.85 39.3765 464.903C45.4296 470.957 55.2437 470.957 61.2968 464.903C67.35 458.85 67.35 449.036 61.2968 442.983Z" fill="#C8D1E0"/>
<path fill-rule="evenodd" clip-rule="evenodd" d="M20.3554 484.066C4.26576 467.976 4.38853 441.767 20.6296 425.526C28.7506 417.405 39.364 413.314 49.9583 413.265L49.8358 428.912C43.2709 428.965 36.6981 431.514 31.6623 436.55C21.555 446.657 21.4671 462.957 31.466 472.955C41.4649 482.954 57.7642 482.866 67.8715 472.759C72.9087 467.722 75.4573 461.147 75.5091 454.58L91.1563 454.458C91.1085 465.054 87.0176 475.669 78.8952 483.792C62.6541 500.033 36.445 500.156 20.3554 484.066Z" fill="#0F1758"/>
</g>
<g clip-path="url(#clip4)">
<path fill-rule="evenodd" clip-rule="evenodd" d="M436.061 145.998L432.343 161.133L399.116 153.339L402.834 138.205L436.061 145.998Z" fill="#2AD78B"/>
<path fill-rule="evenodd" clip-rule="evenodd" d="M422.47 123.721L418.753 138.855L396.045 133.529C394.844 131.141 394.59 128.546 395.283 125.741C395.976 122.937 397.47 120.488 399.762 118.395L422.47 123.721Z" fill="#2AD78B"/>
<path fill-rule="evenodd" clip-rule="evenodd" d="M407.313 120.187L422.486 123.746L414.345 156.89L399.173 153.331L407.313 120.187Z" fill="#2AD78B"/>
<path fill-rule="evenodd" clip-rule="evenodd" d="M420.877 142.42L436.049 145.979L430.461 168.731C427.493 170.336 424.694 170.83 422.063 170.212C419.433 169.595 417.174 167.915 415.289 165.172L420.877 142.42Z" fill="#2AD78B"/>
<path d="M434.988 131.508C439.461 138.807 449.004 141.098 456.303 136.625C463.602 132.153 465.893 122.61 461.42 115.311C456.947 108.012 447.404 105.721 440.105 110.194C432.806 114.666 430.515 124.209 434.988 131.508Z" fill="#C8D1E0"/>
<path fill-rule="evenodd" clip-rule="evenodd" d="M484.389 101.118C496.278 120.519 490.04 145.975 470.457 157.976C460.664 163.977 449.389 165.477 439.076 163.052L442.848 147.866C449.244 149.347 456.23 148.403 462.302 144.682C474.49 137.213 478.38 121.385 470.992 109.328C463.603 97.2711 447.734 93.5515 435.546 101.02C429.472 104.742 425.459 110.54 423.876 116.914L408.632 113.38C411.152 103.088 417.609 93.7206 427.403 87.7188C446.986 75.7179 472.5 81.7169 484.389 101.118Z" fill="#0F1758"/>
</g>
<g clip-path="url(#clip5)">
<path fill-rule="evenodd" clip-rule="evenodd" d="M134.23 428.779L122.595 439.146L99.626 413.903L111.262 403.536L134.23 428.779Z" fill="#2AD78B"/>
<path fill-rule="evenodd" clip-rule="evenodd" d="M135.648 402.722L124.013 413.089L108.315 395.837C108.678 393.189 109.939 390.906 112.099 388.988C114.258 387.069 116.876 385.897 119.951 385.47L135.648 402.722Z" fill="#2AD78B"/>
<path fill-rule="evenodd" clip-rule="evenodd" d="M125.159 391.224L135.647 402.751L110.165 425.455L99.677 413.928L125.159 391.224Z" fill="#2AD78B"/>
<path fill-rule="evenodd" clip-rule="evenodd" d="M123.744 417.23L134.232 428.756L116.74 444.341C113.385 443.983 110.799 442.805 108.98 440.806C107.161 438.807 106.252 436.144 106.252 432.815L123.744 417.23Z" fill="#2AD78B"/>
<path d="M141.554 416.23C141.106 424.778 147.673 432.071 156.222 432.519C164.77 432.968 172.064 426.401 172.512 417.852C172.96 409.303 166.393 402.01 157.844 401.562C149.295 401.114 142.002 407.681 141.554 416.23Z" fill="#C8D1E0"/>
<path fill-rule="evenodd" clip-rule="evenodd" d="M199.48 419.165C198.289 441.888 178.73 459.334 155.793 458.132C144.324 457.531 134.182 452.381 127.056 444.541L138.766 434.162C143.199 439.005 149.491 442.184 156.602 442.557C170.877 443.305 183.048 432.464 183.788 418.343C184.529 404.222 173.557 392.168 159.282 391.42C152.169 391.047 145.577 393.552 140.663 397.908L130.101 386.361C138.008 379.307 148.634 375.244 160.105 375.845C183.042 377.047 200.671 396.442 199.48 419.165Z" fill="#0F1758"/>
</g>
<g clip-path="url(#clip6)">
<path fill-rule="evenodd" clip-rule="evenodd" d="M77.0153 110.657L87.9771 121.734L63.9708 145.992L53.0091 134.915L77.0153 110.657Z" fill="#2AD78B"/>
<path fill-rule="evenodd" clip-rule="evenodd" d="M50.9199 110.604L61.8816 121.681L45.4754 138.26C42.812 138.037 40.4659 136.897 38.4371 134.841C36.4082 132.784 35.1004 130.232 34.5136 127.183L50.9199 110.604Z" fill="#2AD78B"/>
<path fill-rule="evenodd" clip-rule="evenodd" d="M39.9872 121.681L50.9489 110.604L74.9552 134.863L63.9934 145.94L39.9872 121.681Z" fill="#2AD78B"/>
<path fill-rule="evenodd" clip-rule="evenodd" d="M66.031 121.734L76.9928 110.657L93.4719 127.309C93.2898 130.678 92.2483 133.322 90.3476 135.243C88.4468 137.164 85.8344 138.211 82.5102 138.386L66.031 121.734Z" fill="#2AD78B"/>
<path d="M64.1 104C72.6604 104 79.6 97.0604 79.6 88.5C79.6 79.9396 72.6604 73 64.1 73C55.5396 73 48.6 79.9396 48.6 88.5C48.6 97.0604 55.5396 104 64.1 104Z" fill="#C8D1E0"/>
<path fill-rule="evenodd" clip-rule="evenodd" d="M64 46C86.7541 46 105.2 64.6195 105.2 87.5878C105.2 99.0727 100.588 109.47 93.1313 116.996L82.1537 105.845C86.7582 101.166 89.6037 94.7159 89.6037 87.5942C89.6037 73.3003 78.1405 61.7128 64 61.7128C49.8594 61.7128 38.3962 73.3003 38.3962 87.5942C38.3962 94.7178 41.2432 101.169 45.8499 105.849L34.8723 117C27.4136 109.474 22.8 99.0746 22.8 87.5878C22.8 64.6195 41.2458 46 64 46Z" fill="#0F1758"/>
</g>
<g clip-path="url(#clip7)">
<path fill-rule="evenodd" clip-rule="evenodd" d="M410.901 227.657L397.115 220.389L412.716 190.034L426.501 197.302L410.901 227.657Z" fill="#2AD78B"/>
<path fill-rule="evenodd" clip-rule="evenodd" d="M435.804 219.86L422.019 212.592L432.681 191.847C435.288 191.259 437.868 191.64 440.421 192.991C442.975 194.342 444.99 196.384 446.466 199.115L435.804 219.86Z" fill="#2AD78B"/>
<path fill-rule="evenodd" clip-rule="evenodd" d="M442.9 206.008L435.777 219.868L405.587 203.951L412.71 190.091L442.9 206.008Z" fill="#2AD78B"/>
<path fill-rule="evenodd" clip-rule="evenodd" d="M418.046 213.789L410.922 227.65L390.198 216.724C389.359 213.456 389.557 210.621 390.792 208.217C392.028 205.814 394.204 204.029 397.322 202.863L418.046 213.789Z" fill="#2AD78B"/>
<path d="M425.22 230.122C417.056 232.696 412.524 241.401 415.098 249.565C417.673 257.729 426.378 262.261 434.542 259.687C442.706 257.113 447.238 248.408 444.664 240.243C442.089 232.079 433.384 227.547 425.22 230.122Z" fill="#C8D1E0"/>
<path fill-rule="evenodd" clip-rule="evenodd" d="M442.756 285.407C421.055 292.249 397.864 280.038 390.958 258.133C387.504 247.18 388.776 235.877 393.624 226.457L407.447 233.791C404.463 239.638 403.689 246.645 405.83 253.437C410.128 267.07 424.545 274.674 438.031 270.422C451.518 266.169 458.966 251.671 454.668 238.039C452.525 231.245 447.87 225.948 442.07 222.87L449.186 208.934C458.563 213.869 466.09 222.4 469.544 233.355C476.451 255.26 464.457 278.565 442.756 285.407Z" fill="#0F1758"/>
</g>
<g clip-path="url(#clip8)">
<path fill-rule="evenodd" clip-rule="evenodd" d="M276.756 73.4882L292.181 71.2654L297.402 104.993L281.977 107.215L276.756 73.4882Z" fill="#2AD78B"/>
<path fill-rule="evenodd" clip-rule="evenodd" d="M261.192 94.4342L276.617 92.2114L280.185 115.261C278.421 117.269 276.11 118.477 273.25 118.885C270.39 119.293 267.56 118.826 264.76 117.484L261.192 94.4342Z" fill="#2AD78B"/>
<path fill-rule="evenodd" clip-rule="evenodd" d="M263.594 109.811L261.21 94.4108L294.99 89.5428L297.373 104.943L263.594 109.811Z" fill="#2AD78B"/>
<path fill-rule="evenodd" clip-rule="evenodd" d="M279.127 88.9069L276.743 73.5064L299.931 70.1647C302.531 72.3149 304.037 74.7252 304.451 77.3956C304.864 80.066 304.152 82.7892 302.315 85.5652L279.127 88.9069Z" fill="#2AD78B"/>
<path d="M263.723 79.9109C268.815 73.0295 267.364 63.3233 260.483 58.2313C253.602 53.1394 243.895 54.59 238.803 61.4714C233.712 68.3527 235.162 78.059 242.044 83.1509C248.925 88.2428 258.631 86.7922 263.723 79.9109Z" fill="#C8D1E0"/>
<path fill-rule="evenodd" clip-rule="evenodd" d="M217.04 45.4915C230.575 27.2004 256.514 23.4479 274.977 37.11C284.209 43.9415 289.824 53.8336 291.439 64.3043L275.945 66.4959C274.922 60.011 271.43 53.8871 265.705 49.6509C254.215 41.1486 238.082 43.4708 229.671 54.8378C221.26 66.2048 223.756 82.3121 235.246 90.8145C240.972 95.0517 247.852 96.6005 254.354 95.6812L256.788 111.138C246.301 112.657 235.198 110.18 225.964 103.348C207.501 89.6857 203.505 63.7826 217.04 45.4915Z" fill="#0F1758"/>
</g>
<g clip-path="url(#clip9)">
<path fill-rule="evenodd" clip-rule="evenodd" d="M89.7009 358.494L104.317 363.9L92.812 396.031L78.1959 390.625L89.7009 358.494Z" fill="#2AD78B"/>
<path fill-rule="evenodd" clip-rule="evenodd" d="M66.0282 369.475L80.6443 374.881L72.7816 396.84C70.2735 397.764 67.6655 397.722 64.9577 396.716C62.2498 395.71 59.9858 393.949 58.1656 391.434L66.0282 369.475Z" fill="#2AD78B"/>
<path fill-rule="evenodd" clip-rule="evenodd" d="M60.8012 384.134L66.0546 369.462L98.0638 381.303L92.8104 395.974L60.8012 384.134Z" fill="#2AD78B"/>
<path fill-rule="evenodd" clip-rule="evenodd" d="M84.4269 373.175L89.6803 358.503L111.653 366.631C112.912 369.761 113.086 372.598 112.175 375.142C111.264 377.686 109.339 379.74 106.4 381.303L84.4269 373.175Z" fill="#2AD78B"/>
<path d="M75.1823 357.919C82.9407 354.301 86.2973 345.079 82.6795 337.321C79.0617 329.562 69.8395 326.206 62.0812 329.823C54.3228 333.441 50.9662 342.663 54.584 350.422C58.2018 358.18 67.424 361.537 75.1823 357.919Z" fill="#C8D1E0"/>
<path fill-rule="evenodd" clip-rule="evenodd" d="M50.5798 305.395C71.2021 295.779 95.7886 304.858 105.495 325.675C110.349 336.084 110.563 347.456 106.986 357.428L92.3245 351.962C94.5198 345.774 94.373 338.726 91.3632 332.272C85.3223 319.317 70.036 313.66 57.2203 319.636C44.4046 325.612 38.9125 340.958 44.9534 353.913C47.9639 360.369 53.2707 365.013 59.4236 367.308L54.1871 382.053C44.2464 378.384 35.6702 370.909 30.8157 360.499C21.1089 339.682 29.9576 315.012 50.5798 305.395Z" fill="#0F1758"/>
</g>
<g clip-path="url(#clip10)">
<path fill-rule="evenodd" clip-rule="evenodd" d="M371.351 77.1749L379.54 90.4338L350.692 108.67L342.503 95.4115L371.351 77.1749Z" fill="#2AD78B"/>
<path fill-rule="evenodd" clip-rule="evenodd" d="M345.936 71.2538L354.125 84.5127L334.41 96.9759C331.865 96.1593 329.835 94.5209 328.321 92.0609C326.807 89.6008 326.107 86.8195 326.221 83.7169L345.936 71.2538Z" fill="#2AD78B"/>
<path fill-rule="evenodd" clip-rule="evenodd" d="M332.792 79.5875L345.964 71.2603L363.898 100.297L350.726 108.625L332.792 79.5875Z" fill="#2AD78B"/>
<path fill-rule="evenodd" clip-rule="evenodd" d="M358.156 85.4969L371.329 77.1697L383.64 97.1023C382.704 100.344 381.095 102.686 378.811 104.13C376.527 105.574 373.745 106.007 370.467 105.43L358.156 85.4969Z" fill="#2AD78B"/>
<path d="M360.264 67.7835C368.605 69.7092 376.928 64.5085 378.853 56.1675C380.779 47.8265 375.578 39.5037 367.237 37.578C358.896 35.6524 350.574 40.853 348.648 49.194C346.722 57.5351 351.923 65.8578 360.264 67.7835Z" fill="#C8D1E0"/>
<path fill-rule="evenodd" clip-rule="evenodd" d="M373.214 11.2475C395.385 16.3661 409.169 38.6578 404.002 61.0374C401.419 72.228 394.586 81.3215 385.628 86.9773L377.44 73.6428C382.979 70.1189 387.202 64.4744 388.805 57.5353C392.02 43.6077 383.457 29.7386 369.679 26.5576C355.901 23.3767 342.125 32.0885 338.909 46.0161C337.307 52.9571 338.63 59.8836 342.066 65.4798L328.861 73.8755C323.286 64.8642 321.13 53.6938 323.714 42.5015C328.881 20.1218 351.043 6.12897 373.214 11.2475Z" fill="#0F1758"/>
</g>
</g>
<defs>
<clipPath id="clip0">
<rect width="500" height="500" fill="white" transform="translate(0 500) rotate(-90)"/>
</clipPath>
<clipPath id="clip1">
<rect width="250" height="250" fill="white" transform="translate(287.73 427.435) rotate(-143.5)"/>
</clipPath>
<clipPath id="clip2">
<rect width="100" height="100" fill="white" transform="translate(114 246) rotate(-180)"/>
</clipPath>
<clipPath id="clip3">
<rect width="100" height="100" fill="white" transform="translate(55.7107 519.421) rotate(-135)"/>
</clipPath>
<clipPath id="clip4">
<rect width="100" height="100" fill="white" transform="translate(458.264 58.486) rotate(58.5)"/>
</clipPath>
<clipPath id="clip5">
<rect width="100" height="100" fill="white" transform="translate(202.097 369.234) rotate(93)"/>
</clipPath>
<clipPath id="clip6">
<rect width="100" height="100" fill="white" transform="translate(14 46)"/>
</clipPath>
<clipPath id="clip7">
<rect width="100" height="100" fill="white" transform="translate(490.442 270.372) rotate(162.5)"/>
</clipPath>
<clipPath id="clip8">
<rect width="100" height="100" fill="white" transform="translate(187.299 85.6843) rotate(-53.5)"/>
</clipPath>
<clipPath id="clip9">
<rect width="100" height="100" fill="white" transform="translate(5.2644 326.526) rotate(-25)"/>
</clipPath>
<clipPath id="clip10">
<rect width="100" height="100" fill="white" transform="translate(324.495) rotate(13)"/>
</clipPath>
</defs>
</svg>
