<svg width="500" height="500" viewBox="0 0 500 500" fill="none" xmlns="http://www.w3.org/2000/svg">
<g clip-path="url(#clip0)">
<path fill-rule="evenodd" clip-rule="evenodd" d="M283.538 339.642L310.943 367.334L250.927 427.98L223.523 400.288L283.538 339.642Z" fill="#2AD78B"/>
<path fill-rule="evenodd" clip-rule="evenodd" d="M218.3 339.511L245.704 367.203L204.688 408.65C198.03 408.092 192.165 405.243 187.093 400.102C182.02 394.961 178.751 388.58 177.284 380.958L218.3 339.511Z" fill="#2AD78B"/>
<path fill-rule="evenodd" clip-rule="evenodd" d="M190.968 367.203L218.372 339.511L278.388 400.157L250.984 427.85L190.968 367.203Z" fill="#2AD78B"/>
<path fill-rule="evenodd" clip-rule="evenodd" d="M256.078 367.334L283.482 339.642L324.68 381.273C324.224 389.694 321.621 396.306 316.869 401.108C312.117 405.909 305.586 408.529 297.276 408.965L256.078 367.334Z" fill="#2AD78B"/>
<path d="M251.25 323C272.651 323 290 305.651 290 284.25C290 262.849 272.651 245.5 251.25 245.5C229.849 245.5 212.5 262.849 212.5 284.25C212.5 305.651 229.849 323 251.25 323Z" fill="#C8D1E0"/>
<path fill-rule="evenodd" clip-rule="evenodd" d="M251 178C307.885 178 354 224.549 354 281.969C354 310.682 342.47 336.676 323.828 355.491L296.384 327.613C307.896 315.914 315.009 299.79 315.009 281.986C315.009 246.251 286.351 217.282 251 217.282C215.649 217.282 186.991 246.251 186.991 281.986C186.991 299.794 194.108 315.923 205.625 327.623L178.181 355.5C159.534 336.684 148 310.686 148 281.969C148 224.549 194.115 178 251 178Z" fill="#0F1758"/>
</g>
<g clip-path="url(#clip1)">
<path fill-rule="evenodd" clip-rule="evenodd" d="M170.705 128.177L186.038 130.963L180.287 164.604L164.954 161.818L170.705 128.177Z" fill="#2AD78B"/>
<path fill-rule="evenodd" clip-rule="evenodd" d="M149.299 143.102L164.631 145.888L160.701 168.879C158.392 170.224 155.816 170.636 152.975 170.115C150.133 169.594 147.598 168.254 145.369 166.093L149.299 143.102Z" fill="#2AD78B"/>
<path fill-rule="evenodd" clip-rule="evenodd" d="M146.697 158.447L149.322 143.085L182.901 149.187L180.275 164.549L146.697 158.447Z" fill="#2AD78B"/>
<path fill-rule="evenodd" clip-rule="evenodd" d="M168.06 143.551L170.686 128.19L193.737 132.379C195.52 135.243 196.183 138.007 195.728 140.67C195.273 143.334 193.734 145.69 191.111 147.74L168.06 143.551Z" fill="#2AD78B"/>
<path d="M156.307 130.132C163.319 125.222 165.023 115.557 160.113 108.545C155.203 101.533 145.538 99.8285 138.526 104.739C131.514 109.649 129.81 119.314 134.72 126.326C139.63 133.338 149.295 135.042 156.307 130.132Z" fill="#C8D1E0"/>
<path fill-rule="evenodd" clip-rule="evenodd" d="M122.958 82.6788C141.597 69.6276 167.386 74.2997 180.56 93.1142C187.148 102.522 189.334 113.685 187.542 124.127L172.154 121.289C173.242 114.814 171.873 107.899 167.788 102.065C159.59 90.3562 143.553 87.4393 131.97 95.55C120.387 103.661 117.643 119.728 125.842 131.437C129.928 137.272 135.96 140.923 142.418 142.115L139.822 157.546C129.395 155.659 119.651 149.786 113.062 140.377C99.8882 121.562 104.319 95.7301 122.958 82.6788Z" fill="#0F1758"/>
</g>
<g clip-path="url(#clip2)">
<path fill-rule="evenodd" clip-rule="evenodd" d="M347.891 139.108L350.517 154.469L316.938 160.571L314.312 145.21L347.891 139.108Z" fill="#2AD78B"/>
<path fill-rule="evenodd" clip-rule="evenodd" d="M326.545 124.097L329.171 139.458L306.223 143.629C304.169 141.918 302.901 139.639 302.418 136.791C301.936 133.942 302.329 131.101 303.597 128.267L326.545 124.097Z" fill="#2AD78B"/>
<path fill-rule="evenodd" clip-rule="evenodd" d="M311.236 126.9L326.569 124.114L332.32 157.755L316.987 160.541L311.236 126.9Z" fill="#2AD78B"/>
<path fill-rule="evenodd" clip-rule="evenodd" d="M332.54 141.881L347.873 139.095L351.82 162.188C349.739 164.843 347.369 166.412 344.71 166.895C342.052 167.378 339.311 166.738 336.488 164.974L332.54 141.881Z" fill="#2AD78B"/>
<path d="M341.13 126.247C348.142 131.157 357.807 129.453 362.717 122.441C367.627 115.428 365.923 105.763 358.911 100.853C351.898 95.9433 342.233 97.6475 337.323 104.66C332.413 111.672 334.117 121.337 341.13 126.247Z" fill="#C8D1E0"/>
<path fill-rule="evenodd" clip-rule="evenodd" d="M374.315 78.6788C392.954 91.7301 397.385 117.562 384.211 136.377C377.623 145.785 367.881 151.657 357.456 153.545L354.86 138.114C361.316 136.922 367.346 133.27 371.431 127.437C379.63 115.728 376.886 99.6607 365.303 91.55C353.719 83.4393 337.683 86.3562 329.484 98.0651C325.398 103.9 324.03 110.818 325.12 117.294L309.731 120.132C307.938 109.688 310.124 98.5237 316.712 89.1142C329.887 70.2997 355.676 65.6276 374.315 78.6788Z" fill="#0F1758"/>
</g>
<g clip-path="url(#clip3)">
<path fill-rule="evenodd" clip-rule="evenodd" d="M102.502 192.358L117.576 188.403L126.581 221.323L111.507 225.277L102.502 192.358Z" fill="#2AD78B"/>
<path fill-rule="evenodd" clip-rule="evenodd" d="M89.409 214.931L104.483 210.976L110.637 233.474C109.112 235.669 106.952 237.131 104.157 237.86C101.362 238.589 98.4971 238.445 95.5635 237.429L89.409 214.931Z" fill="#2AD78B"/>
<path fill-rule="evenodd" clip-rule="evenodd" d="M93.5356 229.938L89.4236 214.906L122.435 206.245L126.547 221.277L93.5356 229.938Z" fill="#2AD78B"/>
<path fill-rule="evenodd" clip-rule="evenodd" d="M106.603 207.409L102.491 192.377L125.152 186.432C127.978 188.274 129.748 190.499 130.461 193.105C131.174 195.712 130.775 198.498 129.264 201.464L106.603 207.409Z" fill="#2AD78B"/>
<path d="M90.2795 200.215C94.5597 192.801 92.0196 183.321 84.6061 179.041C77.1925 174.761 67.7129 177.301 63.4327 184.715C59.1525 192.128 61.6925 201.608 69.1061 205.888C76.5196 210.168 85.9993 207.628 90.2795 200.215Z" fill="#C8D1E0"/>
<path fill-rule="evenodd" clip-rule="evenodd" d="M40 171.301C51.3771 151.596 76.725 144.931 96.6161 156.415C106.562 162.157 113.261 171.35 116.05 181.571L100.904 185.502C99.154 179.175 94.9911 173.486 88.8236 169.925C76.4447 162.778 60.678 166.912 53.6077 179.158C46.5374 191.404 50.8409 207.125 63.2198 214.272C69.389 217.834 76.3995 218.594 82.7558 216.944L86.924 232.027C76.6766 234.723 65.3639 233.519 55.4161 227.775C35.525 216.291 28.6229 191.007 40 171.301Z" fill="#0F1758"/>
</g>
<g clip-path="url(#clip4)">
<path fill-rule="evenodd" clip-rule="evenodd" d="M103.177 369.568L105.963 354.235L139.604 359.986L136.818 375.319L103.177 369.568Z" fill="#2AD78B"/>
<path fill-rule="evenodd" clip-rule="evenodd" d="M118.102 390.974L120.888 375.642L143.879 379.572C145.224 381.881 145.636 384.457 145.115 387.298C144.594 390.14 143.254 392.675 141.093 394.904L118.102 390.974Z" fill="#2AD78B"/>
<path fill-rule="evenodd" clip-rule="evenodd" d="M133.447 393.576L118.085 390.951L124.187 357.372L139.549 359.998L133.447 393.576Z" fill="#2AD78B"/>
<path fill-rule="evenodd" clip-rule="evenodd" d="M118.551 372.213L103.19 369.587L107.379 346.536C110.243 344.753 113.007 344.09 115.67 344.545C118.334 345 120.69 346.539 122.74 349.162L118.551 372.213Z" fill="#2AD78B"/>
<path d="M105.132 383.966C100.222 376.954 90.5573 375.25 83.545 380.16C76.5327 385.07 74.8285 394.735 79.7386 401.747C84.6486 408.759 94.3136 410.463 101.326 405.553C108.338 400.643 110.042 390.978 105.132 383.966Z" fill="#C8D1E0"/>
<path fill-rule="evenodd" clip-rule="evenodd" d="M57.6788 417.315C44.6276 398.676 49.2997 372.887 68.1142 359.713C77.5221 353.125 88.6847 350.939 99.1265 352.731L96.2887 368.119C89.8144 367.031 82.8988 368.4 77.0651 372.485C65.3562 380.683 62.4393 396.72 70.55 408.303C78.6607 419.886 94.7277 422.63 106.437 414.431C112.272 410.345 115.924 404.313 117.115 397.855L132.546 400.451C130.659 410.878 124.786 420.622 115.377 427.211C96.5624 440.385 70.7301 435.954 57.6788 417.315Z" fill="#0F1758"/>
</g>
<g clip-path="url(#clip5)">
<path fill-rule="evenodd" clip-rule="evenodd" d="M259.686 107.603L270.934 118.389L247.571 143.267L236.323 132.481L259.686 107.603Z" fill="#2AD78B"/>
<path fill-rule="evenodd" clip-rule="evenodd" d="M233.598 108.233L244.846 119.02L228.88 136.022C226.211 135.869 223.836 134.791 221.754 132.788C219.672 130.786 218.298 128.268 217.632 125.236L233.598 108.233Z" fill="#2AD78B"/>
<path fill-rule="evenodd" clip-rule="evenodd" d="M222.959 119.593L233.627 108.233L258.261 131.855L247.592 143.215L222.959 119.593Z" fill="#2AD78B"/>
<path fill-rule="evenodd" clip-rule="evenodd" d="M248.996 118.963L259.664 107.603L276.573 123.818C276.479 127.191 275.507 129.862 273.658 131.832C271.808 133.801 269.224 134.917 265.905 135.179L248.996 118.963Z" fill="#2AD78B"/>
<path d="M246.601 101.286C255.159 101.062 261.914 93.9434 261.69 85.3859C261.466 76.8284 254.347 70.0729 245.79 70.297C237.232 70.521 230.477 77.6399 230.701 86.1974C230.925 94.7549 238.044 101.51 246.601 101.286Z" fill="#C8D1E0"/>
<path fill-rule="evenodd" clip-rule="evenodd" d="M244.983 43.3088C267.729 42.7132 286.656 60.8435 287.257 83.8039C287.558 95.2848 283.22 105.8 275.963 113.518L264.697 102.658C269.177 97.8599 271.853 91.3378 271.667 84.2186C271.292 69.9296 259.53 58.6461 245.394 59.0162C231.258 59.3864 220.102 71.27 220.477 85.5591C220.663 92.6802 223.678 99.0548 228.406 103.613L217.724 115.047C210.071 107.718 205.186 97.4437 204.886 85.9609C204.284 63.0004 222.237 43.9045 244.983 43.3088Z" fill="#0F1758"/>
</g>
<g clip-path="url(#clip6)">
<path fill-rule="evenodd" clip-rule="evenodd" d="M75.634 278.924L85.7135 267.039L111.972 288.839L101.893 300.725L75.634 278.924Z" fill="#2AD78B"/>
<path fill-rule="evenodd" clip-rule="evenodd" d="M77.8564 304.925L87.9358 293.04L105.881 307.938C105.891 310.611 104.96 313.048 103.088 315.248C101.217 317.448 98.7879 318.974 95.8019 319.824L77.8564 304.925Z" fill="#2AD78B"/>
<path fill-rule="evenodd" clip-rule="evenodd" d="M89.8441 314.851L77.8539 304.896L99.9278 278.867L111.918 288.821L89.8441 314.851Z" fill="#2AD78B"/>
<path fill-rule="evenodd" clip-rule="evenodd" d="M87.6262 288.901L75.636 278.947L90.7887 261.079C94.1605 260.967 96.8858 261.774 98.9649 263.5C101.044 265.226 102.315 267.737 102.779 271.034L87.6262 288.901Z" fill="#2AD78B"/>
<path d="M70.1284 292.371C69.3823 283.843 61.8643 277.534 53.3364 278.281C44.8086 279.027 38.5002 286.545 39.2463 295.072C39.9924 303.6 47.5104 309.909 56.0383 309.163C64.5661 308.416 70.8745 300.898 70.1284 292.371Z" fill="#C8D1E0"/>
<path fill-rule="evenodd" clip-rule="evenodd" d="M12.3578 297.525C10.3746 274.858 27.3156 254.859 50.1965 252.857C61.6377 251.857 72.3977 255.545 80.5449 262.317L70.3932 274.225C65.3301 270.046 58.6568 267.773 51.5622 268.394C37.3227 269.64 26.7784 282.069 28.0108 296.156C29.2432 310.243 41.7857 320.652 56.0253 319.406C63.1217 318.786 69.3004 315.387 73.561 310.39L85.6263 320.354C78.7787 328.44 68.8212 333.943 57.3782 334.944C34.4972 336.946 14.3409 320.193 12.3578 297.525Z" fill="#0F1758"/>
</g>
<g clip-path="url(#clip7)">
<path fill-rule="evenodd" clip-rule="evenodd" d="M408.116 208.901L404.004 223.933L370.992 215.272L375.104 200.24L408.116 208.901Z" fill="#2AD78B"/>
<path fill-rule="evenodd" clip-rule="evenodd" d="M395.113 186.276L391.001 201.307L368.441 195.389C367.302 192.97 367.116 190.369 367.883 187.584C368.649 184.798 370.206 182.389 372.553 180.357L395.113 186.276Z" fill="#2AD78B"/>
<path fill-rule="evenodd" clip-rule="evenodd" d="M380.054 182.346L395.128 186.301L386.123 219.22L371.049 215.266L380.054 182.346Z" fill="#2AD78B"/>
<path fill-rule="evenodd" clip-rule="evenodd" d="M393.031 204.927L408.105 208.882L401.923 231.479C398.914 233.006 396.103 233.426 393.49 232.741C390.876 232.055 388.662 230.316 386.849 227.525L393.031 204.927Z" fill="#2AD78B"/>
<path d="M407.423 194.388C411.703 201.801 421.183 204.341 428.596 200.061C436.01 195.781 438.55 186.301 434.27 178.888C429.99 171.474 420.51 168.934 413.096 173.214C405.683 177.495 403.143 186.974 407.423 194.388Z" fill="#C8D1E0"/>
<path fill-rule="evenodd" clip-rule="evenodd" d="M457.603 165.301C468.98 185.007 462.078 210.291 442.186 221.775C432.24 227.518 420.93 228.722 410.684 226.028L414.852 210.946C421.207 212.593 428.215 211.833 434.383 208.272C446.762 201.125 451.065 185.404 443.995 173.158C436.925 160.912 421.158 156.778 408.779 163.925C402.61 167.487 398.446 173.178 396.697 179.507L381.551 175.576C384.34 165.353 391.039 156.158 400.986 150.415C420.878 138.931 446.225 145.596 457.603 165.301Z" fill="#0F1758"/>
</g>
<g clip-path="url(#clip8)">
<path fill-rule="evenodd" clip-rule="evenodd" d="M422.432 299.856L410.442 309.811L388.368 283.781L400.358 273.827L422.432 299.856Z" fill="#2AD78B"/>
<path fill-rule="evenodd" clip-rule="evenodd" d="M424.759 273.864L412.768 283.819L397.683 266.03C398.137 263.397 399.477 261.159 401.703 259.317C403.928 257.475 406.585 256.394 409.673 256.076L424.759 273.864Z" fill="#2AD78B"/>
<path fill-rule="evenodd" clip-rule="evenodd" d="M414.677 262.008L424.756 273.893L398.498 295.694L388.418 283.809L414.677 262.008Z" fill="#2AD78B"/>
<path fill-rule="evenodd" clip-rule="evenodd" d="M412.355 287.948L422.434 299.834L404.409 314.799C401.069 314.324 398.525 313.056 396.777 310.995C395.03 308.934 394.214 306.24 394.33 302.913L412.355 287.948Z" fill="#2AD78B"/>
<path d="M430.189 287.57C429.443 296.098 435.752 303.616 444.279 304.362C452.807 305.108 460.325 298.8 461.071 290.272C461.817 281.744 455.509 274.226 446.981 273.48C438.453 272.734 430.935 279.042 430.189 287.57Z" fill="#C8D1E0"/>
<path fill-rule="evenodd" clip-rule="evenodd" d="M487.977 292.525C485.994 315.193 465.838 331.946 442.957 329.944C431.516 328.943 421.56 323.442 414.712 315.358L426.777 305.394C431.038 310.389 437.215 313.786 444.31 314.407C458.549 315.652 471.092 305.243 472.324 291.156C473.557 277.069 463.012 264.64 448.773 263.394C441.676 262.773 435.001 265.047 429.938 269.228L419.786 257.32C427.934 250.546 438.695 246.856 450.139 247.858C473.019 249.859 489.96 269.858 487.977 292.525Z" fill="#0F1758"/>
</g>
<g clip-path="url(#clip9)">
<path fill-rule="evenodd" clip-rule="evenodd" d="M387.165 386.891L371.804 389.517L365.702 355.938L381.063 353.312L387.165 386.891Z" fill="#2AD78B"/>
<path fill-rule="evenodd" clip-rule="evenodd" d="M402.176 365.545L386.814 368.171L382.644 345.223C384.355 343.169 386.634 341.901 389.482 341.418C392.33 340.936 395.171 341.329 398.005 342.597L402.176 365.545Z" fill="#2AD78B"/>
<path fill-rule="evenodd" clip-rule="evenodd" d="M399.373 350.236L402.159 365.569L368.518 371.32L365.732 355.987L399.373 350.236Z" fill="#2AD78B"/>
<path fill-rule="evenodd" clip-rule="evenodd" d="M384.392 371.54L387.178 386.873L364.085 390.82C361.43 388.739 359.861 386.369 359.378 383.71C358.895 381.052 359.535 378.311 361.299 375.488L384.392 371.54Z" fill="#2AD78B"/>
<path d="M400.026 380.13C395.116 387.142 396.82 396.807 403.832 401.717C410.845 406.627 420.509 404.923 425.42 397.911C430.33 390.898 428.625 381.233 421.613 376.323C414.601 371.413 404.936 373.117 400.026 380.13Z" fill="#C8D1E0"/>
<path fill-rule="evenodd" clip-rule="evenodd" d="M447.594 413.315C434.543 431.954 408.71 436.385 389.896 423.211C380.488 416.623 374.616 406.881 372.728 396.457L388.159 393.86C389.351 400.316 393.003 406.346 398.836 410.431C410.545 418.63 426.612 415.886 434.723 404.303C442.834 392.72 439.917 376.683 428.208 368.484C422.372 364.399 415.455 363.03 408.979 364.12L406.141 348.731C416.585 346.938 427.749 349.124 437.159 355.712C455.973 368.887 460.645 394.676 447.594 413.315Z" fill="#0F1758"/>
</g>
<defs>
<clipPath id="clip0">
<rect width="250" height="250" fill="white" transform="translate(126 178)"/>
</clipPath>
<clipPath id="clip1">
<rect width="100" height="100" fill="white" transform="translate(82 111.358) rotate(-35)"/>
</clipPath>
<clipPath id="clip2">
<rect width="100" height="100" fill="white" transform="translate(333.358 50) rotate(35)"/>
</clipPath>
<clipPath id="clip3">
<rect width="100" height="100" fill="white" transform="translate(15 214.603) rotate(-60)"/>
</clipPath>
<clipPath id="clip4">
<rect width="100" height="100" fill="white" transform="translate(86.3577 458.273) rotate(-125)"/>
</clipPath>
<clipPath id="clip5">
<rect width="100" height="100" fill="white" transform="translate(195 44.6177) rotate(-1.5)"/>
</clipPath>
<clipPath id="clip6">
<rect width="100" height="100" fill="white" transform="translate(16.7156 347.335) rotate(-95)"/>
</clipPath>
<clipPath id="clip7">
<rect width="100" height="100" fill="white" transform="translate(432.603 122) rotate(60)"/>
</clipPath>
<clipPath id="clip8">
<rect width="100" height="100" fill="white" transform="translate(492.335 242.716) rotate(95)"/>
</clipPath>
<clipPath id="clip9">
<rect width="100" height="100" fill="white" transform="translate(476.273 372.358) rotate(125)"/>
</clipPath>
</defs>
</svg>
